<?xml version="1.0" encoding="UTF-8"?>
<!DOCTYPE svg PUBLIC "-//W3C//DTD SVG 1.1//EN" "http://www.w3.org/Graphics/SVG/1.1/DTD/svg11.dtd">
<!-- Creator: CorelDRAW 2020 (64 Bit) -->
<svg xmlns="http://www.w3.org/2000/svg" xml:space="preserve" width="21.1666mm" height="21.1666mm" version="1.1" style="shape-rendering:geometricPrecision; text-rendering:geometricPrecision; image-rendering:optimizeQuality; fill-rule:evenodd; clip-rule:evenodd"
viewBox="0 0 2116.66 2116.66"
 xmlns:xlink="http://www.w3.org/1999/xlink"
 xmlns:xodm="http://www.corel.com/coreldraw/odm/2003">
 <defs>
  <style type="text/css">
   <![CDATA[
    .fil2 {fill:url(#id148)}
    .fil0 {fill:url(#id149)}
    .fil11 {fill:url(#id150)}
    .fil5 {fill:url(#id151)}
    .fil4 {fill:url(#id152)}
    .fil7 {fill:url(#id153)}
    .fil3 {fill:url(#id154)}
    .fil9 {fill:url(#id155)}
    .fil6 {fill:url(#id156)}
    .fil1 {fill:url(#id157)}
    .fil8 {fill:url(#id158)}
    .fil10 {fill:url(#id159)}
   ]]>
  </style>
     <clipPath id="id0">
      <path d="M820.78 318.81c0,0 0,0 0,0l0 0c0,0 0,0 0,0l0 0zm-0.17 0c0,0 -0.04,0 -0.04,0l0 0c0,0 0.04,0 0.04,0l0 0zm-0.21 0c0,0 0,0 -0.03,0l0 0c0.03,0 0.03,0 0.03,0l0 0zm-0.17 0c-0.04,0 -0.04,-0.03 -0.04,-0.03l0 0c0,0 0,0.03 0.04,0.03l0 0zm-0.21 -0.03c0,0 0,0 0,0l0 0c0,0 0,0 0,0l0 0zm-0.17 0c0,0 -0.03,0 -0.03,0l0 0c0,0 0.03,0 0.03,0l0 0zm-0.21 0c0,0 0,0 -0.03,0l0 0c0.03,0 0.03,0 0.03,0l0 0zm-0.17 0c-0.03,0 -0.03,0 -0.07,0l0 0c0.04,0 0.04,0 0.07,0 0,0 0,0 0,0zm-0.21 0c0,0 -0.03,0 -0.03,0l0 0c0,0 0.03,0 0.03,0l0 0zm-0.17 0c-0.03,0 -0.03,0 -0.07,0l0 0c0.04,0 0.04,0 0.07,0l0 0zm-0.17 0c-0.03,0 -0.07,0 -0.07,0l0 0c0,0 0.04,0 0.07,0l0 0zm-0.21 0c0,0 -0.03,0 -0.06,0l0 0c0.03,0 0.03,0 0.06,0l0 0zm-0.2 0c0,0 -0.04,0 -0.07,0l0 0c0.03,0 0.07,0 0.07,0l0 0zm-0.14 0c-0.03,0 -0.1,0 -0.14,0l0 0c0.04,0 0.11,0 0.14,0 0,0 0,0 0,0zm-0.17 0c-0.07,0 -0.14,0 -0.17,0 0,0 0,0 0,0 0.03,0 0.1,0 0.17,0 0,0 0,0 0,0zm-0.21 0c-51.57,-1.3 -94.92,-35.66 -109.65,-82.66 -1.62,-5.16 -2.89,-10.48 -3.78,-15.9 -0.83,-5.06 -1.35,-10.18 -1.52,-15.4 2.07,62.3 52.51,112.4 114.95,113.96l0 0 0 0z"/>
     </clipPath>
     <clipPath id="id1">
      <path d="M703 198.17c0,-0.06 0.02,-0.11 0.02,-0.14 0,0.03 -0.02,0.08 -0.02,0.14zm0.02 -0.22c0,-0.02 0,-0.08 0,-0.1 0,0.02 0,0.08 0,0.1zm0 -0.18c0,-0.03 0,-0.08 0,-0.14 0,0.06 0,0.11 0,0.14zm0 -0.19c0.01,-0.03 0.01,-0.08 0.01,-0.13 0,0.05 0,0.1 -0.01,0.13zm0.01 -0.19c0,-0.02 0,-0.08 0,-0.13 0,0.05 0,0.08 0,0.13zm0 -0.19c0,-0.05 0,-0.08 0.01,-0.13 -0.01,0.05 -0.01,0.08 -0.01,0.13zm0.01 -0.18c0,-0.06 0,-0.08 0,-0.14 0,0.06 0,0.08 0,0.14zm0 -0.19c0,-0.05 0,-0.11 0.02,-0.13 -0.02,0.02 -0.02,0.08 -0.02,0.13zm0.02 -0.19c0,-0.05 0,-0.1 0,-0.16 0,0.06 0,0.11 0,0.16zm0 -0.18c0,-0.06 0,-0.11 0.01,-0.16 -0.01,0.05 -0.01,0.1 -0.01,0.16zm0.01 -0.19c0,-0.05 0,-0.11 0,-0.16 0,0.05 0,0.11 0,0.16zm0 -0.19c0,-0.05 0.02,-0.1 0.02,-0.16 0,0.06 -0.02,0.11 -0.02,0.16zm0.02 -0.18c0,-0.06 0,-0.11 0,-0.19 0,0.08 0,0.13 0,0.19zm0 -0.19c0.01,-0.06 0.01,-0.14 0.01,-0.19 0,0.05 0,0.13 -0.01,0.19zm0.01 -0.19c0,-0.05 0,-0.13 0.01,-0.19 -0.01,0.06 -0.01,0.14 -0.01,0.19zm0.01 -0.19c1.6,-35 18.44,-66.02 44.05,-86.57 0,0 0,0 0,0 -25.61,20.57 -42.45,51.57 -44.05,86.57l0 0z"/>
     </clipPath>
     <clipPath id="id2">
      <path d="M703.01 198.22c0,-0.03 0,-0.05 0,-0.05 0,-0.06 0,-0.11 0,-0.14 0,-0.02 0.01,-0.05 0.01,-0.08 0,-0.02 0,-0.08 0,-0.1 0,-0.03 0,-0.06 0,-0.08 0,-0.03 0,-0.08 0,-0.14 0,-0.02 0,-0.02 0,-0.05 0,-0.03 0,-0.08 0.01,-0.13 0,0 0,-0.03 0,-0.06 0,-0.05 0,-0.08 0,-0.13 0,0 0,-0.03 0,-0.06 0,-0.05 0,-0.08 0,-0.13 0,-0.03 0,-0.03 0,-0.05 0.02,-0.06 0.02,-0.08 0.02,-0.14 0,-0.02 0,-0.02 0,-0.05 0,-0.05 0,-0.11 0,-0.13 0,-0.03 0,-0.03 0,-0.06 0.01,-0.05 0.01,-0.1 0.01,-0.16 0,0 0,0 0,-0.02 0,-0.06 0,-0.11 0,-0.16 0,0 0,-0.03 0,-0.03 0.02,-0.05 0.02,-0.11 0.02,-0.16 0,0 0,-0.03 0,-0.03 0,-0.05 0,-0.1 0,-0.16 0,-0.02 0,-0.02 0,-0.02 0.01,-0.06 0.01,-0.11 0.01,-0.19 0,0 0,0 0,0 0,-0.06 0,-0.14 0,-0.19 0.01,0 0.01,0 0.01,0 0,-0.05 0,-0.13 0,-0.19l0 0c1.61,-35 18.46,-66 44.06,-86.57 0.45,1.95 0.94,3.87 1.44,5.82 -2.15,1.82 -4.22,3.69 -6.23,5.64 -0.57,-2.03 -1.12,-4.01 -1.62,-5.9 -22.63,21 -37.02,50.77 -37.74,83.9l0 0z"/>
     </clipPath>
     <clipPath id="id3">
      <path d="M702.98 200.62l0 0 0 0 0 0 0 0z"/>
     </clipPath>
     <clipPath id="id4">
      <path d="M702.98 200.81c0,-0.06 0,-0.12 0,-0.19l0 0c0,0.06 0,0.13 0,0.19l0 0z"/>
     </clipPath>
     <clipPath id="id5">
      <path d="M702.98 200.55c0,-0.03 0,-0.08 0,-0.12 0,0 0,0 0,-0.01l0 0c0,0.05 0,0.09 0,0.13l0 0z"/>
     </clipPath>
     <clipPath id="id6">
      <path d="M702.98 200.24l0 -0.01 0 0 0 0.01 0 0z"/>
     </clipPath>
     <clipPath id="id7">
      <path d="M702.98 200.34c0,-0.03 0,-0.06 0,-0.1 0,0 0,-0.01 0,-0.01 0,0.04 0,0.07 0,0.11l0 0z"/>
     </clipPath>
     <clipPath id="id8">
      <path d="M702.98 200.05l0 -0.02 0 0 0 0.02 0 0z"/>
     </clipPath>
     <clipPath id="id9">
      <path d="M702.98 200.15c0,-0.03 0,-0.07 0,-0.1 0,-0.01 0,-0.01 0,-0.02 0,0.04 0,0.08 0,0.12l0 0z"/>
     </clipPath>
     <clipPath id="id10">
      <path d="M702.99 199.86l0 -0.03 0 0 0 0.03 0 0z"/>
     </clipPath>
     <clipPath id="id11">
      <path d="M702.98 199.96c0,-0.04 0,-0.07 0.01,-0.1 0,-0.01 0,-0.02 0,-0.03 0,0.04 -0.01,0.08 -0.01,0.13l0 0z"/>
     </clipPath>
     <clipPath id="id12">
      <path d="M702.99 199.67c0,-0.01 0,-0.02 0,-0.04l0 0.01c0,0.01 0,0.02 0,0.03l0 0z"/>
     </clipPath>
     <clipPath id="id13">
      <path d="M702.99 199.76c0,-0.03 0,-0.06 0,-0.09 0,-0.01 0,-0.02 0,-0.03 0,0.04 0,0.08 0,0.12l0 0z"/>
     </clipPath>
     <clipPath id="id14">
      <path d="M702.99 199.48l0 -0.04 0 0 0 0.04 0 0z"/>
     </clipPath>
     <clipPath id="id15">
      <path d="M702.99 199.56c0,-0.02 0,-0.05 0,-0.08 0,-0.01 0,-0.02 0,-0.04 0,0.04 0,0.08 0,0.12l0 0z"/>
     </clipPath>
     <clipPath id="id16">
      <path d="M702.99 199.29c0,-0.02 0,-0.04 0,-0.05l0 0c0,0.02 0,0.03 0,0.05l0 0z"/>
     </clipPath>
     <clipPath id="id17">
      <path d="M702.99 199.37c0,-0.03 0,-0.05 0,-0.08 0,-0.02 0,-0.03 0,-0.05 0,0.04 0,0.08 0,0.13l0 0z"/>
     </clipPath>
     <clipPath id="id18">
      <path d="M702.99 199.1c0,-0.02 0,-0.04 0,-0.06l0 0c0,0.02 0,0.04 0,0.06l0 0z"/>
     </clipPath>
     <clipPath id="id19">
      <path d="M702.99 199.18c0,-0.03 0,-0.05 0,-0.08 0,-0.02 0,-0.04 0,-0.06 0,0.05 0,0.09 0,0.14l0 0z"/>
     </clipPath>
     <clipPath id="id20">
      <path d="M703 198.91l0 -0.07 0 0 0 0.07 0 0z"/>
     </clipPath>
     <clipPath id="id21">
      <path d="M702.99 198.98c0,-0.02 0.01,-0.05 0.01,-0.07 0,-0.02 0,-0.04 0,-0.07 0,0.05 0,0.09 -0.01,0.14l0 0z"/>
     </clipPath>
     <clipPath id="id22">
      <path d="M703 198.72c0,-0.03 0,-0.05 0,-0.08l0 0c0,0.03 0,0.05 0,0.08l0 0z"/>
     </clipPath>
     <clipPath id="id23">
      <path d="M703 198.79c0,-0.03 0,-0.04 0,-0.07 0,-0.03 0,-0.05 0,-0.08 0,0.05 0,0.1 0,0.15l0 0z"/>
     </clipPath>
     <clipPath id="id24">
      <path d="M703 198.53c0,-0.03 0.01,-0.06 0.01,-0.1l0 0c0,0.04 -0.01,0.07 -0.01,0.1l0 0z"/>
     </clipPath>
     <clipPath id="id25">
      <path d="M703 198.59c0,-0.01 0,-0.04 0,-0.06 0,-0.03 0.01,-0.06 0.01,-0.1 0,0.06 -0.01,0.11 -0.01,0.16l0 0z"/>
     </clipPath>
     <clipPath id="id26">
      <path d="M703.01 198.34c0,-0.04 0,-0.07 0,-0.11 0,0.04 0,0.07 0,0.11l0 0z"/>
     </clipPath>
     <clipPath id="id27">
      <path d="M703.01 198.4c0,-0.02 0,-0.04 0,-0.06 0,-0.04 0,-0.07 0,-0.11l0 0c0,0.05 0,0.12 0,0.17l0 0z"/>
     </clipPath>
     <clipPath id="id28">
      <path d="M820.78 318.8c0,0 0,0 0,0 0,0 0,0 0,0zm-0.17 0c0,0 -0.04,0 -0.04,0 0,0 0.04,0 0.04,0zm-0.21 0c0,0 0,0 -0.03,0 0.03,0 0.03,0 0.03,0zm-0.17 0c-0.04,0 -0.04,0 -0.04,0 0,0 0,0 0.04,0zm-0.21 0c0,0 0,0 0,0 0,0 0,0 0,0zm-0.17 0c0,0 -0.03,0 -0.03,0 0,0 0.03,0 0.03,0zm-0.21 0c0,0 0,0 -0.03,0 0,0 0.03,0 0.03,0zm-0.17 0c-0.03,0 -0.03,0 -0.07,0 0.04,0 0.04,0 0.07,0zm-0.21 0c0,0 -0.03,0 -0.03,0 0,0 0.03,0 0.03,0zm-0.17 0c-0.03,0 -0.03,0 -0.07,0 0.04,0 0.04,0 0.07,0zm-0.17 0c-0.03,0 -0.07,0 -0.07,0 0,0 0.04,0 0.07,0zm-0.21 0c-0.03,0 -0.03,0 -0.06,0 0.03,0 0.03,0 0.06,0zm-0.2 0c0,0 -0.04,0 -0.07,0 0.03,0 0.07,0 0.07,0zm-0.14 0c-0.03,0 -0.1,-0.06 -0.14,-0.06 0.04,0 0.11,0.06 0.14,0.06zm-0.17 -0.06c-0.07,0 -0.14,0 -0.17,0 0.03,0 0.1,0 0.17,0zm-0.21 0c-62.44,-1.53 -112.88,-51.59 -114.95,-113.95 -0.03,-1.3 -0.07,-2.65 -0.07,-4l0 0c0,-0.06 0,-0.12 0,-0.18l0 0c0,0 0,-0.06 0,-0.06 0,-0.06 0,-0.06 0,-0.12 0,-0.05 0,-0.05 0,-0.11 0,0 0,-0.06 0,-0.12l0 0c0,0 0,0 0,-0.06 0,-0.06 0,-0.06 0,-0.12l0 0c0,0 0,-0.06 0,-0.06 0,-0.05 0,-0.11 0,-0.11l0 0c0,-0.06 0,-0.06 0,-0.06 0,-0.06 0,-0.12 0,-0.18l0 0c0,0 0,0 0,-0.06 0,-0.06 0,-0.06 0,-0.12l0 0c0,0 0,-0.05 0,-0.05 0.04,-0.06 0.04,-0.12 0.04,-0.12l0 0c0,-0.06 0,-0.06 0,-0.06 0,-0.06 0,-0.12 0,-0.18l0 0c0,0 0,0 0,-0.06 0,-0.05 0,-0.05 0,-0.11l0 0c0,0 0,-0.06 0,-0.06 0,-0.06 0,-0.12 0,-0.12l0 -0.06c0,0 0,0 0,0 0,-0.06 0,-0.12 0,-0.18l0 0c0,0 0,0 0,-0.05 0,0 0,-0.12 0,-0.12 0,-0.06 0,-0.06 0,-0.06 0.72,-33.12 15.1,-62.89 37.74,-83.89 0.52,1.88 1.03,3.88 1.62,5.94 -20.96,20.41 -34.03,49.01 -34.03,80.54 0,28.35 10.53,54.3 27.9,74.12 -1.89,0.59 -3.78,1.12 -5.67,1.71 21.02,25.06 52.33,41.3 87.42,42.12l0 0z"/>
     </clipPath>
     <clipPath id="id29">
      <path d="M820.97 318.8c-0.06,0 -0.12,0 -0.18,0 0.06,0 0.12,0 0.18,0l0 0zm-0.2 0c-0.06,0 -0.11,0 -0.17,0 0.06,0 0.11,0 0.17,0zm-0.2 0c-0.05,0 -0.11,0 -0.16,0 0.05,0 0.11,0 0.16,0zm-0.19 0c-0.06,0 -0.11,0 -0.17,0 0.06,0 0.11,0 0.17,0zm-0.19 0c-0.06,0 -0.11,0 -0.17,0 0.06,0 0.11,0 0.17,0zm-0.18 0c-0.06,0 -0.11,0 -0.16,-0.01 0.05,0.01 0.1,0.01 0.16,0.01zm-0.2 -0.01c-0.05,0 -0.1,0 -0.16,0 0.06,0 0.11,0 0.16,0zm-0.2 0c-0.05,0 -0.1,0 -0.15,0 0.05,0 0.11,0 0.15,0zm-0.2 0c-0.05,0 -0.1,0 -0.15,0 0.05,0 0.1,0 0.15,0zm-0.19 0c-0.04,-0.01 -0.08,-0.01 -0.12,-0.01 0.04,0 0.08,0 0.12,0.01zm-0.19 -0.01c-0.04,0 -0.08,0 -0.12,0 0.04,0 0.08,0 0.12,0zm-0.18 0c-0.05,0 -0.08,0 -0.13,0 0.05,0 0.08,0 0.13,0zm-0.21 0c-0.04,0 -0.08,-0.01 -0.12,-0.01 0.04,0 0.08,0.01 0.12,0.01zm-0.2 -0.01c-0.02,0 -0.04,0 -0.07,0 0.03,0 0.05,0 0.07,0zm-0.21 0c-0.02,0 -0.03,0 -0.04,0 0.01,0 0.03,0 0.04,0zm-0.22 -0.01c-0.01,0 -0.01,0 -0.02,0 0.01,0 0.01,0 0.02,0l0 0z"/>
     </clipPath>
     <clipPath id="id30">
      <path d="M820.96 313.43c-33.75,0 -64.05,-14.91 -84.69,-38.51 33.47,-10.05 60.65,-23.85 82.69,-39.37 22.64,22.97 47.81,40.67 73.35,52.34 -19.46,15.96 -44.32,25.54 -71.35,25.54l0 0z"/>
     </clipPath>
     <clipPath id="id31">
      <path d="M820.97 318.8c-0.06,0 -0.12,0 -0.18,0l0 0c0.06,0 0.12,0 0.18,0zm-0.2 0l0 0c-0.06,0 -0.11,0 -0.17,0l0 0c0.06,0 0.11,0 0.17,0zm-0.2 0l0 0c-0.05,0 -0.11,0 -0.16,0l0 0c0.05,0 0.11,0 0.16,0zm-0.19 0l0 0c-0.06,0 -0.11,0 -0.17,0l0 0c0.06,0 0.11,0 0.17,0zm-0.19 0l0 0c-0.06,0 -0.11,0 -0.17,0l0 0c0.06,0 0.11,0 0.17,0zm-0.18 0l0 0c-0.06,0 -0.11,0 -0.16,-0.01l0 0c0.05,0.01 0.1,0.01 0.16,0.01zm-0.2 -0.01l0 0c-0.05,0 -0.1,0 -0.16,0l0 0c0.06,0 0.11,0 0.16,0zm-0.2 0l0 0c-0.04,0 -0.1,0 -0.15,0 0,0 0.01,0 0,0 0.05,0 0.11,0 0.15,0zm-0.2 0l0 0c-0.05,0 -0.1,0 -0.15,0l0 0c0.05,0 0.1,0 0.15,0zm-0.19 0l0 0c-0.04,-0.01 -0.08,-0.01 -0.12,-0.01l-0.01 0c0.05,0 0.09,0 0.13,0.01zm-0.19 -0.01l0 0c-0.04,0 -0.08,0 -0.12,0l0 0c0.04,0 0.08,0 0.12,0zm-0.18 0l0 0c-0.05,0 -0.08,0 -0.13,0l0 0c0.04,0 0.08,0 0.13,0zm-0.21 0l0 0c-0.04,0 -0.08,-0.01 -0.12,-0.01l0 0c0.04,0 0.08,0.01 0.12,0.01zm-0.2 -0.01l0 0c-0.02,0 -0.04,0 -0.07,0 0,0 0,0 0,0 0.02,0 0.05,0 0.07,0zm-0.21 0l0 0c-0.01,0 -0.03,0 -0.04,0 -0.01,0 0,0 -0.01,0 0.02,0 0.03,0 0.05,0zm-0.21 -0.01c0,0 -0.01,0 -0.01,0 -0.01,0 -0.01,0 -0.02,0l0 0c0.01,0 0.02,0 0.03,0l0 0z"/>
     </clipPath>
     <clipPath id="id32">
      <path d="M821.15 318.8c0.02,0 0.04,0 0.06,0 -0.02,0 -0.04,0 -0.06,0l0 0z"/>
     </clipPath>
     <clipPath id="id33">
      <path d="M821.33 318.8c0.02,0 0.05,0 0.07,0 -0.02,0 -0.04,0 -0.07,0l0 0z"/>
     </clipPath>
     <clipPath id="id34">
      <path d="M821.52 318.8c0.02,0 0.05,0 0.07,0 -0.02,0 -0.05,0 -0.07,0l0 0z"/>
     </clipPath>
     <clipPath id="id35">
      <path d="M821.7 318.8c0.03,0 0.05,0 0.08,0 -0.02,0 -0.06,0 -0.08,0l0 0z"/>
     </clipPath>
     <clipPath id="id36">
      <path d="M821.88 318.8c0.03,0 0.06,0 0.08,0 -0.02,0 -0.05,0 -0.08,0l0 0z"/>
     </clipPath>
     <clipPath id="id37">
      <path d="M822.07 318.8c0.02,-0.01 0.06,-0.01 0.08,-0.01 -0.03,0 -0.06,0 -0.08,0.01l0 0z"/>
     </clipPath>
     <clipPath id="id38">
      <path d="M822.25 318.79c0.03,0 0.05,0 0.08,0 -0.03,0 -0.05,0 -0.08,0l0 0z"/>
     </clipPath>
     <clipPath id="id39">
      <path d="M822.43 318.79c0.03,0 0.06,0 0.09,0 -0.03,0 -0.06,0 -0.09,0l0 0z"/>
     </clipPath>
     <clipPath id="id40">
      <path d="M822.61 318.79c0.03,0 0.06,0 0.09,0 -0.03,0 -0.06,0 -0.09,0l0 0z"/>
     </clipPath>
     <clipPath id="id41">
      <path d="M822.8 318.78c0.03,0 0.05,0 0.08,0 -0.02,0 -0.05,0 -0.08,0l0 0z"/>
     </clipPath>
     <clipPath id="id42">
      <path d="M823.01 318.78c0.04,0 0.07,0 0.1,0 -0.03,0 -0.07,0 -0.1,0l0 0z"/>
     </clipPath>
     <clipPath id="id43">
      <path d="M823.24 318.78c0.03,0 0.06,0 0.09,0 -0.03,0 -0.06,0 -0.09,0l0 0z"/>
     </clipPath>
     <clipPath id="id44">
      <path d="M823.42 318.77c0.03,0 0.06,0 0.09,0 -0.02,0 -0.06,0 -0.09,0l0 0z"/>
     </clipPath>
     <clipPath id="id45">
      <path d="M823.61 318.77c0.02,0 0.06,0 0.09,0 -0.03,0 -0.07,0 -0.09,0l0 0z"/>
     </clipPath>
     <clipPath id="id46">
      <path d="M823.79 318.77c0.03,0 0.06,-0.01 0.09,-0.01 -0.03,0.01 -0.06,0.01 -0.09,0.01l0 0z"/>
     </clipPath>
     <clipPath id="id47">
      <path d="M823.97 318.76c0.03,0 0.06,0 0.1,0 -0.04,0 -0.07,0 -0.1,0l0 0z"/>
     </clipPath>
     <clipPath id="id48">
      <path d="M824.15 318.76c0.03,0 0.07,0 0.1,0 -0.04,0 -0.07,0 -0.1,0l0 0z"/>
     </clipPath>
     <clipPath id="id49">
      <path d="M824.33 318.75c0.03,0 0.06,0 0.1,0 -0.03,0 -0.07,0 -0.1,0l0 0z"/>
     </clipPath>
     <clipPath id="id50">
      <path d="M824.51 318.75c0.03,0 0.07,0 0.1,0 -0.03,0 -0.07,0 -0.1,0l0 0z"/>
     </clipPath>
     <clipPath id="id51">
      <path d="M824.68 318.74c0.04,0 0.08,0 0.11,0 -0.03,0 -0.07,0 -0.11,0l0 0z"/>
     </clipPath>
     <clipPath id="id52">
      <path d="M824.86 318.74c0.04,-0.01 0.08,-0.01 0.12,-0.01 -0.04,0 -0.09,0 -0.12,0.01l0 0z"/>
     </clipPath>
     <clipPath id="id53">
      <path d="M825 318.73c0.16,0 0.31,-0.01 0.47,-0.01 -0.16,0 -0.31,0.01 -0.47,0.01l0 0z"/>
     </clipPath>
     <clipPath id="id54">
      <path d="M825.5 318.72c0.05,-0.01 0.09,-0.01 0.13,-0.01 -0.04,0 -0.08,0 -0.13,0.01l0 0z"/>
     </clipPath>
     <clipPath id="id55">
      <path d="M825.68 318.71c0.04,0 0.09,0 0.13,-0.01 -0.05,0.01 -0.08,0.01 -0.13,0.01l0 0z"/>
     </clipPath>
     <clipPath id="id56">
      <path d="M825.86 318.7c0.04,0 0.09,0 0.13,-0.01 -0.05,0.01 -0.09,0.01 -0.13,0.01l0 0z"/>
     </clipPath>
     <clipPath id="id57">
      <path d="M826.21 318.69c0.05,-0.01 0.1,-0.01 0.14,-0.01 -0.04,0 -0.09,0 -0.14,0.01l0 0z"/>
     </clipPath>
     <clipPath id="id58">
      <path d="M826.39 318.68c0.04,0 0.09,-0.01 0.14,-0.01 -0.05,0 -0.1,0.01 -0.14,0.01l0 0z"/>
     </clipPath>
     <clipPath id="id59">
      <path d="M826.56 318.67c0.05,0 0.1,-0.01 0.15,-0.01 -0.05,0 -0.1,0.01 -0.15,0.01l0 0z"/>
     </clipPath>
     <clipPath id="id60">
      <path d="M826.71 318.66c27.12,-1.3 51.83,-11.76 71.1,-28.34 0.02,0 0.02,0 0.02,0.01 -19.29,16.57 -44,27.03 -71.12,28.33l0 0z"/>
     </clipPath>
     <clipPath id="id61">
      <path d="M820.94 318.8l0 0 0 0c-0.04,0 -0.09,0 -0.14,0 0,0 0,0 -0.05,0 -0.05,0 -0.1,0 -0.15,0 0,0 0,0 -0.04,0 -0.05,0 -0.1,0 -0.15,0 0,0 0,0 -0.05,0 -0.05,0 -0.1,0 -0.14,0 0,0 0,0 -0.05,0 -0.05,0 -0.1,0 -0.15,0 0,0 0,0 0,0 -0.05,0 -0.1,0 -0.19,-0.01 0,0 0,0 0,0 -0.05,0 -0.1,0 -0.2,0 0,0 0,0 0,0 -0.05,0 -0.1,0 -0.14,0 -0.05,0 -0.05,0 -0.1,0 -0.05,0 -0.1,0 -0.15,0 0,0 0,0 0,0 -0.05,0 -0.09,0 -0.14,0 0,0 -0.05,0 -0.05,0 -0.05,0 -0.1,0 -0.15,0 0,0 -0.05,0 -0.05,-0.02 -0.04,0 -0.09,0 -0.14,0 0,0 -0.05,0 -0.05,0 -0.05,0 -0.1,0 -0.15,0 0,0 -0.05,0 -0.05,0 -0.04,0 -0.04,0 -0.09,0 -0.05,0 -0.1,0 -0.15,0 0,0 0,0 -0.05,-0.01 -0.05,0 -0.09,0 -0.14,0 0,0 -0.05,0 -0.05,0 -35.12,-0.87 -66.39,-17.08 -87.45,-42.17 1.95,-0.54 3.85,-1.09 5.69,-1.65 20.67,23.58 51.02,38.49 84.72,38.49 27.09,0 51.95,-9.58 71.35,-25.53 1.85,0.84 3.7,1.64 5.54,2.43 -19.3,16.58 -44.01,27.03 -71.1,28.34l0 0c0,0 0,0 -0.05,0l0 0c-0.04,0 -0.09,0 -0.14,0l0 0c0,0 0,0 0,0l0 0c-0.05,0.01 -0.1,0.01 -0.15,0.01l0 0c0,0 -0.05,0 -0.05,0l0 0c-0.05,0 -0.09,0 -0.14,0.01l0 0c0,0 0,0 -0.05,0l0 0c-0.05,0 -0.05,0 -0.1,0l0 0c-0.05,0 -0.05,0 -0.05,0l0 0c-0.05,0 -0.09,0.02 -0.14,0.02l0 0c0,0 -0.05,0 -0.05,0l0 0c-0.05,0 -0.1,0 -0.15,0l0 0c0,0 0,0 -0.05,0l0 0c-0.04,0 -0.04,0.01 -0.09,0.01l0 0c-0.05,0 -0.05,0 -0.05,0l0 0c-0.15,0 -0.29,0.01 -0.49,0.01l0 0c0,0 0,0 0,0l0 0c-0.05,0 -0.1,0 -0.14,0l0 0c0,0 0,0 -0.05,0l0 0c-0.05,0 -0.05,0.02 -0.1,0.02l0 0c-0.05,0 -0.05,0 -0.1,0l0 0c0,0 -0.05,0 -0.09,0l0 0c0,0 -0.05,0 -0.05,0l0 0c-0.05,0 -0.1,0.01 -0.1,0.01l0 0c-0.05,0 -0.1,0 -0.1,0l0 0c-0.05,0 -0.05,0 -0.1,0l0 0c-0.04,0 -0.04,0 -0.09,0l0 0c0,0 -0.05,0 -0.1,0l0 0c0,0 -0.05,0 -0.1,0l0 0c0,0 -0.05,0 -0.09,0l0 0c0,0 -0.05,0.01 -0.05,0.01l0 0c-0.05,0 -0.1,0 -0.1,0l0 0c-0.05,0 -0.1,0 -0.1,0l0 0c-0.05,0 -0.05,0 -0.09,0l0 0c-0.05,0 -0.05,0 -0.1,0l0 0c-0.05,0 -0.05,0 -0.1,0l0 0c-0.05,0 -0.1,0 -0.1,0l0 0c-0.05,0.02 -0.09,0.02 -0.14,0.02l0 0c0,0 -0.05,0 -0.1,0l0 0c-0.05,0 -0.05,0 -0.1,0l0 0c-0.05,0 -0.05,0 -0.09,0l0 0c-0.05,0 -0.05,0 -0.1,0l0 0c0,0 -0.05,0 -0.1,0l0 0c0,0 -0.05,0 -0.05,0l0 0c-0.05,0 -0.09,0 -0.09,0l0 0c-0.05,0 -0.1,0 -0.1,0l0 0c-0.05,0 -0.05,0 -0.1,0l0 0c-0.05,0 -0.05,0 -0.1,0.01l0 0c-0.05,0 -0.05,0 -0.09,0l0 0c-0.05,0 -0.05,0 -0.1,0l0 0c0,0 -0.05,0 -0.1,0l0 0c0,0 -0.05,0 -0.05,0l0 0c-0.05,0 -0.09,0 -0.14,0l0 0c0,0 -0.05,0 -0.05,0l0 0c-0.05,0 -0.1,0 -0.15,0l0 0c0,0 -0.05,0 -0.05,0l0 0c-0.04,0 -0.09,0 -0.14,0l0 0c0,0 0,0 -0.05,0l0 0c-0.05,0 -0.1,0 -0.2,0l0 0 0 0z"/>
     </clipPath>
     <clipPath id="id62">
      <path d="M897.81 290.35l0 0c24.78,-21.29 40.62,-52.72 41.12,-87.8 -0.06,6 -0.62,11.87 -1.56,17.63 -0.89,5.46 -2.17,10.8 -3.78,15.95 -6.66,21.29 -19.22,40 -35.78,54.22zm41.12 -91.22l0 0c0,-0.06 0,-0.12 0,-0.18 0,0 0,0 0,0 0,0.06 0,0.12 0,0.18zm0 -0.18c0,0 0,0 0,0 -1,-64.29 -53.45,-116.1 -117.95,-116.1 -27.95,0 -53.62,9.71 -73.84,25.91l0 0c20.22,-16.2 45.89,-25.91 73.84,-25.91 64.56,0 116.95,51.81 117.95,116.1zm-69.84 -10.85c-38.78,-19.91 -47.28,-70.11 -48.78,-99.91 0.22,0 0.45,0 0.67,0 32.83,0 62.44,14.15 83.06,36.7 -6,16.91 -16.62,39.82 -34.95,63.21l0 0z"/>
     </clipPath>
     <clipPath id="id63">
      <path d="M820.03 234.79c-1.21,-0.6 -2.43,-1.19 -3.58,-1.84 -6.9,-7.18 -13.52,-14.84 -19.87,-22.97 -23.56,-30.41 -39.62,-63.35 -48,-95.39 19.47,-16.34 44.47,-26.22 71.73,-26.39 1.49,29.77 9.98,79.99 48.77,99.88 -12.47,15.91 -28.47,32.04 -49.05,46.71zm118.91 -33.96l0 0c0,-0.04 0,-0.09 0,-0.17 0,0.08 0,0.13 0,0.17l0 0 0 0 0 0 0 0 0 0z"/>
     </clipPath>
     <clipPath id="id64">
      <path d="M818.96 235.54c-0.84,-0.85 -1.68,-1.72 -2.51,-2.58 1.17,0.63 2.37,1.24 3.57,1.82 -0.35,0.25 -0.71,0.51 -1.06,0.76l0 0z"/>
     </clipPath>
     <clipPath id="id65">
      <path d="M938.93 200.62c0,0 0,-0.04 0,-0.04 0,0 0,0.04 0,0.04zm0 -0.18c0,-0.03 0,-0.07 0,-0.07 0,0 0,0.04 0,0.07zm0 -0.21c0,-0.03 0,-0.06 0,-0.06 0,0.03 0,0.03 0,0.06zm0 -0.17c0,-0.03 0,-0.07 0,-0.1 0,0.03 0,0.07 0,0.1zm0 -0.17c0,-0.07 0,-0.11 0,-0.14 0,0.03 0,0.1 0,0.14zm0 -0.21c0,-0.04 0,-0.07 0,-0.14 0,0.07 0,0.1 0,0.14zm0 -0.17c0,-0.04 0,-0.11 0,-0.14 0,0.03 0,0.1 0,0.14zm0 -0.18c0,-0.07 0,-0.1 0,-0.17 0,0.07 0,0.1 0,0.17zm0 -0.21c0,-0.03 0,-0.1 0,-0.17 0,0.07 0,0.14 0,0.17zm0 -0.17c-0.45,-31 -12.95,-59.08 -32.89,-79.87 -0.62,1.84 -1.28,3.79 -2,5.8 -20.62,-22.53 -50.23,-36.69 -83.06,-36.69 -0.22,0 -0.45,0 -0.67,0 -0.11,-1.87 -0.17,-3.64 -0.22,-5.34 -27.56,0.2 -52.95,9.89 -72.95,25.92 0,0 0,0 0,0 20.22,-16.24 45.89,-25.92 73.84,-25.92 64.5,0 116.95,51.78 117.95,116.1l0 0z"/>
     </clipPath>
     <clipPath id="id66">
      <path d="M748.59 114.58c-0.5,-1.93 -0.99,-3.88 -1.43,-5.81 20,-16.05 45.35,-25.72 72.94,-25.92 0.05,1.69 0.11,3.48 0.2,5.35 -27.26,0.16 -52.28,10.06 -71.71,26.38l0 0z"/>
     </clipPath>
     <clipPath id="id67">
      <path d="M938.95 200.68l0 0c0,-0.02 0,-0.04 0,-0.05 0,0.01 0,0.03 0,0.05zm0 -0.11c0,-0.05 0,-0.09 0,-0.14 0,0.05 0,0.09 0,0.14zm0 -0.21c0,-0.04 0,-0.07 0,-0.11 0,0.04 0,0.07 0,0.11zm0 -0.21c0,-0.03 0,-0.06 0,-0.09 0,0.03 0,0.06 0,0.09zm0 -0.21c0,-0.02 0,-0.04 0,-0.06 0,0.02 0,0.04 0,0.06zm0 -0.19c0,-0.02 0,-0.04 0,-0.06 0,0.02 0,0.04 0,0.06zm0 -0.2c0,-0.02 0,-0.03 0,-0.04 0,0.01 0,0.03 0,0.04zm-0.01 -0.19c0,-0.02 0,-0.03 0,-0.04 0,0.01 0,0.02 0,0.04zm0 -0.2c0,-0.01 0,-0.02 0,-0.02 0,0 0,0.01 0,0.02zm0 -0.2c0,0 0,0 0,-0.01 0,0.01 0,0.01 0,0.01l0 0z"/>
     </clipPath>
     <clipPath id="id68">
      <path d="M938.94 198.97c0,0 0,-0.02 0,-0.02 0,0 0,0 0,0 0,0 0,0 0,0.02 0,0 0,0 0,0zm-31.74 -2.44c-15.16,0 -27.72,-3.15 -38.11,-8.47 18.32,-23.37 28.94,-46.23 34.97,-63.2 16.85,18.42 27.68,42.45 29.31,68.92 -9.48,1.89 -18.19,2.75 -26.17,2.75l0 0z"/>
     </clipPath>
     <clipPath id="id69">
      <path d="M858.61 243.49c-14.4,0 -27.21,-3.21 -38.59,-8.71 20.58,-14.65 36.62,-30.8 49.08,-46.71 10.38,5.31 22.94,8.47 38.11,8.47 7.98,0 16.66,-0.88 26.17,-2.75 0.14,2.31 0.21,4.66 0.21,7.03 0,6.66 -0.59,13.17 -1.7,19.53 -28.08,16.36 -52.35,23.14 -73.28,23.14zm80.36 -42.67c0,-0.05 0,-0.1 0,-0.14l0 0 0 0c0,0.04 0,0.09 0,0.14l0 0z"/>
     </clipPath>
     <clipPath id="id70">
      <path d="M892.29 287.89c-25.51,-11.66 -50.71,-29.36 -73.32,-52.34 0.34,-0.26 0.7,-0.51 1.04,-0.77 11.4,5.51 24.2,8.72 38.6,8.72 20.94,0 45.18,-6.78 73.29,-23.17 -4.77,27.06 -19.21,50.83 -39.61,67.56l0 0z"/>
     </clipPath>
     <clipPath id="id71">
      <path d="M938.95 200.68c0,-2.7 -0.13,-5.37 -0.31,-8.02 -1.79,0.39 -3.54,0.78 -5.28,1.13 -1.63,-26.48 -12.45,-50.5 -29.3,-68.91 0.71,-2.04 1.36,-3.95 1.95,-5.79 19.99,20.79 32.44,48.86 32.93,79.87 0,0 0,0 0,0 0,0.07 0,0.12 0,0.17 0,0 0,0.03 0,0.03 0,0.05 0,0.12 0,0.17 0,0 0,0.02 0,0.02 0.01,0.05 0.01,0.1 0.01,0.15 0,0.02 0,0.02 0,0.05 0,0.05 0,0.1 0,0.15 0,0.02 0,0.02 0,0.04 0,0.05 0,0.1 0,0.13 0,0.02 0,0.05 0,0.07 0,0.05 0,0.07 0,0.12 0,0.03 0,0.05 0,0.08 0,0.05 0,0.07 0,0.12 0,0.02 0,0.07 0,0.1 0,0.02 0,0.05 0,0.07 0,0.05 0,0.1 0,0.15 0,0 0,0.02 0,0.05 0,0.02 0,0.02 0,0.05l0 0z"/>
     </clipPath>
     <clipPath id="id72">
      <path d="M897.83 290.34c-0.01,0 -0.01,0 -0.01,0 21.36,-18.38 36.06,-44.28 40.03,-73.59 -2.01,1.26 -3.99,2.43 -5.96,3.6 1.11,-6.35 1.7,-12.88 1.7,-19.55 0,-2.34 -0.08,-4.69 -0.22,-7.01 1.73,-0.34 3.48,-0.71 5.27,-1.14 0.18,2.66 0.31,5.32 0.31,8.04 0,0.03 0,0.08 0,0.11l0 0c0,35.81 -15.95,67.9 -41.12,89.54l0 0z"/>
     </clipPath>
     <clipPath id="id73">
      <path d="M897.82 290.33c-1.85,-0.79 -3.68,-1.6 -5.52,-2.44 20.41,-16.75 34.84,-40.49 39.59,-67.55 1.97,-1.15 3.96,-2.34 5.96,-3.59 -3.97,29.31 -18.67,55.21 -40.03,73.58l0 0z"/>
     </clipPath>
     <clipPath id="id74">
      <path d="M1328.2 318.48c0,0 0,0 0,0l0 0c0,0 0,0 0,0l0 0zm-0.17 0c0,0 -0.04,0 -0.04,0l0 0c0,0 0.04,0 0.04,0l0 0zm-0.21 0c0,0 0,0 -0.03,0l0 0c0.03,0 0.03,0 0.03,0l0 0zm-0.17 0c-0.04,0 -0.04,-0.04 -0.04,-0.04l0 0c0,0 0,0.04 0.04,0.04l0 0zm-0.21 -0.04c0,0 0,0 0,0l0 0c0,0 0,0 0,0l0 0zm-0.17 0c0,0 -0.03,0 -0.03,0l0 0c0,0 0.03,0 0.03,0l0 0zm-0.21 0c0,0 0,0 -0.03,0l0 0c0.03,0 0.03,0 0.03,0l0 0zm-0.17 0c-0.03,0 -0.03,0 -0.07,0l0 0c0.04,0 0.04,0 0.07,0 0,0 0,0 0,0zm-0.2 0c0,0 -0.04,0 -0.04,0l0 0c0,0 0.04,0 0.04,0l0 0zm-0.18 0c-0.03,0 -0.03,0 -0.07,0l0 0c0.04,0 0.04,0 0.07,0l0 0zm-0.17 0c-0.03,0 -0.07,0 -0.07,0l0 0c0,0 0.04,0 0.07,0l0 0zm-0.2 0c0,0 -0.04,0 -0.07,0l0 0c0.03,0 0.03,0 0.07,0l0 0zm-0.21 0c0,0 -0.04,0 -0.07,0l0 0c0.03,0 0.07,0 0.07,0l0 0zm-0.14 0c-0.03,0 -0.1,0 -0.14,0l0 0c0.04,0 0.11,0 0.14,0 0,0 0,0 0,0zm-0.17 0c-0.07,0 -0.14,0 -0.17,0 0,0 0,0 0,0 0.03,0 0.1,0 0.17,0 0,0 0,0 0,0zm-0.21 0c-51.57,-1.29 -94.92,-35.66 -109.65,-82.66 -1.62,-5.16 -2.89,-10.48 -3.78,-15.9 -0.83,-5.06 -1.35,-10.18 -1.52,-15.4 2.07,62.3 52.51,112.4 114.95,113.96l0 0 0 0z"/>
     </clipPath>
     <clipPath id="id75">
      <path d="M1210.42 197.83c0,-0.05 0.02,-0.11 0.02,-0.13 0,0.02 -0.02,0.08 -0.02,0.13zm0.02 -0.21c0,-0.03 0,-0.08 0,-0.11 0,0.03 0,0.08 0,0.11zm0 -0.19c0,-0.03 0,-0.08 0,-0.14 0,0.06 0,0.11 0,0.14zm0 -0.19c0.01,-0.03 0.01,-0.08 0.01,-0.13 0,0.05 0,0.1 -0.01,0.13zm0.01 -0.19c0,-0.02 0,-0.08 0,-0.13 0,0.05 0,0.08 0,0.13zm0 -0.18c0,-0.06 0,-0.08 0.02,-0.14 -0.02,0.06 -0.02,0.08 -0.02,0.14zm0.02 -0.19c0,-0.05 0,-0.08 0,-0.13 0,0.05 0,0.08 0,0.13zm0 -0.19c0,-0.05 0,-0.1 0.01,-0.13 -0.01,0.03 -0.01,0.08 -0.01,0.13zm0.01 -0.18c0,-0.06 0,-0.11 0,-0.16 0,0.05 0,0.1 0,0.16zm0 -0.19c0,-0.05 0,-0.11 0.01,-0.16 -0.01,0.05 -0.01,0.11 -0.01,0.16zm0.01 -0.19c0,-0.05 0,-0.11 0,-0.16 0,0.05 0,0.11 0,0.16zm0 -0.19c0,-0.05 0.02,-0.1 0.02,-0.16 0,0.06 -0.02,0.11 -0.02,0.16zm0.02 -0.18c0,-0.06 0,-0.11 0,-0.19 0,0.08 0,0.13 0,0.19zm0 -0.19c0.01,-0.05 0.01,-0.13 0.01,-0.19 0,0.06 0,0.14 -0.01,0.19zm0.01 -0.19c0,-0.05 0,-0.13 0.01,-0.18 -0.01,0.05 -0.01,0.13 -0.01,0.18zm0.01 -0.18c1.6,-35.01 18.44,-66.03 44.05,-86.58 0,0 0,0 0,0 -25.61,20.58 -42.45,51.57 -44.05,86.58l0 0z"/>
     </clipPath>
     <clipPath id="id76">
      <path d="M1210.43 197.88c0,-0.02 0,-0.05 0,-0.05 0,-0.05 0,-0.11 0,-0.13 0,-0.03 0.01,-0.06 0.01,-0.08 0,-0.03 0,-0.08 0,-0.11 0,-0.03 0,-0.06 0,-0.08 0,-0.03 0,-0.08 0,-0.14 0,-0.02 0,-0.02 0,-0.05 0,-0.03 0,-0.08 0.01,-0.13 0,0 0,-0.03 0,-0.06 0,-0.05 0,-0.08 0,-0.13 0,0 0,-0.03 0,-0.05 0,-0.06 0,-0.08 0,-0.14 0,-0.02 0,-0.02 0,-0.05 0.02,-0.05 0.02,-0.08 0.02,-0.13 0,-0.03 0,-0.03 0,-0.06 0,-0.05 0,-0.1 0,-0.13 0,-0.03 0,-0.03 0,-0.05 0.01,-0.06 0.01,-0.11 0.01,-0.16 0,0 0,0 0,-0.03 0,-0.05 0,-0.11 0,-0.16 0,0 0,-0.03 0,-0.03 0.02,-0.05 0.02,-0.11 0.02,-0.16 0,0 0,-0.03 0,-0.03 0,-0.05 0,-0.1 0,-0.16 0,-0.02 0,-0.02 0,-0.02 0.01,-0.06 0.01,-0.11 0.01,-0.19 0,0 0,0 0,0 0,-0.05 0,-0.13 0,-0.19 0.01,0 0.01,0 0.01,0 0,-0.05 0,-0.13 0,-0.18l0 0c1.61,-35.01 18.46,-66 44.07,-86.58 0.44,1.95 0.93,3.87 1.43,5.83 -2.15,1.81 -4.22,3.68 -6.23,5.63 -0.57,-2.03 -1.11,-4 -1.62,-5.9 -22.63,21 -37.02,50.77 -37.74,83.9l0 0z"/>
     </clipPath>
     <clipPath id="id77">
      <path d="M1210.4 200.29l0 -0.01 0 0 0 0.01 0 0z"/>
     </clipPath>
     <clipPath id="id78">
      <path d="M1210.4 200.48c0,-0.07 0,-0.13 0,-0.19l0 -0.01c0,0.06 0,0.13 0,0.2l0 0z"/>
     </clipPath>
     <clipPath id="id79">
      <path d="M1210.4 200.22c0,-0.04 0,-0.09 0,-0.13 0,0 0,0 0,-0.01l0 0c0,0.05 0,0.09 0,0.14l0 0z"/>
     </clipPath>
     <clipPath id="id80">
      <path d="M1210.4 199.9l0 -0.01 0 0 0 0.01 0 0z"/>
     </clipPath>
     <clipPath id="id81">
      <path d="M1210.4 200.01c0,-0.04 0,-0.07 0,-0.11 0,0 0,-0.01 0,-0.01 0,0.04 0,0.08 0,0.12l0 0z"/>
     </clipPath>
     <clipPath id="id82">
      <path d="M1210.4 199.71l0 -0.02 0 0 0 0.02 0 0z"/>
     </clipPath>
     <clipPath id="id83">
      <path d="M1210.4 199.81c0,-0.03 0,-0.06 0,-0.1 0,-0.01 0,-0.01 0,-0.02 0,0.04 0,0.08 0,0.12l0 0z"/>
     </clipPath>
     <clipPath id="id84">
      <path d="M1210.41 199.52l0 -0.03 0 0 0 0.03 0 0z"/>
     </clipPath>
     <clipPath id="id85">
      <path d="M1210.4 199.62c0,-0.03 0,-0.06 0.01,-0.1 0,-0.01 0,-0.01 0,-0.03 0,0.05 -0.01,0.08 -0.01,0.13l0 0z"/>
     </clipPath>
     <clipPath id="id86">
      <path d="M1210.41 199.33c0,-0.01 0,-0.02 0,-0.03l0 0c0,0.01 0,0.02 0,0.03l0 0z"/>
     </clipPath>
     <clipPath id="id87">
      <path d="M1210.41 199.42c0,-0.03 0,-0.06 0,-0.09 0,-0.01 0,-0.02 0,-0.03 0,0.04 0,0.08 0,0.12l0 0z"/>
     </clipPath>
     <clipPath id="id88">
      <path d="M1210.41 199.14l0 -0.04 0 0 0 0.04 0 0z"/>
     </clipPath>
     <clipPath id="id89">
      <path d="M1210.41 199.23c0,-0.03 0,-0.06 0,-0.09 0,-0.01 0,-0.02 0,-0.04 0,0.04 0,0.08 0,0.13l0 0z"/>
     </clipPath>
     <clipPath id="id90">
      <path d="M1210.41 198.95c0,-0.01 0,-0.03 0,-0.05l0 0c0,0.02 0,0.03 0,0.05l0 0z"/>
     </clipPath>
     <clipPath id="id91">
      <path d="M1210.41 199.03c0,-0.03 0,-0.05 0,-0.08 0,-0.02 0,-0.03 0,-0.05 0,0.05 0,0.09 0,0.13l0 0z"/>
     </clipPath>
     <clipPath id="id92">
      <path d="M1210.42 198.76c0,-0.02 0,-0.04 0,-0.06l0 0c0,0.02 0,0.04 0,0.06l0 0z"/>
     </clipPath>
     <clipPath id="id93">
      <path d="M1210.41 198.84c0,-0.03 0.01,-0.05 0.01,-0.08 0,-0.02 0,-0.04 0,-0.06 0,0.05 0,0.1 -0.01,0.14l0 0z"/>
     </clipPath>
     <clipPath id="id94">
      <path d="M1210.42 198.58l0 -0.08 0 0 0 0.08 0 0z"/>
     </clipPath>
     <clipPath id="id95">
      <path d="M1210.42 198.65c0,-0.03 0,-0.05 0,-0.07 0,-0.03 0,-0.05 0,-0.08 0,0.05 0,0.1 0,0.15l0 0z"/>
     </clipPath>
     <clipPath id="id96">
      <path d="M1210.42 198.39c0,-0.03 0,-0.06 0,-0.09l0 0c0,0.03 0,0.06 0,0.09l0 0z"/>
     </clipPath>
     <clipPath id="id97">
      <path d="M1210.42 198.45c0,-0.02 0,-0.04 0,-0.06 0,-0.03 0,-0.06 0,-0.09 0,0.05 0,0.1 0,0.15l0 0z"/>
     </clipPath>
     <clipPath id="id98">
      <path d="M1210.42 198.2c0,-0.04 0.01,-0.07 0.01,-0.1l0 0c0,0.03 -0.01,0.06 -0.01,0.1l0 0z"/>
     </clipPath>
     <clipPath id="id99">
      <path d="M1210.42 198.26c0,-0.02 0,-0.04 0,-0.06 0,-0.04 0.01,-0.07 0.01,-0.1 0,0.05 -0.01,0.1 -0.01,0.16l0 0z"/>
     </clipPath>
     <clipPath id="id100">
      <path d="M1210.43 198.01c0,-0.04 0,-0.08 0,-0.12 0,0.04 0,0.08 0,0.12l0 0z"/>
     </clipPath>
     <clipPath id="id101">
      <path d="M1210.43 198.07c0,-0.02 0,-0.05 0,-0.06 0,-0.04 0,-0.08 0,-0.12l0 0c0,0.06 0,0.12 0,0.18l0 0z"/>
     </clipPath>
     <clipPath id="id102">
      <path d="M1328.2 318.46c0,0 0,0 0,0 0,0 0,0 0,0zm-0.17 0c0,0 -0.04,0 -0.04,0 0,0 0.04,0 0.04,0zm-0.21 0c0,0 0,0 -0.03,0 0.03,0 0.03,0 0.03,0zm-0.17 0c-0.04,0 -0.04,0 -0.04,0 0,0 0,0 0.04,0zm-0.21 0c0,0 0,0 0,0 0,0 0,0 0,0zm-0.17 0c0,0 -0.03,0 -0.03,0 0,0 0.03,0 0.03,0zm-0.21 0c0,0 0,0 -0.03,0 0,0 0.03,0 0.03,0zm-0.17 0c-0.03,0 -0.03,0 -0.07,0 0.04,0 0.04,0 0.07,0zm-0.2 0c0,0 -0.04,0 -0.04,0 0,0 0.04,0 0.04,0zm-0.18 0c-0.03,0 -0.03,0 -0.07,0 0.04,0 0.04,0 0.07,0zm-0.17 0c-0.03,0 -0.07,0 -0.07,0 0,0 0.04,0 0.07,0zm-0.2 0c-0.04,0 -0.04,0 -0.07,0 0.03,0 0.03,0 0.07,0zm-0.21 0c0,0 -0.04,0 -0.07,0 0.03,0 0.07,0 0.07,0zm-0.14 0c-0.03,0 -0.1,-0.06 -0.14,-0.06 0.04,0 0.11,0.06 0.14,0.06zm-0.17 -0.06c-0.07,0 -0.14,0 -0.17,0 0.03,0 0.1,0 0.17,0zm-0.21 0c-62.44,-1.53 -112.88,-51.59 -114.95,-113.95 -0.03,-1.29 -0.07,-2.65 -0.07,-4l0 0c0,-0.06 0,-0.12 0,-0.18l0 0c0,0 0,-0.06 0,-0.06 0,-0.05 0,-0.05 0,-0.11 0,-0.06 0,-0.06 0,-0.12 0,0 0,-0.06 0,-0.12l0 0c0,0 0,0 0,-0.06 0,-0.06 0,-0.06 0,-0.11l0 0c0,0 0,-0.06 0,-0.06 0,-0.06 0,-0.12 0,-0.12l0 0c0,-0.06 0,-0.06 0,-0.06 0,-0.06 0,-0.12 0,-0.18l0 0c0,0 0,0 0,-0.06 0,-0.05 0,-0.05 0,-0.11l0 0c0,0 0,-0.06 0,-0.06 0.04,-0.06 0.04,-0.12 0.04,-0.12l0 0c0,-0.06 0,-0.06 0,-0.06 0,-0.06 0,-0.12 0,-0.17l0 0c0,0 0,0 0,-0.06 0,-0.06 0,-0.06 0,-0.12l0 0c0,0 0,-0.06 0,-0.06 0,-0.06 0,-0.12 0,-0.12l0 -0.06c0,0 0,0 0,0 0,-0.06 0,-0.11 0,-0.17l0 0c0,0 0,0 0,-0.06 0,0 0,-0.12 0,-0.12 0,-0.06 0,-0.06 0,-0.06 0.72,-33.12 15.1,-62.89 37.74,-83.89 0.52,1.88 1.03,3.88 1.62,5.94 -20.95,20.42 -34.03,49.01 -34.03,80.54 0,28.36 10.53,54.3 27.9,74.12 -1.89,0.59 -3.78,1.12 -5.67,1.71 21.02,25.06 52.33,41.3 87.42,42.12l0 0z"/>
     </clipPath>
     <clipPath id="id103">
      <path d="M1328.39 318.46c-0.06,0 -0.12,0 -0.18,0 0.06,0 0.12,0 0.18,0l0 0zm-0.2 0c-0.06,0 -0.11,0 -0.17,0 0.06,0 0.11,0 0.17,0zm-0.2 0c-0.05,0 -0.11,0 -0.16,0 0.05,0 0.11,0 0.16,0zm-0.19 0c-0.06,0 -0.11,0 -0.17,0 0.06,0 0.11,0 0.17,0zm-0.19 0c-0.06,0 -0.11,0 -0.16,0 0.05,0 0.1,0 0.16,0zm-0.18 0c-0.06,0 -0.11,0 -0.16,0 0.05,0 0.1,0 0.16,0zm-0.2 0c-0.05,0 -0.1,0 -0.16,0 0.06,0 0.11,0 0.16,0zm-0.2 0c-0.05,-0.01 -0.1,-0.01 -0.15,-0.01 0.05,0 0.11,0 0.15,0.01zm-0.2 -0.01c-0.05,0 -0.09,0 -0.15,0 0.05,0 0.1,0 0.15,0zm-0.19 0c-0.04,0 -0.08,0 -0.12,0 0.04,0 0.08,0 0.12,0zm-0.19 0c-0.04,-0.01 -0.08,-0.01 -0.12,-0.01 0.04,0 0.08,0 0.12,0.01zm-0.18 -0.01c-0.05,0 -0.08,0 -0.13,0 0.05,0 0.09,0 0.13,0zm-0.21 0c-0.04,0 -0.08,0 -0.11,0 0.03,0 0.07,0 0.11,0zm-0.2 0c-0.02,-0.01 -0.04,-0.01 -0.07,-0.01 0.03,0 0.05,0 0.07,0.01zm-0.21 -0.01c-0.02,0 -0.03,0 -0.04,0 0.01,0 0.03,0 0.04,0zm-0.22 0c0,0 -0.01,0 -0.02,0 0.01,0 0.01,0 0.02,0l0 0z"/>
     </clipPath>
     <clipPath id="id104">
      <path d="M1328.38 313.09c-33.75,0 -64.05,-14.9 -84.69,-38.5 33.47,-10.06 60.65,-23.86 82.69,-39.38 22.64,22.97 47.81,40.67 73.35,52.34 -19.46,15.97 -44.32,25.54 -71.35,25.54l0 0z"/>
     </clipPath>
     <clipPath id="id105">
      <path d="M1328.39 318.46c-0.06,0 -0.12,0 -0.18,0l0 0c0.06,0 0.12,0 0.18,0zm-0.2 0l0 0c-0.06,0 -0.11,0 -0.17,0l0 0c0.06,0 0.11,0 0.17,0zm-0.2 0l0 0c-0.05,0 -0.11,0 -0.16,0l0 0c0.05,0 0.11,0 0.16,0zm-0.19 0l0 0c-0.06,0 -0.11,0 -0.17,0l0 0c0.06,0 0.11,0 0.17,0zm-0.19 0l0 0c-0.06,0 -0.11,0 -0.16,0l0 0c0.05,0 0.1,0 0.16,0zm-0.18 0l0 0c-0.06,0 -0.11,0 -0.16,0l0 0c0.05,0 0.1,0 0.16,0zm-0.2 0l0 0c-0.05,0 -0.1,0 -0.16,0l0 0c0.06,0 0.11,0 0.16,0zm-0.2 0l0 0c-0.04,-0.01 -0.1,-0.01 -0.15,-0.01 0,0 0.01,0 0,0 0.05,0 0.11,0 0.15,0.01zm-0.2 -0.01l0 0c-0.05,0 -0.1,0 -0.15,0l0 0c0.05,0 0.1,0 0.15,0zm-0.19 0l0 0c-0.04,0 -0.08,0 -0.12,0l-0.01 0c0.05,0 0.09,0 0.13,0zm-0.19 0l0 0c-0.04,-0.01 -0.08,-0.01 -0.12,-0.01l0 0c0.04,0 0.08,0 0.12,0.01zm-0.18 -0.01l0 0c-0.04,0 -0.08,0 -0.13,0l0 0c0.04,0 0.09,0 0.13,0zm-0.21 0l0 0c-0.04,0 -0.08,0 -0.11,0l0 0c0.03,0 0.07,0 0.11,0zm-0.2 0l0 0c-0.02,-0.01 -0.04,-0.01 -0.07,-0.01 0,0 0,0 0,0 0.02,0 0.05,0 0.07,0.01zm-0.21 -0.01l0 0c-0.01,0 -0.03,0 -0.04,0 0,0 0,0 0,0 0.01,0 0.02,0 0.04,0zm-0.21 0c0,0 -0.01,0 -0.01,0 -0.01,0 -0.01,0 -0.02,0l0 0c0.01,0 0.02,0 0.03,0l0 0z"/>
     </clipPath>
     <clipPath id="id106">
      <path d="M1328.57 318.46c0.02,0 0.04,0 0.06,0 -0.02,0 -0.04,0 -0.06,0l0 0z"/>
     </clipPath>
     <clipPath id="id107">
      <path d="M1328.75 318.46c0.03,0 0.05,0 0.07,0 -0.02,0 -0.04,0 -0.07,0l0 0z"/>
     </clipPath>
     <clipPath id="id108">
      <path d="M1328.94 318.46c0.02,0 0.05,0 0.07,0 -0.02,0 -0.05,0 -0.07,0l0 0z"/>
     </clipPath>
     <clipPath id="id109">
      <path d="M1329.12 318.46c0.03,0 0.06,0 0.08,0 -0.02,0 -0.06,0 -0.08,0l0 0z"/>
     </clipPath>
     <clipPath id="id110">
      <path d="M1329.31 318.46c0.02,0 0.05,0 0.08,0 -0.03,0 -0.06,0 -0.08,0l0 0z"/>
     </clipPath>
     <clipPath id="id111">
      <path d="M1329.49 318.46c0.02,0 0.06,0 0.08,0 -0.03,0 -0.06,0 -0.08,0l0 0z"/>
     </clipPath>
     <clipPath id="id112">
      <path d="M1329.67 318.46c0.03,0 0.05,0 0.08,0 -0.03,0 -0.05,0 -0.08,0l0 0z"/>
     </clipPath>
     <clipPath id="id113">
      <path d="M1329.85 318.45c0.03,0 0.06,0 0.09,0 -0.03,0 -0.06,0 -0.09,0l0 0z"/>
     </clipPath>
     <clipPath id="id114">
      <path d="M1330.03 318.45c0.03,0 0.06,0 0.09,0 -0.03,0 -0.06,0 -0.09,0l0 0z"/>
     </clipPath>
     <clipPath id="id115">
      <path d="M1330.22 318.45c0.03,0 0.05,0 0.08,0 -0.02,0 -0.05,0 -0.08,0l0 0z"/>
     </clipPath>
     <clipPath id="id116">
      <path d="M1330.43 318.44c0.04,0 0.07,0 0.1,0 -0.03,0 -0.07,0 -0.1,0l0 0z"/>
     </clipPath>
     <clipPath id="id117">
      <path d="M1330.66 318.44c0.03,0 0.06,0 0.09,0 -0.03,0 -0.06,0 -0.09,0l0 0z"/>
     </clipPath>
     <clipPath id="id118">
      <path d="M1330.85 318.44c0.02,0 0.06,0 0.08,-0.01 -0.02,0.01 -0.06,0.01 -0.08,0.01l0 0z"/>
     </clipPath>
     <clipPath id="id119">
      <path d="M1331.03 318.43c0.03,0 0.06,0 0.09,0 -0.03,0 -0.06,0 -0.09,0l0 0z"/>
     </clipPath>
     <clipPath id="id120">
      <path d="M1331.21 318.43c0.03,0 0.06,0 0.09,0 -0.03,0 -0.06,0 -0.09,0l0 0z"/>
     </clipPath>
     <clipPath id="id121">
      <path d="M1331.39 318.42c0.03,0 0.07,0 0.1,0 -0.04,0 -0.07,0 -0.1,0l0 0z"/>
     </clipPath>
     <clipPath id="id122">
      <path d="M1331.57 318.42c0.03,0 0.07,0 0.1,0 -0.04,0 -0.07,0 -0.1,0l0 0z"/>
     </clipPath>
     <clipPath id="id123">
      <path d="M1331.75 318.42c0.03,0 0.06,-0.01 0.1,-0.01 -0.03,0 -0.07,0.01 -0.1,0.01l0 0z"/>
     </clipPath>
     <clipPath id="id124">
      <path d="M1331.93 318.41c0.03,0 0.07,0 0.1,0 -0.03,0 -0.07,0 -0.1,0l0 0z"/>
     </clipPath>
     <clipPath id="id125">
      <path d="M1332.1 318.41c0.04,0 0.08,-0.01 0.11,-0.01 -0.03,0 -0.07,0.01 -0.11,0.01l0 0z"/>
     </clipPath>
     <clipPath id="id126">
      <path d="M1332.28 318.4c0.04,0 0.08,0 0.12,0 -0.04,0 -0.09,0 -0.12,0l0 0z"/>
     </clipPath>
     <clipPath id="id127">
      <path d="M1332.42 318.39c0.16,0 0.31,-0.01 0.47,-0.01 -0.16,0 -0.31,0.01 -0.47,0.01l0 0z"/>
     </clipPath>
     <clipPath id="id128">
      <path d="M1332.92 318.38c0.05,0 0.09,-0.01 0.13,-0.01 -0.04,0 -0.08,0.01 -0.13,0.01l0 0z"/>
     </clipPath>
     <clipPath id="id129">
      <path d="M1333.1 318.37c0.04,0 0.09,0 0.13,-0.01 -0.05,0.01 -0.08,0.01 -0.13,0.01l0 0z"/>
     </clipPath>
     <clipPath id="id130">
      <path d="M1333.28 318.36c0.04,0 0.09,0 0.13,0 -0.05,0 -0.08,0 -0.13,0l0 0z"/>
     </clipPath>
     <clipPath id="id131">
      <path d="M1333.64 318.35c0.04,0 0.09,-0.01 0.13,-0.01 -0.04,0 -0.09,0.01 -0.13,0.01l0 0z"/>
     </clipPath>
     <clipPath id="id132">
      <path d="M1333.81 318.34c0.04,0 0.09,-0.01 0.14,-0.01 -0.05,0 -0.1,0.01 -0.14,0.01l0 0z"/>
     </clipPath>
     <clipPath id="id133">
      <path d="M1333.98 318.33c0.05,0 0.1,0 0.15,-0.01 -0.05,0.01 -0.1,0.01 -0.15,0.01l0 0z"/>
     </clipPath>
     <clipPath id="id134">
      <path d="M1334.13 318.32c27.13,-1.3 51.83,-11.75 71.1,-28.33 0.02,0 0.02,0 0.02,0.01 -19.29,16.57 -43.99,27.02 -71.12,28.32l0 0z"/>
     </clipPath>
     <clipPath id="id135">
      <path d="M1328.37 318.46l0 0 0 0c-0.05,0 -0.1,0 -0.15,0 0,0 0,0 -0.05,0 -0.05,0 -0.1,0 -0.14,0 0,0 0,0 -0.05,0 -0.05,0 -0.1,0 -0.15,0 0,0 0,0 -0.05,0 -0.05,0 -0.1,0 -0.14,0 0,0 0,0 -0.05,0 -0.05,0 -0.1,0 -0.15,0 0,0 0,0 0,0 -0.05,0 -0.1,0 -0.19,-0.01 0,0 0,0 0,0 -0.05,0 -0.1,0 -0.2,0 0,0 0,0 0,0 -0.05,0 -0.09,0 -0.14,0 -0.05,0 -0.05,0 -0.1,0 -0.05,0 -0.1,0 -0.15,0 0,0 0,0 0,0 -0.04,0 -0.09,0 -0.14,0 0,0 -0.05,0 -0.05,0 -0.05,0 -0.1,0 -0.15,0 0,0 -0.05,0 -0.05,-0.01 -0.04,0 -0.09,0 -0.14,0 0,0 -0.05,0 -0.05,0 -0.05,0 -0.1,0 -0.15,0 0,0 -0.04,0 -0.04,0 -0.05,0 -0.05,0 -0.1,0 -0.05,0 -0.1,0 -0.15,0 0,0 0,0 -0.05,-0.02 -0.04,0 -0.09,0 -0.14,0 0,0 -0.05,0 -0.05,0 -35.11,-0.87 -66.39,-17.08 -87.44,-42.16 1.94,-0.55 3.84,-1.1 5.69,-1.66 20.67,23.58 51.01,38.49 84.72,38.49 27.08,0 51.94,-9.58 71.34,-25.53 1.85,0.84 3.7,1.64 5.55,2.43 -19.31,16.58 -44.02,27.04 -71.11,28.34l0 0c0,0 0,0 -0.05,0l0 0c-0.04,0 -0.09,0 -0.14,0l0 0c0,0 0,0 0,0l0 0c-0.05,0.01 -0.1,0.01 -0.15,0.01l0 0c0,0 -0.05,0 -0.05,0l0 0c-0.04,0 -0.09,0 -0.14,0.01l0 0c0,0 0,0 -0.05,0l0 0c-0.05,0 -0.05,0 -0.1,0l0 0c-0.05,0 -0.05,0 -0.05,0l0 0c-0.04,0 -0.09,0.02 -0.14,0.02l0 0c0,0 -0.05,0 -0.05,0l0 0c-0.05,0 -0.1,0 -0.15,0l0 0c0,0 0,0 -0.05,0l0 0c-0.04,0 -0.04,0.01 -0.09,0.01l0 0c-0.05,0 -0.05,0 -0.05,0l0 0c-0.15,0 -0.29,0.02 -0.49,0.02l0 0c0,0 0,0 0,0l0 0c-0.05,0 -0.09,0 -0.14,0l0 0c0,0 0,0 -0.05,0l0 0c-0.05,0 -0.05,0.01 -0.1,0.01l0 0c-0.05,0 -0.05,0 -0.1,0l0 0c0,0 -0.05,0 -0.09,0l0 0c0,0 -0.05,0 -0.05,0l0 0c-0.05,0 -0.1,0.01 -0.1,0.01l0 0c-0.05,0 -0.1,0 -0.1,0l0 0c-0.05,0 -0.05,0 -0.09,0l0 0c-0.05,0 -0.05,0 -0.1,0l0 0c0,0 -0.05,0 -0.1,0l0 0c0,0 -0.05,0 -0.1,0l0 0c0,0 -0.04,0 -0.09,0l0 0c0,0 -0.05,0.02 -0.05,0.02l0 0c-0.05,0 -0.1,0 -0.1,0l0 0c-0.05,0 -0.1,0 -0.1,0l0 0c-0.05,0 -0.05,0 -0.09,0l0 0c-0.05,0 -0.05,0 -0.1,0l0 0c-0.05,0 -0.05,0 -0.1,0l0 0c-0.05,0 -0.1,0 -0.1,0l0 0c-0.04,0.01 -0.09,0.01 -0.14,0.01l0 0c0,0 -0.05,0 -0.1,0l0 0c-0.05,0 -0.05,0 -0.1,0l0 0c-0.04,0 -0.04,0 -0.09,0l0 0c-0.05,0 -0.05,0 -0.1,0l0 0c0,0 -0.05,0 -0.1,0l0 0c0,0 -0.05,0 -0.05,0l0 0c-0.05,0 -0.09,0 -0.09,0l0 0c-0.05,0 -0.1,0 -0.1,0l0 0c-0.05,0 -0.05,0 -0.1,0l0 0c-0.05,0 -0.05,0 -0.1,0.01l0 0c-0.04,0 -0.04,0 -0.09,0l0 0c-0.05,0 -0.05,0 -0.1,0l0 0c0,0 -0.05,0 -0.1,0l0 0c0,0 -0.05,0 -0.05,0l0 0c-0.04,0 -0.09,0 -0.14,0l0 0c0,0 -0.05,0 -0.05,0l0 0c-0.05,0 -0.1,0 -0.15,0l0 0c0,0 -0.05,0 -0.05,0l0 0c-0.04,0 -0.09,0 -0.14,0l0 0c0,0 0,0 -0.05,0l0 0c-0.05,0 -0.1,0 -0.19,0l0 0 0 0z"/>
     </clipPath>
     <clipPath id="id136">
      <path d="M1405.23 290.01l0 0c24.78,-21.29 40.62,-52.72 41.12,-87.8 -0.06,6 -0.61,11.88 -1.56,17.63 -0.89,5.46 -2.17,10.8 -3.78,15.96 -6.66,21.29 -19.22,40 -35.78,54.21zm41.12 -91.22l0 0c0,-0.06 0,-0.12 0,-0.18 0,0 0,0 0,0 0,0.06 0,0.12 0,0.18zm0 -0.18c0,0 0,0 0,0 -1,-64.28 -53.45,-116.1 -117.95,-116.1 -27.95,0 -53.61,9.72 -73.84,25.91l0 0c20.23,-16.19 45.89,-25.91 73.84,-25.91 64.56,0 116.95,51.82 117.95,116.1zm-69.84 -10.85c-38.78,-19.91 -47.28,-70.11 -48.78,-99.91 0.22,0 0.45,0 0.67,0 32.83,0 62.45,14.15 83.06,36.7 -6,16.91 -16.61,39.82 -34.95,63.21l0 0z"/>
     </clipPath>
     <clipPath id="id137">
      <path d="M1327.45 234.46c-1.21,-0.6 -2.43,-1.2 -3.58,-1.84 -6.9,-7.19 -13.52,-14.85 -19.87,-22.97 -23.56,-30.42 -39.61,-63.35 -48,-95.39 19.48,-16.34 44.47,-26.22 71.73,-26.4 1.49,29.78 9.99,79.99 48.77,99.88 -12.47,15.92 -28.47,32.04 -49.05,46.72zm118.91 -33.97l0 0c0,-0.04 0,-0.08 0,-0.17 0,0.09 0,0.13 0,0.17l0 0 0 0 0 0 0 0 0 0z"/>
     </clipPath>
     <clipPath id="id138">
      <path d="M1326.38 235.2c-0.84,-0.85 -1.68,-1.71 -2.51,-2.58 1.17,0.63 2.37,1.24 3.57,1.83 -0.35,0.24 -0.71,0.5 -1.06,0.75l0 0z"/>
     </clipPath>
     <clipPath id="id139">
      <path d="M1446.35 200.28c0,0 0,-0.04 0,-0.04 0,0 0,0.04 0,0.04zm0 -0.17c0,-0.04 0,-0.07 0,-0.07 0,0 0,0.03 0,0.07zm0 -0.21c0,-0.04 0,-0.07 0,-0.07 0,0.03 0,0.03 0,0.07zm0 -0.18c0,-0.03 0,-0.07 0,-0.1 0,0.03 0,0.07 0,0.1zm0 -0.17c0,-0.07 0,-0.1 0,-0.14 0,0.04 0,0.11 0,0.14zm0 -0.21c0,-0.03 0,-0.07 0,-0.14 0,0.07 0,0.11 0,0.14zm0 -0.17c0,-0.04 0,-0.11 0,-0.14 0,0.03 0,0.1 0,0.14zm0 -0.18c0,-0.06 0,-0.1 0,-0.17 0,0.07 0,0.11 0,0.17zm0 -0.2c0,-0.04 0,-0.11 0,-0.18 0,0.07 0,0.14 0,0.18zm0 -0.18c-0.45,-30.99 -12.95,-59.07 -32.89,-79.87 -0.61,1.84 -1.28,3.79 -2,5.8 -20.61,-22.53 -50.23,-36.69 -83.06,-36.69 -0.22,0 -0.45,0 -0.67,0 -0.11,-1.87 -0.16,-3.64 -0.22,-5.34 -27.56,0.21 -52.95,9.89 -72.95,25.93 0,0 0,0 0,0 20.23,-16.25 45.89,-25.93 73.84,-25.93 64.5,0 116.95,51.78 117.95,116.1l0 0z"/>
     </clipPath>
     <clipPath id="id140">
      <path d="M1256.01 114.24c-0.5,-1.93 -0.99,-3.87 -1.43,-5.81 20,-16.05 45.35,-25.72 72.95,-25.92 0.04,1.7 0.11,3.49 0.19,5.35 -27.26,0.16 -52.28,10.06 -71.71,26.38l0 0z"/>
     </clipPath>
     <clipPath id="id141">
      <path d="M1446.37 200.34l0 0c0,-0.02 0,-0.03 0,-0.05 0,0.01 0,0.04 0,0.05zm0 -0.11c0,-0.04 0,-0.09 0,-0.13 0,0.04 0,0.08 0,0.13zm0 -0.21c0,-0.04 0,-0.07 0,-0.11 0,0.04 0,0.07 0,0.11zm0 -0.21c0,-0.03 0,-0.06 0,-0.09 0,0.03 0,0.06 0,0.09zm0 -0.2c0,-0.03 0,-0.05 0,-0.07 0,0.02 0,0.04 0,0.07zm0 -0.2c0,-0.02 0,-0.04 0,-0.06 0,0.02 0,0.04 0,0.06zm0 -0.2c0,-0.02 0,-0.02 0,-0.04 0,0.01 0,0.03 0,0.04zm-0.01 -0.19c0,-0.01 0,-0.03 0,-0.04 0,0.01 0,0.03 0,0.04zm0 -0.2c0,-0.01 0,-0.01 0,-0.02 0,0.01 0,0.01 0,0.02zm0 -0.19c0,-0.01 0,-0.01 0,-0.01 0,0 0,0.01 0,0.01l0 0z"/>
     </clipPath>
     <clipPath id="id142">
      <path d="M1446.36 198.64c0,0 0,-0.03 0,-0.03 0,0 0,0 0,0 0,0 0,0 0,0.03 0,0 0,0 0,0zm-31.74 -2.45c-15.16,0 -27.72,-3.14 -38.11,-8.47 18.32,-23.37 28.94,-46.23 34.97,-63.19 16.85,18.41 27.68,42.44 29.31,68.91 -9.48,1.89 -18.19,2.75 -26.17,2.75l0 0z"/>
     </clipPath>
     <clipPath id="id143">
      <path d="M1366.04 243.15c-14.41,0 -27.22,-3.21 -38.6,-8.7 20.58,-14.66 36.62,-30.81 49.08,-46.71 10.38,5.3 22.94,8.47 38.11,8.47 7.98,0 16.66,-0.88 26.17,-2.76 0.14,2.32 0.21,4.67 0.21,7.03 0,6.66 -0.59,13.17 -1.7,19.53 -28.08,16.36 -52.34,23.14 -73.27,23.14zm80.35 -42.67c0,-0.05 0,-0.1 0,-0.13l0 0 0 0c0,0.03 0,0.08 0,0.13l0 0z"/>
     </clipPath>
     <clipPath id="id144">
      <path d="M1399.71 287.55c-25.51,-11.66 -50.71,-29.36 -73.32,-52.34 0.34,-0.26 0.7,-0.5 1.04,-0.77 11.4,5.51 24.2,8.72 38.6,8.72 20.94,0 45.18,-6.78 73.29,-23.16 -4.77,27.05 -19.21,50.82 -39.61,67.55l0 0z"/>
     </clipPath>
     <clipPath id="id145">
      <path d="M1446.37 200.34c0,-2.7 -0.13,-5.37 -0.31,-8.02 -1.79,0.39 -3.54,0.79 -5.28,1.13 -1.63,-26.48 -12.45,-50.5 -29.3,-68.91 0.71,-2.04 1.36,-3.95 1.95,-5.79 19.99,20.79 32.45,48.86 32.93,79.87 0,0 0,0 0,0 0,0.08 0,0.13 0,0.17 0,0 0,0.03 0,0.03 0,0.05 0,0.12 0,0.17 0,0 0,0.02 0,0.02 0.01,0.05 0.01,0.1 0.01,0.15 0,0.03 0,0.03 0,0.05 0,0.05 0,0.1 0,0.15 0,0.02 0,0.02 0,0.05 0,0.05 0,0.1 0,0.12 0,0.02 0,0.05 0,0.07 0,0.05 0,0.08 0,0.13 0,0.02 0,0.04 0,0.07 0,0.05 0,0.07 0,0.12 0,0.03 0,0.08 0,0.1 0,0.02 0,0.05 0,0.07 0,0.05 0,0.1 0,0.15 0,0 0,0.03 0,0.05 0,0.02 0,0.02 0,0.05l0 0z"/>
     </clipPath>
     <clipPath id="id146">
      <path d="M1405.25 290c-0.01,0 -0.01,0 -0.01,0 21.36,-18.38 36.06,-44.28 40.03,-73.59 -2.01,1.26 -3.99,2.43 -5.96,3.61 1.11,-6.36 1.7,-12.89 1.7,-19.55 0,-2.35 -0.08,-4.7 -0.22,-7.02 1.73,-0.34 3.48,-0.71 5.27,-1.14 0.18,2.66 0.31,5.32 0.31,8.04 0,0.03 0,0.09 0,0.12l0 0c0,35.8 -15.94,67.89 -41.12,89.53l0 0z"/>
     </clipPath>
     <clipPath id="id147">
      <path d="M1405.24 289.99c-1.85,-0.79 -3.68,-1.6 -5.52,-2.44 20.41,-16.74 34.84,-40.49 39.59,-67.55 1.97,-1.14 3.96,-2.33 5.96,-3.59 -3.97,29.31 -18.67,55.21 -40.03,73.58l0 0z"/>
     </clipPath>
  <linearGradient id="id148" gradientUnits="userSpaceOnUse" x1="1058.33" y1="2344.6" x2="1058.33" y2="94.61">
   <stop offset="0" style="stop-opacity:1; stop-color:#5FCBEF"/>
   <stop offset="1" style="stop-opacity:1; stop-color:#6756A2"/>
  </linearGradient>
  <linearGradient id="id149" gradientUnits="userSpaceOnUse" xlink:href="#id148" x1="177.8" y1="1260.92" x2="1938.85" y2="1260.92">
  </linearGradient>
  <linearGradient id="id150" gradientUnits="userSpaceOnUse" x1="1122.44" y1="140.42" x2="1631.87" y2="394.61">
   <stop offset="0" style="stop-opacity:1; stop-color:#595BA6"/>
   <stop offset="0.180392" style="stop-opacity:1; stop-color:#595BA6"/>
   <stop offset="0.929412" style="stop-opacity:1; stop-color:#5BC8DF"/>
   <stop offset="1" style="stop-opacity:1; stop-color:#5BC8DF"/>
  </linearGradient>
  <linearGradient id="id151" gradientUnits="userSpaceOnUse" x1="1191.22" y1="810.97" x2="881.16" y2="1777.02">
   <stop offset="0" style="stop-opacity:1; stop-color:#FBAF30"/>
   <stop offset="1" style="stop-opacity:1; stop-color:#ED3590"/>
  </linearGradient>
  <linearGradient id="id152" gradientUnits="userSpaceOnUse" xlink:href="#id151" x1="892.52" y1="999.87" x2="1470.28" y2="1637.67">
  </linearGradient>
  <linearGradient id="id153" gradientUnits="userSpaceOnUse" x1="630.76" y1="99.31" x2="1067.72" y2="354.55">
   <stop offset="0" style="stop-opacity:1; stop-color:#5A5FA8"/>
   <stop offset="0.101961" style="stop-opacity:1; stop-color:#5A5FA8"/>
   <stop offset="0.929412" style="stop-opacity:1; stop-color:#5BC8DF"/>
   <stop offset="1" style="stop-opacity:1; stop-color:#5BC8DF"/>
  </linearGradient>
  <linearGradient id="id154" gradientUnits="userSpaceOnUse" x1="1043.52" y1="957.82" x2="1453.22" y2="1448.99">
   <stop offset="0" style="stop-opacity:1; stop-color:#9F3792"/>
   <stop offset="1" style="stop-opacity:1; stop-color:#EF5478"/>
  </linearGradient>
  <linearGradient id="id155" gradientUnits="userSpaceOnUse" x1="1169" y1="123.55" x2="1471.51" y2="269.55">
   <stop offset="0" style="stop-opacity:1; stop-color:#6665AC"/>
   <stop offset="0.101961" style="stop-opacity:1; stop-color:#6665AC"/>
   <stop offset="0.929412" style="stop-opacity:1; stop-color:#5BC8DF"/>
   <stop offset="1" style="stop-opacity:1; stop-color:#5BC8DF"/>
  </linearGradient>
  <linearGradient id="id156" gradientUnits="userSpaceOnUse" xlink:href="#id155" x1="661.58" y1="123.89" x2="964.09" y2="269.89">
  </linearGradient>
  <linearGradient id="id157" gradientUnits="userSpaceOnUse" xlink:href="#id148" x1="333.78" y1="1179.82" x2="2638.06" y2="1179.82">
  </linearGradient>
  <linearGradient id="id158" gradientUnits="userSpaceOnUse" xlink:href="#id150" x1="615.02" y1="140.76" x2="1124.45" y2="394.95">
  </linearGradient>
  <linearGradient id="id159" gradientUnits="userSpaceOnUse" xlink:href="#id153" x1="1138.18" y1="98.97" x2="1575.14" y2="354.21">
  </linearGradient>
 </defs>
 <g id="Camada_x0020_1">
  <metadata id="CorelCorpID_0Corel-Layer"/>
  <g id="_1029853312">
   <g>
    <path class="fil0" d="M1059.87 2034.14c-486.23,0.84 -882.07,-394.49 -882.07,-880.54 0,-250.97 107.98,-486.71 288.15,-651.2 101.79,-92.93 264.92,-58.8 322.71,66.32l0 0c37.49,81.18 17.52,176.85 -48.32,237.34 -95.79,88.01 -153.16,213.74 -153.16,347.54 0,260.98 213.29,473.08 474.7,471.14 252.08,-1.86 460.5,-205.84 467.41,-457.84 3.7,-134.67 -48.88,-260.32 -141.46,-350.48 -63.92,-62.26 -79.8,-158.91 -39.61,-238.57l0 0c62.37,-123.6 226.77,-150.91 325.97,-54.33 167.27,162.87 264.67,387.8 264.67,630.07 0.01,487.03 -391.95,879.71 -878.99,880.55z"/>
    <path class="fil1" d="M1729.08 1148c0,-253.14 -139.62,-481.36 -364.65,-596.89 -5.94,8.36 -11.41,17.23 -16.21,26.74l0 0c-40.19,79.66 -24.31,176.31 39.61,238.57 92.58,90.16 145.16,215.81 141.46,350.48 -6.91,252 -215.33,455.98 -467.41,457.84 -261.41,1.94 -474.7,-210.16 -474.7,-471.14 0,-133.8 57.37,-259.53 153.16,-347.54 65.84,-60.49 85.81,-156.16 48.32,-237.34l0 0c-4.56,-9.87 -9.85,-19.11 -15.64,-27.83 -234.29,110.26 -385.45,347.98 -385.45,607.11 0,369.86 300.9,670.76 670.76,670.76 369.86,0 670.75,-300.9 670.75,-670.76z"/>
    <path class="fil2" d="M1349.31 582.15c-3.26,4.59 -6.31,9.4 -9.24,14.35 -29.21,75.67 -11.25,162.44 47.76,219.92 92.58,90.16 145.16,215.81 141.46,350.48 -6.91,252 -215.33,455.98 -467.41,457.84 -261.41,1.94 -474.7,-210.16 -474.7,-471.14 0,-133.8 57.37,-259.53 153.16,-347.54 60.86,-55.91 82.42,-141.87 55.74,-218.67 -2.82,-5.14 -5.78,-10.16 -8.96,-14.95 -222.73,104.81 -366.43,330.8 -366.43,577.13 0,351.59 286.04,637.64 637.64,637.64 351.59,0 637.64,-286.05 637.64,-637.64 0,-240.63 -132.74,-457.59 -346.66,-567.42z"/>
    <path class="fil3" d="M1349.71 1228.72c0,0 35.15,-106.43 -27.26,-181.73 -62.41,-75.29 -171.52,-57.88 -226.03,-4.15 -54.52,53.74 -157.57,56.42 -201.73,60.78 -44.17,4.37 201.09,227.6 201.09,227.6 0,0 144.34,48.14 253.93,-102.5z"/>
    <path class="fil4" d="M1054.88 1082.71c-74.76,-60.72 -135.67,-63.24 -178.48,-49.87 -41.48,12.96 -70.09,50.07 -75.42,93.2 -13.5,109.24 38.26,222.13 143.55,279.97 117.77,64.7 267.61,34.8 351.71,-70 26.38,-32.88 43.97,-69.5 53.47,-107.29 -120.2,45.04 -165.94,-41.32 -294.83,-146.01z"/>
    <path class="fil5" d="M1349.71 1228.72c-120.2,45.04 -165.94,-41.32 -294.83,-146.01 -3.16,-2.56 -6.26,-4.93 -9.36,-7.29 -16.32,0.3 -162.29,7.49 -233.47,169.47 0.98,3.11 2.05,6.19 3.13,9.26 1.36,3.83 2.79,7.65 4.32,11.42 1.28,3.15 2.62,6.29 4.01,9.39 1.85,4.14 3.76,8.24 5.81,12.29 1.3,2.55 2.67,5.07 4.05,7.6 2.42,4.44 4.92,8.86 7.6,13.18 1.2,1.94 2.47,3.82 3.71,5.73 3.06,4.67 6.2,9.29 9.55,13.79 1.05,1.41 2.16,2.78 3.24,4.18 3.75,4.84 7.61,9.63 11.71,14.25 0.82,0.92 1.69,1.81 2.52,2.73 4.51,4.94 9.17,9.8 14.07,14.46 0.54,0.51 1.12,1 1.66,1.5 5.28,4.93 10.75,9.73 16.49,14.31 0.26,0.2 0.52,0.39 0.78,0.59 6.05,4.79 12.32,9.39 18.87,13.75 128.57,85.56 302.16,50.7 387.72,-77.87 18.17,-27.3 30.85,-56.64 38.42,-86.73z"/>
   </g>
   <g>
    <path class="fil6" d="M821.15 318.8l0 0c0.02,0 0.04,0 0.06,0l0 0c-0.02,0 -0.04,0 -0.06,0zm0.18 0l0 0c0.03,0 0.05,0 0.07,0l0 0c-0.02,0 -0.04,0 -0.07,0zm0.19 0l0 0c0.02,0 0.05,0 0.07,0l0 0c-0.02,0 -0.05,0 -0.07,0zm0.18 0l0 0c0.02,0 0.06,0 0.08,0l0 0c-0.02,0 -0.06,0 -0.08,0zm0.18 0l0 0c0.03,0 0.06,0 0.08,0l0 0c-0.02,0 -0.05,0 -0.08,0zm0.18 0c0.01,0 0,0 0.01,0 0.02,-0.01 0.05,-0.01 0.08,-0.01l0 0c-0.03,0 -0.06,0 -0.09,0.01zm0.19 -0.01l0 0c0.03,0 0.05,0 0.08,0l0 0c-0.02,0 -0.05,0 -0.08,0zm0.18 0l0 0c0.03,0 0.06,0 0.09,0l0 0c-0.03,0 -0.06,0 -0.09,0zm0.18 0l0 0c0.03,0 0.06,0 0.09,0l0 0c-0.03,0 -0.06,0 -0.09,0zm0.19 0l0 0c0.03,0 0.06,0 0.08,0l0 0c-0.02,0 -0.05,0 -0.08,0zm0.19 -0.01c0.01,0 0.02,0 0.02,0 0.03,0 0.07,0 0.1,0 0.01,0 0.02,0 0.04,0 -0.05,0 -0.11,0 -0.16,0zm0.25 0l0 0c0.03,0 0.06,0 0.09,0 0,0 0.01,0 0.01,0 -0.03,0 -0.07,0 -0.1,0zm0.18 -0.01l0 0c0.03,0 0.07,0 0.09,0 0.01,0 0.01,0 0.01,0 -0.04,0 -0.06,0 -0.1,0zm0.18 0l0 0c0.03,0 0.07,0 0.1,0 0,0 0,0 0,0 -0.03,0 -0.06,0 -0.1,0zm0.18 0c0.01,0 0,0 0.01,0 0.03,0 0.06,0 0.09,-0.01 0.01,0 0,0 0.01,0 -0.04,0.01 -0.07,0.01 -0.11,0.01zm0.18 -0.01l0.01 0c0.03,0 0.06,0 0.1,0 0,0 0,0 0,0 -0.03,0 -0.07,0 -0.11,0zm0.18 0c0.01,0 0,0 0.01,0 0.03,0 0.06,0 0.1,0l0 0c-0.03,0 -0.07,0 -0.11,0zm0.18 -0.01l0.01 0c0.03,0 0.07,0 0.1,0l0 0c-0.04,0 -0.07,0 -0.11,0zm0.18 0c0,0 0.01,0 0.01,0 0.03,0 0.07,0 0.1,0 0.01,0 0,0 0.01,0 -0.04,0 -0.08,0 -0.12,0zm0.17 -0.01c0.01,0 0.01,0 0.01,0 0.04,0 0.08,0 0.11,0 0.01,0 0,0 0.01,0 -0.04,0 -0.09,0 -0.13,0zm0.16 0c0.01,0 0.02,0 0.03,0 0.03,-0.01 0.08,-0.01 0.12,-0.01 0,0 0.01,0 0.02,0 0.16,0 0.31,-0.01 0.47,-0.01 0.01,0 0.02,0 0.03,0 0.05,-0.01 0.09,-0.01 0.13,-0.01 0.01,0 0.02,0 0.03,0 -0.28,0.01 -0.55,0.02 -0.83,0.03zm0.85 -0.03c0,0 0,0 0,0 0.05,-0.01 0.08,-0.01 0.13,-0.01 0,0 0.01,0 0.01,0 -0.04,0 -0.1,0 -0.14,0.01zm0.17 -0.01c0.01,0 0.01,0 0.01,0 0.04,0 0.08,0 0.13,-0.01 0,0 0.01,0 0.01,0 -0.05,0.01 -0.1,0.01 -0.15,0.01zm0.18 -0.01c0,0 0,0 0.01,0 0.04,0 0.08,0 0.13,0 0,0 0.01,0 0.01,0 -0.05,0 -0.1,0 -0.15,0zm0.17 0c0.01,0 0.01,0 0.01,0 0.05,-0.01 0.1,-0.01 0.14,-0.01 0,0 0,0 0.01,0 -0.05,0 -0.11,0 -0.16,0.01zm0.17 -0.01c0,0 0.01,0 0.02,0 0.04,0 0.09,-0.01 0.14,-0.01 0,0 0,0 0.01,0 -0.06,0 -0.11,0.01 -0.17,0.01zm0.17 -0.01c0.01,0 0.01,0 0.02,0 0.05,0 0.1,-0.01 0.15,-0.01 0,0 0,0 0.01,0 27.1,-1.3 51.82,-11.75 71.11,-28.33l0 0c-19.33,16.61 -44.11,27.08 -71.29,28.34z"/>
    <path class="fil7" d="M816.45 232.96c-42.3,-22.78 -64.05,-77.44 -74.07,-112.73 2,-1.96 4.08,-3.84 6.22,-5.64 8.37,32.03 24.45,65 48.01,95.37 6.32,8.15 12.96,15.83 19.84,23zm-113.47 -32.15l0 0 0 0 0 -0.01 0 -0.01 0 -0.01 0 0 0 -0.01 0 0 0 -0.02 0 -0.01 0 0 0 -0.01 0 0 0 -0.01 0 0 0 -0.01 0 0 0 -0.02 0 0 0 -0.01 0 0 0 -0.01 0 0 0 -0.01 0 0 0 -0.01 0 0 0 -0.02 0 0 0 -0.01 0 0.01 0 0 0 0.02 0 0 0 0.01 0 0 0 0.01 0 0 0 0.01 0 0 0 0.01 0 0 0 0.02 0 0 0 0.01 0 0 0 0.01 0 0 0 0.01 0 0 0 0.01 0 0.02 0 0 0 0.01 0 0 0 0.01 0 0.01 0 0.01zm0 -0.19l0 0zm0 -0.06l0 -0.01 0 0.01zm0 -0.01l0 0 0 0 0 -0.01 0 0 0 -0.01 0 0 0 0 0 -0.01 0 0 0 0 0 -0.01 0 0 0 -0.01 0 0 0 0 0 -0.01 0 0 0 0 0 -0.01 0 0 0 -0.01 0 0 0 -0.01 0 0 0 0 0 -0.01 0 0 0 0 0 -0.01 0 0 0 -0.01 0 0.01 0 0 0 0.01 0 0 0 0 0 0.01 0 0 0 0 0 0.01 0 0 0 0.01 0 0 0 0.01 0 0 0 0 0 0.01 0 0 0 0 0 0.01 0 0 0 0.01 0 0 0 0 0 0.01 0 0 0 0 0 0.01 0 0 0 0.01 0 0 0 0zm0 -0.12l0 0zm0 -0.08l0 0 0 -0.05 0 -0.01 0 0 0 -0.01 0 0 0 -0.01 0 0 0 -0.01 0 -0.01 0 0 0 -0.01 0 0.01 0 0 0 0.01 0 0.01 0 0 0 0.01 0 0 0 0.01 0 0 0 0.01 0 0.04 0 0.01 0 0zm0 -0.11l0 0zm0 -0.09l0 0 0 -0.01 0 0.01 0 0zm0 -0.01l0 -0.01 0 -0.01 0 -0.02 0 0 0 -0.02 0 -0.03 0 0.03 0 0.02 0 0 0 0.02 0 0.01 0 0.01zm0 -0.09l0 0zm0 -0.09l0 -0.01 0 0.01zm0 -0.01l0 -0.01 0 -0.01 0 -0.02 0 0 0 -0.02 0 -0.01 0.01 -0.02 -0.01 0.02 0 0.01 0 0.02 0 0 0 0.02 0 0.01 0 0.01zm0.01 -0.09l0 0zm0 -0.1l0 0 0 0 0 0 0 0zm0 0l0 -0.02 0 0 0 -0.02 0 -0.01 0 -0.02 0 -0.02 0 0.02 0 0.02 0 0.01 0 0.02 0 0 0 0.02zm0 -0.09l0 0zm0 -0.1l0 -0.01c0,0.01 0,0.01 0,0.01zm0 -0.01l0 -0.02 0 0 0 -0.02 0 0 0 -0.02 0 0 0 -0.02 0 0.02 0 0 0 0.02 0 0 0 0.02 0 0 0 0.02zm0 -0.08l0 0zm0 -0.11l0 -0.06 0 -0.02 0 0.02 0 0.06 0 0zm0 -0.08l0 0zm0 -0.11l0 0 0 0 0 0 0 0zm0 0l0 -0.02 0 0 0 -0.02 0 0 0 -0.02 0 0 0 -0.02 0 0.02 0 0 0 0.02 0 0 0 0.02 0 0 0 0.02zm0 -0.08l0 0zm0 -0.11l0 -0.01 0 0.01zm0 -0.01l0 -0.01 0 -0.01 0.01 -0.01 0 0 0 -0.02 0 -0.02 0 0.02 0 0.02 0 0 -0.01 0.01 0 0.01 0 0.01zm0.01 -0.07l0 0zm0 -0.12l0 0 0 0zm0 0l0 -0.02 0 0 0 -0.01 0 -0.02 0 0 0 -0.02 0 0.02 0 0 0 0.02 0 0.01 0 0 0 0.02zm0 -0.07l0 0zm0 -0.12l0 -0.01 0 0.01zm0 -0.01l0 -0.01 0 0 0 -0.01 0 -0.01 0 -0.01 0 -0.02 0 0.02 0 0.01 0 0.01 0 0.01 0 0 0 0.01zm0 -0.06l0 0zm0 -0.12l0 -0.01 0 0.01zm0 -0.01l0 -0.01 0 0 0 -0.01 0 -0.01 0.01 -0.01 0 0 0 -0.02 0 0.02 0 0 -0.01 0.01 0 0.01 0 0.01 0 0 0 0.01zm0.01 -0.06l0 0zm0 -0.13l0 0 0 0zm0 0l0 -0.01 0 0 0 -0.02 0 0 0 -0.01 0 0 0 -0.01 0 0.01 0 0 0 0.01 0 0 0 0.02 0 0 0 0.01zm0 -0.05l0 0zm0 -0.13l0 0c0,-0.02 0.01,-0.04 0.01,-0.06 0,0.02 -0.01,0.04 -0.01,0.06zm0.01 -0.06l0 0zm0 -0.14l0 0 0 -0.01 0 0 0 -0.01 0 0 0 -0.02 0 0 0 -0.01 0 0.01 0 0 0 0.02 0 0 0 0.01 0 0 0 0.01zm0 -0.05l0 0zm0 -0.15l0 0 0 -0.01 0 0 0 -0.01 0 -0.01 0 0 0 -0.01 0 0.01 0 0 0 0.01 0 0.01 0 0 0 0.01zm0 -0.04l0 0zm0.01 -0.14l0 0c0,-0.01 0,-0.03 0,-0.05 0,0.02 0,0.04 0,0.05zm0 -0.05l0 0zm0 -0.14l0 0 0 -0.01 0 0 0 -0.01 0 -0.01 0 -0.01 0 -0.01 0 0.01 0 0.01 0 0.01 0 0.01 0 0 0 0.01zm0 -0.05l0 0zm0.01 -0.14l0 0c0,-0.02 0,-0.03 0,-0.05 0,0.02 0,0.03 0,0.05zm0 -0.05l0 0zm0.01 -0.14l0 0 0 -0.01 0 0 0 -0.04 0 0.04 0 0 0 0.01zm0 -0.05l0 0zm0 -0.14l0 0 0 -0.01 0 -0.01 0 0 0 -0.01 0 0 0 -0.01 0 -0.01 0 0.01 0 0.01 0 0 0 0.01 0 0 0 0.01 0 0.01zm0 -0.05l0 0zm0.01 -0.15l0 0 0 -0.02 0 -0.01 0 0.01 0 0.02zm0 -0.03l0 0zm0.01 -0.17l0 0 0 -0.01 0 0 0 -0.01 0 0.01 0 0 0 0.01zm0 -0.02l0 0zm0 -0.17l0 0 0 -0.01 0 -0.01 0 0.01 0 0.01zm0 -0.02l0 0zm0.01 -0.17l0 0c0,0 0,-0.01 0,-0.02 0,0.01 0,0.02 0,0.02zm0 -0.02l0 0zm0.01 -0.17l0 0c0,0 0,-0.01 0,-0.01 0,0 0,0.01 0,0.01zm0 -0.01l0 0zm0.01 -0.18l0 0c0,-0.01 0,-0.01 0,-0.01 0,0 0,0 0,0.01zm0 -0.01l0 0z"/>
    <path class="fil8" d="M820.97 318.8c0.05,0 0.12,0 0.18,0l0 0c-0.06,0 -0.12,0 -0.18,0zm0.24 0c0.04,0 0.08,0 0.12,0l0 0c-0.04,0 -0.08,0 -0.12,0l0 0zm0.19 0c0.04,0 0.08,0 0.12,0l0 0c-0.04,0 -0.08,0 -0.12,0l0 0zm0.19 0c0.04,0 0.07,0 0.11,0l0 0c-0.04,0 -0.07,0 -0.11,0l0 0zm0.19 0c0.04,0 0.07,0 0.1,0l0 0c-0.03,0 -0.06,0 -0.1,0l0 0zm0.18 0c0.04,0 0.07,0 0.11,0 -0.01,0 0,0 -0.01,0 -0.03,0 -0.06,0 -0.1,0l0 0zm0.19 -0.01c0.04,0 0.06,0 0.1,0l0 0c-0.03,0 -0.07,0 -0.1,0l0 0zm0.18 0c0.03,0 0.07,0 0.1,0l0 0c-0.03,0 -0.07,0 -0.1,0l0 0zm0.19 0c0.03,0 0.06,0 0.09,0l0 0c-0.03,0 -0.06,0 -0.09,0l0 0zm0.18 0c0.04,0 0.07,0 0.1,0l0 0c-0.04,0 -0.07,0 -0.1,0l0 0zm0.18 0c0.05,-0.01 0.09,-0.01 0.13,-0.01 0,0 -0.01,0 -0.02,0 -0.03,0 -0.07,0.01 -0.11,0.01l0 0zm0.23 -0.01c0.04,0 0.09,0 0.13,0l0 0c-0.03,0 -0.06,0 -0.09,0 -0.02,0 -0.03,0 -0.04,0zm0.22 0c0.03,0 0.06,-0.01 0.09,-0.01l0 0c-0.02,0 -0.05,0 -0.08,0.01 0,0 -0.01,0 -0.01,0zm0.18 -0.01c0.04,0 0.07,0 0.09,0l0 0c-0.02,0 -0.05,0 -0.08,0 0,0 0,0 -0.01,0zm0.19 0c0.03,0 0.06,0 0.09,0 -0.01,0 0,0 -0.01,0 -0.02,0 -0.05,0 -0.08,0 0,0 0,0 0,0zm0.18 -0.01c0.03,0 0.06,0 0.09,0l-0.01 0c-0.02,0 -0.05,0 -0.07,0 -0.01,0 0,0 -0.01,0zm0.19 0c0.02,0 0.05,0 0.08,0 -0.01,0 0,0 -0.01,0 -0.02,0 -0.05,0 -0.07,0 0,0 0,0 0,0zm0.18 0c0.03,-0.01 0.05,-0.01 0.08,-0.01l-0.01 0c-0.02,0 -0.04,0 -0.07,0.01l0 0zm0.18 -0.01c0.03,0 0.05,0 0.08,0 0,0 -0.01,0 -0.01,0 -0.02,0 -0.04,0 -0.07,0l0 0zm0.18 0c0.03,0 0.05,-0.01 0.07,-0.01 0,0 0,0 -0.01,0 -0.02,0 -0.03,0.01 -0.05,0.01 -0.01,0 0,0 -0.01,0zm0.18 -0.01c0.03,0 0.04,0 0.07,0 -0.01,0 -0.02,0 -0.03,0 -0.01,0 -0.02,0 -0.03,0 -0.01,0 0,0 -0.01,0zm0.19 -0.01c0.01,0 0.01,0 0.02,0 -0.01,0 -0.02,0 -0.02,0zm0.49 -0.01c0.01,0 0.02,0 0.03,0 -0.01,0 -0.02,0 -0.03,0zm0.16 -0.01c0.02,0 0.04,0 0.05,0 0,0 0,0 0,0 -0.01,0 -0.02,0 -0.02,0 -0.01,0 -0.02,0 -0.03,0zm0.18 -0.01c0.01,0 0.04,0 0.05,0 0,0 0,0 -0.01,0 -0.01,0 -0.02,0 -0.03,0 0,0 -0.01,0 -0.01,0zm0.18 -0.01c0.01,0 0.03,0 0.05,0 -0.01,0 -0.01,0 -0.01,0 -0.01,0 -0.02,0 -0.03,0 0,0 -0.01,0 -0.01,0zm0.18 0c0.01,0 0.03,0 0.04,0 0,0 0,0 -0.01,0 -0.01,0 -0.01,0 -0.02,0 0,0 -0.01,0 -0.01,0zm0.18 -0.01c0.01,0 0.02,0 0.04,0 -0.01,0 -0.02,0 -0.02,0 0,0 -0.01,0 -0.01,0 -0.01,0 -0.01,0 -0.01,0zm0.18 -0.01c0,0 0.02,0 0.03,0 -0.01,0 -0.01,0 -0.02,0l0 0c-0.01,0 -0.01,0 -0.01,0zm0.18 -0.01c0,0 0,0 0.01,0 -0.01,0 -0.01,0 -0.01,0zm-90.46 -43.73c-17.37,-19.82 -27.9,-45.76 -27.9,-74.12 0,-31.55 13.05,-60.12 34.03,-80.58 10.02,35.29 31.77,89.95 74.07,112.73 0.83,0.86 1.67,1.73 2.51,2.58 -22.03,15.52 -49.21,29.33 -82.71,39.39zm-33.27 -74.31l0 0c0,-0.02 0,-0.04 0,-0.06l0 -0.01c0,0.03 0,0.04 0,0.07zm0 -0.2l0 0c0,-0.02 0,-0.05 0,-0.07 0,0 0,-0.01 0,-0.01 0,0.03 0,0.06 0,0.08zm0 -0.19l0 0c0,-0.03 0,-0.06 0,-0.08 0,0 0,0 0,-0.01 0,0.03 0,0.06 0,0.09zm0 -0.2l0 0c0,-0.03 0,-0.05 0,-0.07l0 -0.01c0,0.03 0,0.06 0,0.08zm0.01 -0.2l0 0c0,-0.02 0,-0.04 0,-0.07 0,0 0,0 0,0 0,0.02 0,0.05 0,0.07zm0 -0.19l0 0c0,-0.03 0,-0.05 0,-0.07 0,0 0,0 0,-0.01 0,0.03 0,0.05 0,0.08zm0 -0.2l0 0c0,-0.02 0,-0.05 0,-0.07l0 0c0,0.02 0,0.05 0,0.07zm0 -0.2l0 0c0,-0.02 0,-0.04 0,-0.06 0,0 0,0 0,0 0,0.02 0,0.04 0,0.06zm0 -0.2l0 0c0,-0.02 0,-0.04 0,-0.05l0 -0.01c0,0.02 0,0.04 0,0.06zm0.01 -0.2l0 0c0,-0.02 0,-0.03 0,-0.05l0 0c0,0.02 0,0.03 0,0.05zm0 -0.2l0 0c0,-0.01 0,-0.03 0,-0.04l0 -0.01c0,0.02 0,0.04 0,0.05zm0 -0.21l0 0c0,-0.01 0,-0.01 0,-0.02l0 -0.01c0,0.01 0,0.02 0,0.03zm0.01 -0.2l0 0c0,-0.01 0,-0.01 0,-0.02l0 0c0,0.01 0,0.01 0,0.02z"/>
    <g style="clip-path:url(#id0)">
     <image x="700.94" y="202.85" width="121.38" height="117.36" xlink:href="logo_Images\logo_ImgID1.png"/>
    </g>
    <g style="clip-path:url(#id1)">
     <image x="700.94" y="106.22" width="47.83" height="94.27" xlink:href="logo_Images\logo_ImgID2.png"/>
    </g>
    <g style="clip-path:url(#id2)">
     <image x="700.94" y="106.22" width="49.18" height="94.27" xlink:href="logo_Images\logo_ImgID3.png"/>
    </g>
    <g style="clip-path:url(#id3)">
     <image x="700.94" y="198.83" width="4.08" height="4.08" xlink:href="logo_Images\logo_ImgID4.png"/>
    </g>
    <g style="clip-path:url(#id4)">
     <image x="700.94" y="198.83" width="4.08" height="4.08" xlink:href="logo_Images\logo_ImgID5.png"/>
    </g>
    <g style="clip-path:url(#id5)">
     <image x="700.94" y="198.83" width="4.08" height="4.08" xlink:href="logo_Images\logo_ImgID6.png"/>
    </g>
    <g style="clip-path:url(#id6)">
     <image x="700.94" y="197.49" width="4.08" height="4.35" xlink:href="logo_Images\logo_ImgID7.png"/>
    </g>
    <g style="clip-path:url(#id7)">
     <image x="700.94" y="197.49" width="4.08" height="5.42" xlink:href="logo_Images\logo_ImgID8.png"/>
    </g>
    <g style="clip-path:url(#id8)">
     <image x="700.94" y="197.49" width="4.08" height="4.35" xlink:href="logo_Images\logo_ImgID9.png"/>
    </g>
    <g style="clip-path:url(#id9)">
     <image x="700.94" y="197.49" width="4.08" height="4.35" xlink:href="logo_Images\logo_ImgID10.png"/>
    </g>
    <g style="clip-path:url(#id10)">
     <image x="700.94" y="197.49" width="4.08" height="4.35" xlink:href="logo_Images\logo_ImgID11.png"/>
    </g>
    <g style="clip-path:url(#id11)">
     <image x="700.94" y="197.49" width="4.08" height="4.35" xlink:href="logo_Images\logo_ImgID12.png"/>
    </g>
    <g style="clip-path:url(#id12)">
     <image x="700.94" y="197.49" width="4.08" height="4.35" xlink:href="logo_Images\logo_ImgID13.png"/>
    </g>
    <g style="clip-path:url(#id13)">
     <image x="700.94" y="197.49" width="4.08" height="4.35" xlink:href="logo_Images\logo_ImgID14.png"/>
    </g>
    <g style="clip-path:url(#id14)">
     <image x="700.94" y="197.49" width="4.08" height="4.35" xlink:href="logo_Images\logo_ImgID15.png"/>
    </g>
    <g style="clip-path:url(#id15)">
     <image x="700.94" y="197.49" width="4.08" height="4.35" xlink:href="logo_Images\logo_ImgID16.png"/>
    </g>
    <g style="clip-path:url(#id16)">
     <image x="700.94" y="197.49" width="4.08" height="4.35" xlink:href="logo_Images\logo_ImgID17.png"/>
    </g>
    <g style="clip-path:url(#id17)">
     <image x="700.94" y="197.49" width="4.08" height="4.35" xlink:href="logo_Images\logo_ImgID18.png"/>
    </g>
    <g style="clip-path:url(#id18)">
     <image x="700.94" y="197.49" width="4.08" height="4.35" xlink:href="logo_Images\logo_ImgID19.png"/>
    </g>
    <g style="clip-path:url(#id19)">
     <image x="700.94" y="197.49" width="4.08" height="4.35" xlink:href="logo_Images\logo_ImgID20.png"/>
    </g>
    <g style="clip-path:url(#id20)">
     <image x="700.94" y="196.41" width="4.08" height="4.08" xlink:href="logo_Images\logo_ImgID21.png"/>
    </g>
    <g style="clip-path:url(#id21)">
     <image x="700.94" y="196.41" width="4.08" height="4.08" xlink:href="logo_Images\logo_ImgID22.png"/>
    </g>
    <g style="clip-path:url(#id22)">
     <image x="700.94" y="196.41" width="4.08" height="4.08" xlink:href="logo_Images\logo_ImgID23.png"/>
    </g>
    <g style="clip-path:url(#id23)">
     <image x="700.94" y="196.41" width="4.08" height="4.08" xlink:href="logo_Images\logo_ImgID24.png"/>
    </g>
    <g style="clip-path:url(#id24)">
     <image x="700.94" y="196.41" width="4.08" height="4.08" xlink:href="logo_Images\logo_ImgID25.png"/>
    </g>
    <g style="clip-path:url(#id25)">
     <image x="700.94" y="196.41" width="4.08" height="4.08" xlink:href="logo_Images\logo_ImgID26.png"/>
    </g>
    <g style="clip-path:url(#id26)">
     <image x="700.94" y="196.41" width="4.08" height="4.08" xlink:href="logo_Images\logo_ImgID27.png"/>
    </g>
    <g style="clip-path:url(#id27)">
     <image x="700.94" y="196.41" width="4.08" height="4.08" xlink:href="logo_Images\logo_ImgID28.png"/>
    </g>
    <g style="clip-path:url(#id28)">
     <image x="700.94" y="112.66" width="121.38" height="207.55" xlink:href="logo_Images\logo_ImgID29.png"/>
    </g>
    <g style="clip-path:url(#id29)">
     <image x="815.56" y="316.13" width="8.11" height="4.08" xlink:href="logo_Images\logo_ImgID30.png"/>
    </g>
    <g style="clip-path:url(#id30)">
     <image x="734.5" y="233.72" width="160.04" height="81.39" xlink:href="logo_Images\logo_ImgID31.png"/>
    </g>
    <g style="clip-path:url(#id31)">
     <image x="815.56" y="316.13" width="8.11" height="4.08" xlink:href="logo_Images\logo_ImgID32.png"/>
    </g>
    <g style="clip-path:url(#id32)">
     <image x="819.32" y="316.13" width="4.35" height="4.08" xlink:href="logo_Images\logo_ImgID33.png"/>
    </g>
    <g style="clip-path:url(#id33)">
     <image x="819.32" y="316.13" width="4.35" height="4.08" xlink:href="logo_Images\logo_ImgID34.png"/>
    </g>
    <g style="clip-path:url(#id34)">
     <image x="819.32" y="316.13" width="4.35" height="4.08" xlink:href="logo_Images\logo_ImgID35.png"/>
    </g>
    <g style="clip-path:url(#id35)">
     <image x="819.32" y="316.13" width="4.35" height="4.08" xlink:href="logo_Images\logo_ImgID36.png"/>
    </g>
    <g style="clip-path:url(#id36)">
     <image x="819.32" y="316.13" width="4.35" height="4.08" xlink:href="logo_Images\logo_ImgID37.png"/>
    </g>
    <g style="clip-path:url(#id37)">
     <image x="819.32" y="316.13" width="5.42" height="4.08" xlink:href="logo_Images\logo_ImgID38.png"/>
    </g>
    <g style="clip-path:url(#id38)">
     <image x="820.66" y="316.13" width="4.08" height="4.08" xlink:href="logo_Images\logo_ImgID39.png"/>
    </g>
    <g style="clip-path:url(#id39)">
     <image x="820.66" y="316.13" width="4.08" height="4.08" xlink:href="logo_Images\logo_ImgID40.png"/>
    </g>
    <g style="clip-path:url(#id40)">
     <image x="820.66" y="316.13" width="4.08" height="4.08" xlink:href="logo_Images\logo_ImgID41.png"/>
    </g>
    <g style="clip-path:url(#id41)">
     <image x="820.66" y="316.13" width="4.08" height="4.08" xlink:href="logo_Images\logo_ImgID42.png"/>
    </g>
    <g style="clip-path:url(#id42)">
     <image x="820.66" y="316.13" width="4.08" height="4.08" xlink:href="logo_Images\logo_ImgID43.png"/>
    </g>
    <g style="clip-path:url(#id43)">
     <image x="820.66" y="316.13" width="4.08" height="4.08" xlink:href="logo_Images\logo_ImgID44.png"/>
    </g>
    <g style="clip-path:url(#id44)">
     <image x="820.66" y="316.13" width="5.42" height="4.08" xlink:href="logo_Images\logo_ImgID45.png"/>
    </g>
    <g style="clip-path:url(#id45)">
     <image x="822" y="316.13" width="4.08" height="4.08" xlink:href="logo_Images\logo_ImgID46.png"/>
    </g>
    <g style="clip-path:url(#id46)">
     <image x="822" y="316.13" width="4.08" height="4.08" xlink:href="logo_Images\logo_ImgID47.png"/>
    </g>
    <g style="clip-path:url(#id47)">
     <image x="822" y="316.13" width="4.08" height="4.08" xlink:href="logo_Images\logo_ImgID48.png"/>
    </g>
    <g style="clip-path:url(#id48)">
     <image x="822" y="316.13" width="4.08" height="4.08" xlink:href="logo_Images\logo_ImgID49.png"/>
    </g>
    <g style="clip-path:url(#id49)">
     <image x="822" y="316.13" width="4.08" height="4.08" xlink:href="logo_Images\logo_ImgID50.png"/>
    </g>
    <g style="clip-path:url(#id50)">
     <image x="822" y="316.13" width="4.08" height="4.08" xlink:href="logo_Images\logo_ImgID51.png"/>
    </g>
    <g style="clip-path:url(#id51)">
     <image x="822" y="316.13" width="5.42" height="4.08" xlink:href="logo_Images\logo_ImgID52.png"/>
    </g>
    <g style="clip-path:url(#id52)">
     <image x="823.35" y="316.13" width="4.08" height="4.08" xlink:href="logo_Images\logo_ImgID53.png"/>
    </g>
    <g style="clip-path:url(#id53)">
     <image x="823.35" y="316.13" width="4.08" height="4.08" xlink:href="logo_Images\logo_ImgID54.png"/>
    </g>
    <g style="clip-path:url(#id54)">
     <image x="823.35" y="316.13" width="4.08" height="4.08" xlink:href="logo_Images\logo_ImgID55.png"/>
    </g>
    <g style="clip-path:url(#id55)">
     <image x="823.35" y="316.13" width="4.08" height="4.08" xlink:href="logo_Images\logo_ImgID56.png"/>
    </g>
    <g style="clip-path:url(#id56)">
     <image x="823.35" y="316.13" width="4.08" height="4.08" xlink:href="logo_Images\logo_ImgID57.png"/>
    </g>
    <g style="clip-path:url(#id57)">
     <image x="824.69" y="316.13" width="4.08" height="4.08" xlink:href="logo_Images\logo_ImgID58.png"/>
    </g>
    <g style="clip-path:url(#id58)">
     <image x="824.69" y="316.13" width="4.08" height="4.08" xlink:href="logo_Images\logo_ImgID59.png"/>
    </g>
    <g style="clip-path:url(#id59)">
     <image x="824.69" y="316.13" width="4.08" height="4.08" xlink:href="logo_Images\logo_ImgID60.png"/>
    </g>
    <g style="clip-path:url(#id60)">
     <image x="824.69" y="287.68" width="74.95" height="32.53" xlink:href="logo_Images\logo_ImgID61.png"/>
    </g>
    <g style="clip-path:url(#id61)">
     <image x="728.05" y="272.38" width="171.58" height="47.83" xlink:href="logo_Images\logo_ImgID62.png"/>
    </g>
    <g style="clip-path:url(#id62)">
     <image x="744.7" y="80.45" width="196.01" height="211.58" xlink:href="logo_Images\logo_ImgID63.png"/>
    </g>
    <g style="clip-path:url(#id63)">
     <image x="746.04" y="85.55" width="194.66" height="150.91" xlink:href="logo_Images\logo_ImgID64.png"/>
    </g>
    <g style="clip-path:url(#id64)">
     <image x="814.22" y="231.04" width="8.11" height="6.76" xlink:href="logo_Images\logo_ImgID65.png"/>
    </g>
    <g style="clip-path:url(#id65)">
     <image x="744.7" y="80.45" width="196.01" height="122.46" xlink:href="logo_Images\logo_ImgID66.png"/>
    </g>
    <g style="clip-path:url(#id66)">
     <image x="744.7" y="80.45" width="77.63" height="36.29" xlink:href="logo_Images\logo_ImgID67.png"/>
    </g>
    <g style="clip-path:url(#id67)">
     <image x="936.62" y="196.41" width="4.08" height="6.5" xlink:href="logo_Images\logo_ImgID68.png"/>
    </g>
    <g style="clip-path:url(#id68)">
     <image x="867.1" y="122.86" width="73.87" height="77.63" xlink:href="logo_Images\logo_ImgID69.png"/>
    </g>
    <g style="clip-path:url(#id69)">
     <image x="818.25" y="185.94" width="122.46" height="59.64" xlink:href="logo_Images\logo_ImgID70.png"/>
    </g>
    <g style="clip-path:url(#id70)">
     <image x="816.9" y="218.15" width="117.63" height="71.19" xlink:href="logo_Images\logo_ImgID71.png"/>
    </g>
    <g style="clip-path:url(#id71)">
     <image x="902" y="116.42" width="38.71" height="86.49" xlink:href="logo_Images\logo_ImgID72.png"/>
    </g>
    <g style="clip-path:url(#id72)">
     <image x="895.55" y="191.04" width="45.15" height="100.98" xlink:href="logo_Images\logo_ImgID73.png"/>
    </g>
    <g style="clip-path:url(#id73)">
     <image x="890.19" y="214.4" width="49.44" height="77.63" xlink:href="logo_Images\logo_ImgID74.png"/>
    </g>
   </g>
   <g>
    <path class="fil9" d="M1328.57 318.46l0 0c0.02,0 0.04,0 0.06,0l0 0c-0.02,0 -0.04,0 -0.06,0zm0.18 0l0 0c0.03,0 0.05,0 0.07,0l0 0c-0.02,0 -0.04,0 -0.07,0zm0.19 0l0 0c0.02,0 0.05,0 0.07,0l0 0c-0.02,0 -0.05,0 -0.07,0zm0.18 0l0 0c0.02,0 0.06,0 0.08,0l0 0c-0.02,0 -0.06,0 -0.08,0zm0.18 0l0 0c0.03,0 0.06,0 0.09,0l0 0c-0.03,0 -0.06,0 -0.09,0zm0.18 0c0.01,0 0,0 0.01,0 0.02,0 0.05,0 0.08,0l0 0c-0.03,0 -0.06,0 -0.09,0zm0.19 0l0 0c0.03,0 0.05,0 0.08,0l0 0c-0.02,0 -0.05,0 -0.08,0zm0.18 -0.01l0 0c0.03,0 0.06,0 0.09,0l0 0c-0.03,0 -0.06,0 -0.09,0zm0.18 0l0 0c0.03,0 0.06,0 0.09,0l0 0c-0.03,0 -0.06,0 -0.09,0zm0.19 0l0 0c0.03,0 0.06,0 0.08,0l0.01 0c-0.03,0 -0.06,0 -0.09,0zm0.19 0c0.01,0 0.02,0 0.02,0 0.03,0 0.07,0 0.1,-0.01 0.01,0 0.03,0 0.04,0 -0.05,0 -0.11,0.01 -0.16,0.01zm0.25 -0.01l0 0c0.03,0 0.06,0 0.09,0 0,0 0.01,0 0.01,0 -0.03,0 -0.07,0 -0.1,0zm0.18 0l0.01 0c0.02,0 0.06,0 0.08,-0.01 0.01,0 0.01,0 0.01,0 -0.04,0.01 -0.06,0.01 -0.1,0.01zm0.19 -0.01l0 0c0.02,0 0.06,0 0.09,0 0,0 0,0 0,0 -0.03,0 -0.06,0 -0.09,0zm0.18 0c0,0 0,0 0,0 0.03,0 0.06,0 0.09,0 0.01,0 0,0 0.01,0 -0.04,0 -0.07,0 -0.1,0zm0.17 0l0.01 -0.01c0.03,0 0.06,0 0.1,0 0,0 0,0 0,0 -0.03,0 -0.07,0 -0.11,0.01zm0.18 -0.01c0.01,0 0.01,0 0.01,0 0.03,0 0.06,0 0.1,0l0 0c-0.03,0 -0.07,0 -0.11,0zm0.18 0l0.01 0c0.03,0 0.07,-0.01 0.1,-0.01l0.01 0c-0.05,0 -0.08,0.01 -0.12,0.01zm0.18 -0.01c0,0 0.01,0 0.01,0 0.03,0 0.07,0 0.1,0 0.01,0 0,0 0.01,0 -0.04,0 -0.08,0 -0.12,0zm0.17 -0.01c0.01,0 0.01,0 0.01,0 0.04,0 0.08,0 0.11,0 0.01,0 0,0 0.01,0 -0.04,0 -0.09,0 -0.13,0zm0.16 0c0.01,0 0.02,0 0.03,0 0.03,0 0.08,0 0.12,0 0,-0.01 0.02,-0.01 0.02,-0.01 0.16,0 0.32,-0.01 0.47,-0.01 0.01,0 0.02,0 0.03,0 0.05,0 0.09,-0.01 0.13,-0.01 0.01,0 0.02,0 0.03,0 -0.28,0.01 -0.55,0.02 -0.83,0.03zm0.85 -0.03c0,0 0,0 0,0 0.05,0 0.08,0 0.13,-0.01 0,0 0.01,0 0.02,0 -0.05,0.01 -0.11,0.01 -0.15,0.01zm0.17 -0.01c0.01,0 0.01,0 0.01,0 0.05,0 0.08,0 0.13,0 0,0 0.01,0 0.01,0 -0.05,0 -0.1,0 -0.15,0zm0.18 0c0,0 0,0 0.01,0 0.04,-0.01 0.08,-0.01 0.13,-0.01 0,0 0.01,0 0.01,0 -0.05,0 -0.1,0 -0.15,0.01zm0.17 -0.01c0.01,0 0.01,0 0.01,0 0.05,0 0.1,-0.01 0.14,-0.01 0,0 0,0 0.01,0 -0.05,0 -0.1,0.01 -0.16,0.01zm0.17 -0.01c0.01,0 0.01,0 0.02,0 0.04,0 0.09,-0.01 0.14,-0.01 0,0 0,0 0.01,0 -0.06,0 -0.11,0.01 -0.17,0.01zm0.17 -0.01c0.01,0 0.01,0 0.02,0 0.05,0 0.1,0 0.15,-0.01 0,0 0,0 0.01,0 27.1,-1.3 51.82,-11.75 71.11,-28.33l0 0c-19.33,16.62 -44.11,27.08 -71.29,28.34z"/>
    <path class="fil10" d="M1323.87 232.62c-42.29,-22.78 -64.05,-77.44 -74.07,-112.73 2,-1.96 4.08,-3.84 6.22,-5.64 8.38,32.03 24.45,65 48.01,95.38 6.32,8.15 12.96,15.82 19.84,22.99zm-113.47 -32.14l0 0 0 0 0 -0.02 0 -0.01 0 -0.01 0 0 0 -0.01 0 0 0 -0.01 0 -0.02 0 0 0 -0.01 0 0 0 -0.01 0 0 0 -0.01 0 0 0 -0.01 0 0 0 -0.01 0 -0.01 0 -0.01 0 0 0 -0.01 0 0 0 -0.01 0 0 0 -0.01 0 0 0 -0.02 0 0.02 0 0 0 0.01 0 0 0 0.01 0 0 0 0.01 0 0 0 0.01 0 0.01 0 0.01 0 0 0 0.01 0 0 0 0.01 0 0 0 0.01 0 0 0 0.01 0 0 0 0.02 0 0.01 0 0 0 0.01 0 0 0 0.01 0 0.01 0 0.02zm0 -0.2l0 0zm0 -0.06l0 0 0 0zm0 0l0 -0.01 0 0 0 0 0 -0.01 0 0 0 -0.01 0 0 0 0 0 -0.01 0 0 0 -0.01 0 0 0 0 0 -0.01 0 0 0 -0.01 0 0 0 0 0 -0.01 0 0 0 -0.01 0 0 0 0 0 -0.01 0 0 0 0 0 -0.01 0 0 0 -0.01 0 0 0 -0.01 0 0.01 0 0 0 0.01 0 0 0 0.01 0 0 0 0 0 0.01 0 0 0 0 0 0.01 0 0 0 0.01 0 0 0 0 0 0.01 0 0 0 0.01 0 0 0 0 0 0.01 0 0 0 0.01 0 0 0 0 0 0.01 0 0 0 0.01 0 0 0 0 0 0.01zm0 -0.13l0 0zm0 -0.08l0 0 0 -0.05 0 -0.01 0 0 0 -0.01 0 0 0 -0.01 0 0 0 -0.01 0 0 0 -0.01 0 -0.01 0 0.01 0 0.01 0 0 0 0.01 0 0 0 0.01 0 0 0 0.01 0 0 0 0.01 0 0.05 0 0 0 0zm0 -0.11l0 0zm0 -0.09l0 0 0 0 0 0 0 0zm0 0l0 -0.02 0 0 0 -0.03 0 0 0 -0.02 0 -0.03 0 0.03 0 0.02 0 0 0 0.03 0 0 0 0.02zm0 -0.1l0 0zm0 -0.09l0 0 0 0zm0 0l0 -0.02 0 -0.01 0 -0.02 0 0 0.01 -0.02 0 0 0 -0.03 0 0.03 0 0 -0.01 0.02 0 0 0 0.02 0 0.01 0 0.02zm0.01 -0.1l0 0zm0 -0.1l0 0 0 0 0 0 0 0zm0 0l0 -0.02 0 0 0 -0.02 0 0 0 -0.02 0 -0.03 0 0.03 0 0.02 0 0 0 0.02 0 0 0 0.02zm0 -0.09l0 0zm0 -0.1l0 0c0,0 0,0 0,0zm0 0l0 -0.02 0 0 0 -0.02 0 -0.01 0 -0.02 0 0 0 -0.02 0 0.02 0 0 0 0.02 0 0.01 0 0.02 0 0 0 0.02zm0 -0.09l0 0zm0 -0.11l0 -0.06 0 -0.02 0 0.02 0 0.06 0 0zm0 -0.08l0 0zm0 -0.11l0 0 0 0 0 0 0 0zm0 0l0 -0.02 0 0 0 -0.02 0 0 0 -0.02 0 0 0.01 -0.02 -0.01 0.02 0 0 0 0.02 0 0 0 0.02 0 0 0 0.02zm0.01 -0.08l0 0zm0 -0.11l0 0 0 0zm0 0l0 -0.02 0 0 0 -0.02 0 0 0 -0.02 0 -0.01 0 0.01 0 0.02 0 0 0 0.02 0 0 0 0.02zm0 -0.07l0 0zm0 -0.13l0 0 0 0zm0 0l0 -0.01 0 -0.01 0 -0.01 0 -0.02 0 0 0 -0.02 0 0.02 0 0 0 0.02 0 0.01 0 0.01 0 0.01zm0 -0.07l0 0zm0 -0.12l0 0 0 0zm0 0l0 -0.02 0 0 0 -0.01 0 0 0 -0.02 0 -0.01 0 0.01 0 0.02 0 0 0 0.01 0 0 0 0.02zm0 -0.06l0 0zm0.01 -0.13l0 0 0 0zm0 0l0 -0.02 0 0 0 -0.01 0 0 0 -0.02 0 0 0 -0.01 0 0.01 0 0 0 0.02 0 0 0 0.01 0 0 0 0.02zm0 -0.06l0 0zm0 -0.14l0 0 0 0zm0 0l0 -0.01 0 0 0 -0.01 0 0 0 -0.02 0 0 0 -0.01 0 0.01 0 0 0 0.02 0 0 0 0.01 0 0 0 0.01zm0 -0.05l0 0zm0 -0.13l0 0c0,-0.02 0.01,-0.04 0.01,-0.06 0,0.02 -0.01,0.04 -0.01,0.06zm0.01 -0.06l0 0zm0 -0.13l0 0 0 -0.02 0 0 0 -0.01 0 0 0 -0.02 0 0 0 -0.01 0 0.01 0 0 0 0.02 0 0 0 0.01 0 0 0 0.02zm0 -0.06l0 0zm0 -0.15l0 0 0 -0.01 0 0 0 -0.01 0 -0.01 0 0 0 -0.01 0 0.01 0 0 0 0.01 0 0.01 0 0 0 0.01zm0 -0.04l0 0zm0.01 -0.13l0 0c0,-0.02 0,-0.04 0,-0.06 0,0.02 0,0.04 0,0.06zm0 -0.06l0 0zm0 -0.13l0 0 0 -0.02 0 0 0 -0.01 0 -0.01 0 0 0 -0.02 0 0.02 0 0 0 0.01 0 0.01 0 0 0 0.02zm0 -0.06l0 0zm0.01 -0.14l0 0c0,-0.02 0,-0.03 0,-0.04 0,0.01 0,0.02 0,0.04zm0 -0.04l0 0zm0.01 -0.15l0 0 0 -0.01 0 0 0 -0.04 0 0.04 0 0 0 0.01zm0 -0.05l0 0zm0 -0.14l0 0 0 -0.01 0 0 0 -0.01 0 0 0 -0.01 0 0 0 -0.01 0 0.01 0 0 0 0.01 0 0 0 0.01 0 0 0 0.01zm0 -0.04l0 0zm0.01 -0.16l0 0 0 -0.01 0 -0.02 0 0.02 0 0.01zm0 -0.03l0 0zm0.01 -0.17l0 0 0 -0.01 0 0 0 -0.01 0 0.01 0 0 0 0.01zm0 -0.02l0 0zm0.01 -0.16l0 0 0 -0.02 0 -0.01 0 0.01 0 0.02zm0 -0.03l0 0zm0 -0.17l0 0c0,0 0,-0.01 0,-0.01 0,0 0,0.01 0,0.01zm0 -0.01l0 0zm0.01 -0.18l0 0c0,0 0,-0.01 0,-0.01 0,0 0,0.01 0,0.01zm0 -0.01l0 0zm0.01 -0.18l0 0c0,0 0,0 0,-0.01 0,0.01 0,0.01 0,0.01zm0 -0.01l0 0z"/>
    <path class="fil11" d="M1328.39 318.46c0.06,0 0.12,0 0.18,0l0 0c-0.06,0 -0.12,0 -0.18,0zm0.24 0c0.04,0 0.08,0 0.12,0l0 0c-0.04,0 -0.08,0 -0.12,0l0 0zm0.19 0c0.04,0 0.08,0 0.12,0l0 0c-0.04,0 -0.08,0 -0.12,0l0 0zm0.19 0c0.04,0 0.07,0 0.11,0l0 0c-0.04,0 -0.07,0 -0.11,0l0 0zm0.19 0c0.04,0 0.07,0 0.1,0l0 0c-0.03,0 -0.06,0 -0.1,0l0 0zm0.19 0c0.03,0 0.07,0 0.1,0 -0.01,0 0,0 -0.01,0 -0.03,0 -0.06,0 -0.09,0l0 0zm0.18 0c0.04,0 0.06,0 0.1,0l0 0c-0.03,0 -0.06,0 -0.1,0l0 0zm0.18 0c0.04,-0.01 0.07,-0.01 0.1,-0.01l0 0c-0.03,0 -0.06,0 -0.1,0.01l0 0zm0.19 -0.01c0.03,0 0.07,0 0.09,0l0 0c-0.03,0 -0.06,0 -0.09,0l0 0zm0.18 0c0.04,0 0.07,0 0.1,0l0 0c-0.04,0 -0.07,0 -0.1,0l0 0zm0.18 0c0.05,0 0.09,0 0.13,0 0,0 -0.01,0 -0.02,0 -0.03,0 -0.07,0 -0.1,0l-0.01 0zm0.23 -0.01c0.04,0 0.09,0 0.13,0l0 0c-0.03,0 -0.06,0 -0.09,0 -0.01,0 -0.03,0 -0.04,0zm0.22 0c0.03,0 0.06,0 0.1,0l-0.01 0c-0.02,0 -0.05,0 -0.08,0 0,0 -0.01,0 -0.01,0zm0.18 -0.01c0.04,0 0.07,0 0.1,0l0 0c-0.03,0 -0.06,0 -0.09,0 0,0 0,0 -0.01,0zm0.19 0c0.03,0 0.06,0 0.09,0 0,0 0,0 0,0 -0.03,0 -0.06,0 -0.09,0 0,0 0,0 0,0zm0.18 0c0.03,0 0.06,0 0.09,-0.01l-0.01 0.01c-0.02,0 -0.05,0 -0.07,0 -0.01,0 0,0 -0.01,0zm0.19 -0.01c0.02,0 0.05,0 0.08,0 0,0 0,0 -0.01,0 -0.02,0 -0.05,0 -0.07,0 0,0 0,0 0,0zm0.18 0c0.03,0 0.05,0 0.08,0l-0.01 0c-0.02,0 -0.04,0 -0.07,0l0 0zm0.18 -0.01c0.03,0 0.05,0 0.08,0 0,0 -0.01,0 -0.01,0 -0.02,0 -0.04,0 -0.06,0l-0.01 0zm0.18 0c0.03,0 0.05,-0.01 0.07,-0.01 0,0 0,0 -0.01,0 -0.02,0 -0.03,0.01 -0.05,0.01 -0.01,0 0,0 -0.01,0zm0.18 -0.01c0.03,0 0.04,0 0.07,0 -0.01,0 -0.02,0 -0.03,0 -0.01,0 -0.02,0 -0.03,0 -0.01,0 0,0 -0.01,0zm0.19 0c0.01,-0.01 0.01,-0.01 0.02,-0.01 0,0 -0.02,0 -0.02,0.01zm0.49 -0.02c0.01,0 0.02,0 0.03,0 -0.01,0 -0.02,0 -0.03,0zm0.16 -0.01c0.02,0 0.04,0 0.05,0 0,0 0,0 0,0 -0.01,0 -0.02,0 -0.02,0 -0.01,0 -0.02,0 -0.03,0zm0.18 -0.01c0.01,0 0.04,0 0.05,0 0,0 0,0 -0.01,0 -0.01,0 -0.01,0 -0.02,0 -0.01,0 -0.02,0 -0.02,0zm0.18 0c0.01,0 0.03,0 0.05,0 -0.01,0 -0.01,0 -0.01,0 -0.01,0 -0.02,0 -0.03,0 0,0 -0.01,0 -0.01,0zm0.18 -0.01c0.01,0 0.03,0 0.04,0 0,0 0,0 -0.01,0 0,0 -0.01,0 -0.02,0 0,0 -0.01,0 -0.01,0zm0.18 -0.01c0.01,0 0.02,0 0.04,0 -0.01,0 -0.01,0 -0.02,0 0,0 -0.01,0 -0.01,0 -0.01,0 -0.01,0 -0.01,0zm0.18 -0.01c0,0 0.02,0 0.03,0 -0.01,0 -0.01,0 -0.02,0l0 0c-0.01,0 -0.01,0 -0.01,0zm0.18 -0.01c0,0 0,0 0.01,0 -0.01,0 -0.01,0 -0.01,0zm-90.46 -43.72c-17.36,-19.82 -27.9,-45.77 -27.9,-74.12 0,-31.56 13.05,-60.12 34.03,-80.59 10.02,35.29 31.78,89.95 74.07,112.73 0.83,0.87 1.67,1.73 2.51,2.58 -22.03,15.52 -49.21,29.34 -82.71,39.4zm-33.27 -74.32l0 0c0,-0.02 0,-0.04 0,-0.06l0 0c0,0.02 0,0.04 0,0.06zm0 -0.2l0 0c0,-0.02 0,-0.04 0,-0.07 0,0 0,0 0,0 0,0.02 0,0.05 0,0.07zm0 -0.19l0 0c0,-0.03 0,-0.05 0,-0.08 0,0 0,0 0,0 0,0.03 0,0.05 0,0.08zm0 -0.2l0 0c0,-0.03 0,-0.04 0,-0.07l0 0c0,0.02 0,0.05 0,0.07zm0.01 -0.2l0 0c0,-0.02 0,-0.04 0,-0.07 0,0 0,0 0,0 0,0.02 0,0.05 0,0.07zm0 -0.19l0 0c0,-0.03 0,-0.05 0,-0.07 0,0 0,0 0,0 0,0.02 0,0.04 0,0.07zm0 -0.2l0 0c0,-0.02 0,-0.04 0,-0.07l0 0c0,0.03 0,0.05 0,0.07zm0 -0.2l0 0c0,-0.02 0,-0.04 0,-0.06 0,0 0,0 0,0 0,0.02 0,0.04 0,0.06zm0.01 -0.2l0 0c0,-0.02 0,-0.03 0,-0.05l0 0c0,0.01 0,0.03 0,0.05zm0 -0.2l0 0c0,-0.02 0,-0.03 0,-0.05l0 0c0,0.02 0,0.04 0,0.05zm0 -0.2l0 0c0,-0.01 0,-0.03 0,-0.04l0 0c0,0.01 0,0.03 0,0.04zm0.01 -0.2l0 0c0,-0.02 0,-0.02 0,-0.03l0 0c0,0 0,0.02 0,0.03zm0 -0.21l0 0c0,-0.01 0,-0.01 0,-0.02l0 0c0,0.01 0,0.01 0,0.02z"/>
    <g style="clip-path:url(#id74)">
     <image x="1208.36" y="202.52" width="121.38" height="117.36" xlink:href="logo_Images\logo_ImgID75.png"/>
    </g>
    <g style="clip-path:url(#id75)">
     <image x="1208.36" y="105.88" width="47.83" height="94.27" xlink:href="logo_Images\logo_ImgID76.png"/>
    </g>
    <g style="clip-path:url(#id76)">
     <image x="1208.36" y="105.88" width="49.18" height="94.27" xlink:href="logo_Images\logo_ImgID77.png"/>
    </g>
    <g style="clip-path:url(#id77)">
     <image x="1208.36" y="198.49" width="4.08" height="4.08" xlink:href="logo_Images\logo_ImgID78.png"/>
    </g>
    <g style="clip-path:url(#id78)">
     <image x="1208.36" y="198.49" width="4.08" height="4.08" xlink:href="logo_Images\logo_ImgID79.png"/>
    </g>
    <g style="clip-path:url(#id79)">
     <image x="1208.36" y="198.49" width="4.08" height="4.08" xlink:href="logo_Images\logo_ImgID80.png"/>
    </g>
    <g style="clip-path:url(#id80)">
     <image x="1208.36" y="197.15" width="4.08" height="4.35" xlink:href="logo_Images\logo_ImgID81.png"/>
    </g>
    <g style="clip-path:url(#id81)">
     <image x="1208.36" y="197.15" width="4.08" height="5.42" xlink:href="logo_Images\logo_ImgID82.png"/>
    </g>
    <g style="clip-path:url(#id82)">
     <image x="1208.36" y="197.15" width="4.08" height="4.35" xlink:href="logo_Images\logo_ImgID83.png"/>
    </g>
    <g style="clip-path:url(#id83)">
     <image x="1208.36" y="197.15" width="4.08" height="4.35" xlink:href="logo_Images\logo_ImgID84.png"/>
    </g>
    <g style="clip-path:url(#id84)">
     <image x="1208.36" y="197.15" width="4.08" height="4.35" xlink:href="logo_Images\logo_ImgID85.png"/>
    </g>
    <g style="clip-path:url(#id85)">
     <image x="1208.36" y="197.15" width="4.08" height="4.35" xlink:href="logo_Images\logo_ImgID86.png"/>
    </g>
    <g style="clip-path:url(#id86)">
     <image x="1208.36" y="197.15" width="4.08" height="4.35" xlink:href="logo_Images\logo_ImgID87.png"/>
    </g>
    <g style="clip-path:url(#id87)">
     <image x="1208.36" y="197.15" width="4.08" height="4.35" xlink:href="logo_Images\logo_ImgID88.png"/>
    </g>
    <g style="clip-path:url(#id88)">
     <image x="1208.36" y="197.15" width="4.08" height="4.35" xlink:href="logo_Images\logo_ImgID89.png"/>
    </g>
    <g style="clip-path:url(#id89)">
     <image x="1208.36" y="197.15" width="4.08" height="4.35" xlink:href="logo_Images\logo_ImgID90.png"/>
    </g>
    <g style="clip-path:url(#id90)">
     <image x="1208.36" y="197.15" width="4.08" height="4.35" xlink:href="logo_Images\logo_ImgID91.png"/>
    </g>
    <g style="clip-path:url(#id91)">
     <image x="1208.36" y="197.15" width="4.08" height="4.35" xlink:href="logo_Images\logo_ImgID92.png"/>
    </g>
    <g style="clip-path:url(#id92)">
     <image x="1208.36" y="197.15" width="4.08" height="4.35" xlink:href="logo_Images\logo_ImgID93.png"/>
    </g>
    <g style="clip-path:url(#id93)">
     <image x="1208.36" y="197.15" width="4.08" height="4.35" xlink:href="logo_Images\logo_ImgID94.png"/>
    </g>
    <g style="clip-path:url(#id94)">
     <image x="1208.36" y="196.07" width="4.08" height="4.08" xlink:href="logo_Images\logo_ImgID95.png"/>
    </g>
    <g style="clip-path:url(#id95)">
     <image x="1208.36" y="196.07" width="4.08" height="4.08" xlink:href="logo_Images\logo_ImgID96.png"/>
    </g>
    <g style="clip-path:url(#id96)">
     <image x="1208.36" y="196.07" width="4.08" height="4.08" xlink:href="logo_Images\logo_ImgID97.png"/>
    </g>
    <g style="clip-path:url(#id97)">
     <image x="1208.36" y="196.07" width="4.08" height="4.08" xlink:href="logo_Images\logo_ImgID98.png"/>
    </g>
    <g style="clip-path:url(#id98)">
     <image x="1208.36" y="196.07" width="4.08" height="4.08" xlink:href="logo_Images\logo_ImgID99.png"/>
    </g>
    <g style="clip-path:url(#id99)">
     <image x="1208.36" y="196.07" width="4.08" height="4.08" xlink:href="logo_Images\logo_ImgID100.png"/>
    </g>
    <g style="clip-path:url(#id100)">
     <image x="1208.36" y="196.07" width="4.08" height="4.08" xlink:href="logo_Images\logo_ImgID101.png"/>
    </g>
    <g style="clip-path:url(#id101)">
     <image x="1208.36" y="196.07" width="4.08" height="4.08" xlink:href="logo_Images\logo_ImgID102.png"/>
    </g>
    <g style="clip-path:url(#id102)">
     <image x="1208.36" y="112.32" width="121.38" height="207.55" xlink:href="logo_Images\logo_ImgID103.png"/>
    </g>
    <g style="clip-path:url(#id103)">
     <image x="1322.98" y="315.79" width="8.11" height="4.08" xlink:href="logo_Images\logo_ImgID104.png"/>
    </g>
    <g style="clip-path:url(#id104)">
     <image x="1241.92" y="233.39" width="160.04" height="81.39" xlink:href="logo_Images\logo_ImgID105.png"/>
    </g>
    <g style="clip-path:url(#id105)">
     <image x="1322.98" y="315.79" width="8.11" height="4.08" xlink:href="logo_Images\logo_ImgID106.png"/>
    </g>
    <g style="clip-path:url(#id106)">
     <image x="1326.74" y="315.79" width="4.35" height="4.08" xlink:href="logo_Images\logo_ImgID107.png"/>
    </g>
    <g style="clip-path:url(#id107)">
     <image x="1326.74" y="315.79" width="4.35" height="4.08" xlink:href="logo_Images\logo_ImgID108.png"/>
    </g>
    <g style="clip-path:url(#id108)">
     <image x="1326.74" y="315.79" width="4.35" height="4.08" xlink:href="logo_Images\logo_ImgID109.png"/>
    </g>
    <g style="clip-path:url(#id109)">
     <image x="1326.74" y="315.79" width="4.35" height="4.08" xlink:href="logo_Images\logo_ImgID110.png"/>
    </g>
    <g style="clip-path:url(#id110)">
     <image x="1326.74" y="315.79" width="4.35" height="4.08" xlink:href="logo_Images\logo_ImgID111.png"/>
    </g>
    <g style="clip-path:url(#id111)">
     <image x="1326.74" y="315.79" width="5.42" height="4.08" xlink:href="logo_Images\logo_ImgID112.png"/>
    </g>
    <g style="clip-path:url(#id112)">
     <image x="1328.08" y="315.79" width="4.08" height="4.08" xlink:href="logo_Images\logo_ImgID113.png"/>
    </g>
    <g style="clip-path:url(#id113)">
     <image x="1328.08" y="315.79" width="4.08" height="4.08" xlink:href="logo_Images\logo_ImgID114.png"/>
    </g>
    <g style="clip-path:url(#id114)">
     <image x="1328.08" y="315.79" width="4.08" height="4.08" xlink:href="logo_Images\logo_ImgID115.png"/>
    </g>
    <g style="clip-path:url(#id115)">
     <image x="1328.08" y="315.79" width="4.08" height="4.08" xlink:href="logo_Images\logo_ImgID116.png"/>
    </g>
    <g style="clip-path:url(#id116)">
     <image x="1328.08" y="315.79" width="4.08" height="4.08" xlink:href="logo_Images\logo_ImgID117.png"/>
    </g>
    <g style="clip-path:url(#id117)">
     <image x="1328.08" y="315.79" width="4.08" height="4.08" xlink:href="logo_Images\logo_ImgID118.png"/>
    </g>
    <g style="clip-path:url(#id118)">
     <image x="1328.08" y="315.79" width="5.42" height="4.08" xlink:href="logo_Images\logo_ImgID119.png"/>
    </g>
    <g style="clip-path:url(#id119)">
     <image x="1329.43" y="315.79" width="4.08" height="4.08" xlink:href="logo_Images\logo_ImgID120.png"/>
    </g>
    <g style="clip-path:url(#id120)">
     <image x="1329.43" y="315.79" width="4.08" height="4.08" xlink:href="logo_Images\logo_ImgID121.png"/>
    </g>
    <g style="clip-path:url(#id121)">
     <image x="1329.43" y="315.79" width="4.08" height="4.08" xlink:href="logo_Images\logo_ImgID122.png"/>
    </g>
    <g style="clip-path:url(#id122)">
     <image x="1329.43" y="315.79" width="4.08" height="4.08" xlink:href="logo_Images\logo_ImgID123.png"/>
    </g>
    <g style="clip-path:url(#id123)">
     <image x="1329.43" y="315.79" width="4.08" height="4.08" xlink:href="logo_Images\logo_ImgID124.png"/>
    </g>
    <g style="clip-path:url(#id124)">
     <image x="1329.43" y="315.79" width="4.08" height="4.08" xlink:href="logo_Images\logo_ImgID125.png"/>
    </g>
    <g style="clip-path:url(#id125)">
     <image x="1329.43" y="315.79" width="5.42" height="4.08" xlink:href="logo_Images\logo_ImgID126.png"/>
    </g>
    <g style="clip-path:url(#id126)">
     <image x="1330.77" y="315.79" width="4.08" height="4.08" xlink:href="logo_Images\logo_ImgID127.png"/>
    </g>
    <g style="clip-path:url(#id127)">
     <image x="1330.77" y="315.79" width="4.08" height="4.08" xlink:href="logo_Images\logo_ImgID128.png"/>
    </g>
    <g style="clip-path:url(#id128)">
     <image x="1330.77" y="315.79" width="4.08" height="4.08" xlink:href="logo_Images\logo_ImgID129.png"/>
    </g>
    <g style="clip-path:url(#id129)">
     <image x="1330.77" y="315.79" width="4.08" height="4.08" xlink:href="logo_Images\logo_ImgID130.png"/>
    </g>
    <g style="clip-path:url(#id130)">
     <image x="1330.77" y="315.79" width="4.08" height="4.08" xlink:href="logo_Images\logo_ImgID131.png"/>
    </g>
    <g style="clip-path:url(#id131)">
     <image x="1332.11" y="315.79" width="4.08" height="4.08" xlink:href="logo_Images\logo_ImgID132.png"/>
    </g>
    <g style="clip-path:url(#id132)">
     <image x="1332.11" y="315.79" width="4.08" height="4.08" xlink:href="logo_Images\logo_ImgID133.png"/>
    </g>
    <g style="clip-path:url(#id133)">
     <image x="1332.11" y="315.79" width="4.08" height="4.08" xlink:href="logo_Images\logo_ImgID134.png"/>
    </g>
    <g style="clip-path:url(#id134)">
     <image x="1332.11" y="287.34" width="74.95" height="32.53" xlink:href="logo_Images\logo_ImgID135.png"/>
    </g>
    <g style="clip-path:url(#id135)">
     <image x="1235.48" y="272.04" width="171.58" height="47.83" xlink:href="logo_Images\logo_ImgID136.png"/>
    </g>
    <g style="clip-path:url(#id136)">
     <image x="1252.12" y="80.11" width="196.01" height="211.58" xlink:href="logo_Images\logo_ImgID137.png"/>
    </g>
    <g style="clip-path:url(#id137)">
     <image x="1253.46" y="85.21" width="194.66" height="150.91" xlink:href="logo_Images\logo_ImgID138.png"/>
    </g>
    <g style="clip-path:url(#id138)">
     <image x="1321.64" y="230.7" width="8.11" height="6.76" xlink:href="logo_Images\logo_ImgID139.png"/>
    </g>
    <g style="clip-path:url(#id139)">
     <image x="1252.12" y="80.11" width="196.01" height="122.46" xlink:href="logo_Images\logo_ImgID140.png"/>
    </g>
    <g style="clip-path:url(#id140)">
     <image x="1252.12" y="80.11" width="77.63" height="36.29" xlink:href="logo_Images\logo_ImgID141.png"/>
    </g>
    <g style="clip-path:url(#id141)">
     <image x="1444.04" y="196.07" width="4.08" height="6.5" xlink:href="logo_Images\logo_ImgID142.png"/>
    </g>
    <g style="clip-path:url(#id142)">
     <image x="1374.52" y="122.52" width="73.87" height="77.63" xlink:href="logo_Images\logo_ImgID143.png"/>
    </g>
    <g style="clip-path:url(#id143)">
     <image x="1325.67" y="185.6" width="122.46" height="59.64" xlink:href="logo_Images\logo_ImgID144.png"/>
    </g>
    <g style="clip-path:url(#id144)">
     <image x="1324.33" y="217.82" width="117.63" height="71.19" xlink:href="logo_Images\logo_ImgID145.png"/>
    </g>
    <g style="clip-path:url(#id145)">
     <image x="1409.42" y="116.08" width="38.71" height="86.49" xlink:href="logo_Images\logo_ImgID146.png"/>
    </g>
    <g style="clip-path:url(#id146)">
     <image x="1402.98" y="190.71" width="45.15" height="100.98" xlink:href="logo_Images\logo_ImgID147.png"/>
    </g>
    <g style="clip-path:url(#id147)">
     <image x="1397.61" y="214.06" width="49.44" height="77.63" xlink:href="logo_Images\logo_ImgID148.png"/>
    </g>
   </g>
  </g>
 </g>
</svg>
