<?xml version="1.0" encoding="UTF-8"?>
<!DOCTYPE svg PUBLIC "-//W3C//DTD SVG 1.0//EN" "http://www.w3.org/TR/2001/REC-SVG-20010904/DTD/svg10.dtd">
<!-- Creator: CorelDRAW 2020 (64 Bit) -->
<svg xmlns="http://www.w3.org/2000/svg" xml:space="preserve" width="398px" height="89px" version="1.0" shape-rendering="geometricPrecision" text-rendering="geometricPrecision" image-rendering="optimizeQuality" fill-rule="evenodd" clip-rule="evenodd"
viewBox="0 0 398 89"
 xmlns:xlink="http://www.w3.org/1999/xlink"
 xmlns:xodm="http://www.corel.com/coreldraw/odm/2003">
 <g id="Camada_x0020_1">
  <metadata id="CorelCorpID_0Corel-Layer"/>
  <g id="_1453568688">
   <path fill="#FEFEFE" d="M221.31 32.69l-7.5 0 0 -5.47c0,-1.9 0.9,-2.8 2.8,-2.8 1.21,0 3.2,-0.25 4.15,0.61 0.32,0.28 0.52,0.75 0.65,1.32 0.81,-3.02 6.06,-1.93 8.58,-1.93l1.19 0 0 31.83 -6.96 0 0 6.96 -21 0c-2.48,0 -5.52,-1.94 -7.18,-3.7 -1.98,-2.1 -3.11,-4.14 -3.11,-7.13l0 -27.96 1.19 0c1.83,0 6.77,-0.52 8.07,0.95 0.21,0.23 0.36,0.54 0.47,0.9 0.27,-1.25 1.15,-1.85 2.7,-1.85 1.21,0 3.2,-0.25 4.15,0.61 1.23,1.1 0.79,4.93 0.79,6.47l0 1.19 -7.49 0 -0.01 19.68c0.49,0.44 1.02,0.97 1.49,0.97l17.02 0 0 -20.65zm-132.26 -7.53l0 -7.7 5.47 0c1.9,0 2.79,0.9 2.79,2.79l0 4.23c0.63,-0.13 1.45,-0.11 2.49,-0.12 3.77,-0.03 7.55,0.06 11.32,0.06l1.19 0 0 10.41 -14.46 0 0 28.38 -9.34 0 0.03 -23.68c-0.04,-2.05 0.32,-3.39 -1.51,-4.29 -1.76,-0.86 -9.48,-0.41 -11.79,-0.41l-1.19 0 0 -10.41 1.19 0c4.45,0 9.43,-0.28 13.81,0.74zm0.15 0.03c0.16,0.04 0.32,0.08 0.49,0.12 2.77,0.74 4.31,2.31 5.66,4.21 -0.01,-0.67 0.01,-1.33 0.07,-1.95 0.13,-1.17 0.34,-1.91 0.69,-2.38l-6.91 0zm286.02 9.64l0 28.38 -9.33 0 0.02 -23.68c-0.04,-2.05 0.33,-3.39 -1.5,-4.29 -1.76,-0.86 -9.49,-0.41 -11.79,-0.41l-1.19 0 0 -10.41 1.19 0c7.04,0 14.05,-1.28 19.47,4.22l0.08 0.08 0.55 0.82c0,-1.9 0.17,-3.8 0.92,-4.48 0.88,-0.8 2.42,-0.69 3.54,-0.7 3.77,-0.03 7.54,0.06 11.31,0.06l1.19 0 0 10.41 -14.46 0zm-257.51 10.71l-4.03 0 0 -21.12 9.34 0 0 18.71 18.2 -0.54 0 9.91 -1.19 0c-4.25,0 -12.5,-1 -16.48,1.09l0 9.62 -9.87 0 0 -1.19c0,-3.54 -0.65,-8.94 0.77,-12.13 0.76,-1.7 1.56,-2.96 3,-4.17l0.06 -0.06 0.2 -0.12zm124.83 -10.71l0.34 3.72c5.58,1.01 11.92,-0.54 17.59,0.65 9.62,2.01 10.34,7.47 10.34,15.86l0 1.19 -6.96 0 0 6.96 -21 0c-5.84,0 -10.3,-6.4 -10.3,-11.9l0 -1.19 9.78 0 0.09 1.09c0.08,0.91 0.39,2.13 1.5,2.13l17.02 0c-0.01,-1.35 -0.09,-3.18 -0.66,-3.8 -1.29,-1.44 -13.34,-0.77 -15.31,-0.77 -3.74,0.02 -6.01,-0.57 -8.72,-3.13 -4.35,-4.13 -3.7,-7.05 -3.7,-12.53l0 -1.19 6.97 0 0 -4.7c0,-1.9 0.89,-2.8 2.79,-2.8 5.66,0 19.32,-0.97 23.64,2.54 3.34,2.71 4.86,5.57 4.86,9.89l0 1.19 -9.78 0 -0.09 -1.09c-0.14,-1.67 -0.29,-2.12 -2.03,-2.12l-16.37 0zm60.93 21.42l0 6.96 -21 0c-2.48,0 -5.52,-1.94 -7.18,-3.7 -1.98,-2.1 -3.11,-4.14 -3.11,-7.13l0 -20.46 6.96 0 0 -4.7c0,-1.9 0.89,-2.8 2.79,-2.8 6.12,0 18.67,-1.08 23.54,2.58 2.33,1.75 4.96,5.23 4.96,8.25l0 21 -6.96 0zm-2.9 -2.91c0.08,-5.47 0.61,-13.08 -0.36,-18.16 -5.08,-0.97 -12.69,-0.44 -18.16,-0.36l0 17.03c0,0.59 0.9,1.49 1.49,1.49l17.03 0zm-137.39 -18.51l0 17.02c0,0.59 0.9,1.49 1.49,1.49l26.89 0 0 9.87 -27.97 0c-4.58,0 -10.29,-5.71 -10.29,-10.29l0 -21 6.96 0 0 -4.7c0,-1.9 0.9,-2.8 2.8,-2.8l28.5 0 0 10.41 -28.38 0zm158.85 0.35c-0.71,3.83 -0.55,9.71 -0.53,13.41 0.02,4.47 0.18,8.96 0.18,13.43l0 1.19 -9.88 0 0 -27.43c0,-3.94 1.95,-6.44 4.86,-8.82 4.76,-3.89 25.56,-2.54 32.21,-2.54l1.19 0 0 10.41 -1.19 0c-4.47,0 -8.96,-0.15 -13.44,-0.18 -3.7,-0.02 -9.57,-0.17 -13.4,0.53zm-179.97 -7.96c0,-1.9 0.89,-2.8 2.79,-2.8l7.08 0 0 38.79 -9.87 0 0 -35.99zm21.95 21.53l0 -9.87 21.54 0c1.9,0 2.79,0.89 2.79,2.79l0 7.08 -24.33 0zm158.5 1.61l0 -9.87 21.54 0c1.9,0 2.8,0.89 2.8,2.79l0 7.08 -24.34 0z"/>
  </g>
  <g id="_1454771776">
   <path fill="#4B4B4D" d="M240.7 27.22l0 5.89 -6.96 0c0,5.47 -0.62,7.92 3.33,11.66 2.09,1.99 3.83,2.83 7.9,2.81 16.71,-0.06 17.15,-1.34 17.15,6.94l-18.2 0c-1.72,0 -2.54,-1.48 -2.68,-3.21l-7.5 0c0,6.61 5.49,10.71 9.11,10.71l19.81 0 0 -6.96 6.96 0c0,-6.14 0.47,-12.63 -9.4,-14.7 -5.36,-1.13 -13.05,0.43 -18.45,-0.83l-0.53 -5.89 17.67 0c2.43,0 3.02,0.93 3.21,3.21l7.5 0c0,-3.89 -1.3,-6.44 -4.42,-8.97 -3.88,-3.15 -16.97,-2.27 -22.89,-2.27 -1.23,0 -1.61,0.37 -1.61,1.61z"/>
   <path fill="#4B4B4D" d="M280.86 51.85l0 -18.21c5.55,0 15.42,-0.61 20.35,0.54 1.15,4.93 0.54,14.8 0.54,20.34l-18.21 0c-1.25,0 -2.68,-1.42 -2.68,-2.67zm-0.53 -24.63l0 5.89 -6.96 0 0 19.27c0,2.95 1.28,4.72 2.79,6.32 1.22,1.3 4.03,3.32 6.31,3.32l19.81 0 0 -6.96 6.96 0 0 -19.81c0,-2.78 -2.68,-5.95 -4.48,-7.3 -4.42,-3.32 -16.09,-2.34 -22.83,-2.34 -1.23,0 -1.6,0.37 -1.6,1.61z"/>
   <path fill="#4B4B4D" d="M161.45 27.22l0 5.89 -6.96 0 0 19.81c0,3.92 5.18,9.1 9.1,9.1l26.78 0 0 -7.5 -25.7 0c-1.25,0 -2.68,-1.42 -2.68,-2.67l0 -18.21 28.38 0 0 -8.03 -27.31 0c-1.23,0 -1.61,0.37 -1.61,1.61z"/>
   <path fill="#4B4B4D" d="M194.12 52.38c0,2.95 1.28,4.72 2.78,6.32 1.23,1.3 4.04,3.32 6.32,3.32l19.81 0 0 -6.96 6.96 0 0 -29.45c-5.22,0 -7.49,-0.73 -7.49,1.61l0 27.3 -18.21 0c-1.29,0 -1.57,-0.86 -2.68,-1.6l0.01 -21.42c0.06,-6.73 1.24,-5.89 -7.5,-5.89l0 26.77z"/>
   <path fill="#4B4B4D" d="M312.99 35.78l0 26.24 7.5 0c0,-6.35 -0.67,-22.69 0.53,-27.84 5.16,-1.2 21.5,-0.54 27.85,-0.54l0 -8.03c-7.04,0 -27.19,-1.22 -31.46,2.27 -2.23,1.83 -4.42,4.05 -4.42,7.9z"/>
   <path fill="#4B4B4D" d="M374.04 33.64l-2.8 -4.17c-4.71,-4.78 -9.46,-3.86 -18.62,-3.86l0 8.03c2.4,0 10.24,-0.48 12.31,0.54 1.29,0.63 2.08,0.64 2.17,5.33l-0.02 22.51 6.96 0 0 -28.38z"/>
   <path fill="#4B4B4D" d="M96.66 33.64c-1.53,-2.2 -3.19,-6.1 -7.28,-7.18 -4.17,-1.1 -9.1,-0.85 -14.14,-0.85l0 8.03c2.41,0 10.24,-0.48 12.32,0.54 1.28,0.63 2.07,0.64 2.16,5.33l-0.02 22.51 6.96 0 0 -28.38z"/>
   <path fill="#4B4B4D" d="M143.25 27.22l0 34.8 7.49 0 0 -36.41 -5.89 0c-1.23,0 -1.6,0.37 -1.6,1.61z"/>
   <path fill="#4B4B4D" d="M121.83 44.35l-3.62 2.28c-1.26,1.06 -1.96,2.15 -2.67,3.75 -1.26,2.83 -0.67,7.9 -0.67,11.64l7.49 0 0 -9.1c3.95,-2.65 10.09,-1.61 17.67,-1.61l0 -7.49 -18.2 0.53z"/>
   <path fill="#4B4B4D" d="M165.2 47.56l21.96 0 0 -5.89c0,-1.23 -0.38,-1.6 -1.61,-1.6l-20.35 0 0 7.49z"/>
   <path fill="#4B4B4D" d="M323.7 49.17l21.96 0 0 -5.89c0,-1.23 -0.38,-1.61 -1.61,-1.61l-20.35 0 0 7.5z"/>
   <polygon fill="#4B4B4D" points="121.83,44.35 121.83,25.61 114.87,25.61 114.87,44.35 "/>
   <path fill="#4B4B4D" d="M96.66 33.64l14.46 0 0 -8.03c-3.76,0 -7.57,-0.09 -11.31,-0.06 -2.59,0.02 -2.94,-0.33 -3.2,2.15 -0.15,1.33 0.05,4.4 0.05,5.94z"/>
   <path fill="#4B4B4D" d="M374.04 33.64l14.45 0 0 -8.03c-3.75,0 -7.57,-0.09 -11.3,-0.06 -4.01,0.03 -3.15,-0.14 -3.15,8.09z"/>
   <path fill="#4B4B4D" d="M90.23 24l5.89 0 0 -3.75c0,-1.23 -0.37,-1.6 -1.6,-1.6l-4.29 0 0 5.35z"/>
   <path fill="#4B4B4D" d="M203.76 27.22l0 4.28 5.35 0c0,-6.52 0.64,-5.89 -3.75,-5.89 -1.23,0 -1.6,0.37 -1.6,1.61z"/>
   <path fill="#4B4B4D" d="M215 27.22l0 4.28 5.36 0c0,-6.52 0.63,-5.89 -3.75,-5.89 -1.24,0 -1.61,0.37 -1.61,1.61z"/>
  </g>
  <g id="_1454774464">
   <path fill="#373434" d="M51.39 24.91c0.15,0.19 0.03,0.09 0.32,0.31 0.04,0.04 0.34,0.24 0.36,0.26 3.39,2.1 5.97,4.18 8.36,7.44 4.58,6.26 6.25,14.65 4.07,22.74 -2.81,10.49 -12.96,19.76 -26.23,19.46 -21.17,-0.48 -31.77,-23.6 -22.73,-39.28 1.46,-2.53 3.23,-4.99 4.94,-6.55 1.49,-1.37 3.14,-2.62 4.96,-3.67l1.42 -0.83c0.04,-0.02 0.09,-0.07 0.12,-0.09l0.23 -0.2c-1.96,-2.92 -6.69,-4.34 -10.62,-1.77 -1.99,1.3 -5.67,5.94 -6.99,8.19 -13.87,23.61 2.74,51.53 28.47,52.16 17.82,0.44 30.58,-11.86 34.19,-26.22 2.24,-8.94 0.43,-18.03 -3.44,-24.94 -1.76,-3.14 -4.35,-6.51 -6.67,-8.32 -3.72,-2.9 -8.54,-1.54 -10.76,1.31z"/>
   <path fill="#373434" d="M50.38 26.77c-1.52,2.08 -0.49,6.14 1.13,8.1 0.4,0.49 0.74,0.61 1.16,1.08 11.1,12.25 2.26,32.11 -14.4,31.55 -16.86,-0.56 -23.85,-20.87 -12.65,-32.05 2.59,-2.58 3.95,-4.5 2.64,-9.15 -4.12,1.06 -9.14,7.07 -11.09,10.35 -2.76,4.67 -3.82,11.51 -2.44,17.55 2.33,10.2 11.51,18.89 23.54,19.19 22.1,0.55 33.9,-26.12 18.3,-42.15 -1.04,-1.07 -4.33,-3.99 -6.19,-4.47z"/>
   <path fill="#FBFBFB" d="M50.38 26.77c1.86,0.48 5.15,3.4 6.19,4.47 15.6,16.03 3.8,42.7 -18.3,42.15 -12.03,-0.3 -21.21,-8.99 -23.54,-19.19 -1.38,-6.04 -0.32,-12.88 2.44,-17.55 1.95,-3.28 6.97,-9.29 11.09,-10.35 1.31,4.65 -0.05,6.57 -2.64,9.15 -11.2,11.18 -4.21,31.49 12.65,32.05 16.66,0.56 25.5,-19.3 14.4,-31.55 -0.42,-0.47 -0.76,-0.59 -1.16,-1.08 -1.62,-1.96 -2.65,-6.02 -1.13,-8.1zm0.24 -0.86c0.63,-0.62 0.98,-0.2 1.76,0.29 1.8,1.12 3.37,2.28 4.88,3.74 16.27,15.71 5.19,45.48 -19.2,44.68 -25.6,-0.83 -34.52,-34.1 -13.41,-47.94 2.05,-1.34 2.85,-2.04 3.27,-0.95 -0.48,0.46 -3.31,1.75 -6.44,4.55 -1.61,1.44 -3.47,3.86 -4.72,6.17 -2.82,5.19 -4.05,11.38 -2.47,17.99 2.47,10.34 11.72,19.25 24.19,19.45 12.74,0.2 22.15,-8.71 24.84,-18.8 2.71,-10.2 -1.3,-21.08 -9.6,-26.95 -0.49,-0.35 -1.02,-0.73 -1.59,-1.08 -0.54,-0.33 -1.23,-0.48 -1.51,-1.15zm0.77 -1c2.22,-2.85 7.04,-4.21 10.76,-1.31 2.32,1.81 4.91,5.18 6.67,8.32 3.87,6.91 5.68,16 3.44,24.94 -3.61,14.36 -16.37,26.66 -34.19,26.22 -25.73,-0.63 -42.34,-28.55 -28.47,-52.16 1.32,-2.25 5,-6.89 6.99,-8.19 3.93,-2.57 8.66,-1.15 10.62,1.77l-0.23 0.2c-0.03,0.02 -0.08,0.07 -0.12,0.09l-1.42 0.83c-1.82,1.05 -3.47,2.3 -4.96,3.67 -1.71,1.56 -3.48,4.02 -4.94,6.55 -9.04,15.68 1.56,38.8 22.73,39.28 13.27,0.3 23.42,-8.97 26.23,-19.46 2.18,-8.09 0.51,-16.48 -4.07,-22.74 -2.39,-3.26 -4.97,-5.34 -8.36,-7.44 -0.02,-0.02 -0.32,-0.22 -0.36,-0.26 -0.29,-0.22 -0.17,-0.12 -0.32,-0.31zm-47.39 23.6c0,4.27 0.57,7.56 1.82,11.32 4.51,13.58 17.79,23.78 32.04,23.78 5.06,0 8.25,-0.39 12.8,-1.98 1.89,-0.65 4.21,-1.81 5.87,-2.75 0.88,-0.51 1.77,-1.06 2.62,-1.69 8.44,-6.32 14.63,-15.75 14.63,-28.68 0,-6.43 -2.11,-12.97 -4.56,-16.99l-2.09 -3.24c-2.11,-3.07 -5.33,-6.86 -9.57,-6.86 -4.61,0 -8.41,3.75 -8.41,7.8 0,6.09 2.67,5.41 5.81,11.02 0.83,1.47 1.61,3.87 1.91,5.89 0.37,2.53 0.18,4.81 -0.37,7.07 -3.13,12.75 -18.77,18.02 -28.83,9.82 -1.12,-0.9 -1.72,-1.36 -2.62,-2.51 -5.44,-7 -5.93,-15.02 -0.86,-22.38 1.6,-2.31 3.27,-2.88 4.5,-5.77 1.19,-2.77 0.74,-5.81 -0.82,-7.92 -2.73,-3.69 -7.18,-4.7 -11.16,-2.42 -0.83,0.47 -2.21,1.83 -2.92,2.62 -0.47,0.52 -0.88,0.84 -1.32,1.36 -4.96,5.91 -8.47,13.75 -8.47,22.51z"/>
   <path fill="#373434" d="M49.9 52.19c-5.23,0.64 -5.73,-1.37 -8.78,-3.85 -2.67,-2.17 -2.28,-3.08 -5.79,-1.74 -2.7,1.03 -6.38,4.58 -5.59,6.52 3.93,9.57 17.68,8.29 20.16,-0.93z"/>
   <path fill="#373434" d="M50.62 25.91c0.28,0.67 0.97,0.82 1.51,1.15 0.57,0.35 1.1,0.73 1.59,1.08 8.3,5.87 12.31,16.75 9.6,26.95 -2.69,10.09 -12.1,19 -24.84,18.8 -12.47,-0.2 -21.72,-9.11 -24.19,-19.45 -1.58,-6.61 -0.35,-12.8 2.47,-17.99 1.25,-2.31 3.11,-4.73 4.72,-6.17 3.13,-2.8 5.96,-4.09 6.44,-4.55 -0.42,-1.09 -1.22,-0.39 -3.27,0.95 -21.11,13.84 -12.19,47.11 13.41,47.94 24.39,0.8 35.47,-28.97 19.2,-44.68 -1.51,-1.46 -3.08,-2.62 -4.88,-3.74 -0.78,-0.49 -1.13,-0.91 -1.76,-0.29z"/>
   <path fill="#373434" d="M38.94 45.7c0.41,0.39 0.72,0.74 1.22,1.13 2.4,1.82 4.6,5.13 7.97,5.06 0.68,-0.02 1.67,-0.12 1.99,-0.56 0.51,-0.69 1.18,-7.3 -4.02,-8.36 -3.62,-0.74 -5.09,1.6 -7.16,2.73z"/>
   <path fill="#FBFBFB" d="M49.9 52.19c-2.48,9.22 -16.23,10.5 -20.16,0.93 -0.79,-1.94 2.89,-5.49 5.59,-6.52 3.51,-1.34 3.12,-0.43 5.79,1.74 3.05,2.48 3.55,4.49 8.78,3.85zm-10.96 -6.49c2.07,-1.13 3.54,-3.47 7.16,-2.73 5.2,1.06 4.53,7.67 4.02,8.36 -0.32,0.44 -1.31,0.54 -1.99,0.56 -3.37,0.07 -5.57,-3.24 -7.97,-5.06 -0.5,-0.39 -0.81,-0.74 -1.22,-1.13zm-9.63 5.84c-0.96,-2.77 -0.24,-5.61 1.62,-6.87 1.92,-1.31 5.36,-0.4 6.64,0.84 -4.6,0.88 -6.38,2.86 -8.26,6.03zm9.17 -6.31l-2.75 -1.36c-3.34,-1.25 -7.31,0.41 -7.31,4.64 0,5.25 2.45,8.95 6.77,10.88 7.07,3.16 15.81,-1.66 15.81,-10.88 0,-3.22 -2.72,-6.15 -5.34,-6.15 -5.63,0 -5.39,2.87 -7.18,2.87z"/>
   <path fill="#FBFBFB" d="M26.88 14.45l2.58 -1.3c0.48,0.34 0.69,0.51 1.1,0.81l1.16 0.9c-1.41,0.97 -3.82,0.8 -4.84,-0.41zm5.44 -0.07c-0.52,-0.24 -1.61,-0.99 -1.71,-1.03 1.21,-0.17 1.9,-0.23 2.85,-0.66 -0.26,0.9 -0.58,1.22 -1.14,1.69zm-6.04 -5.58c0.42,0.64 0.72,1.57 1.09,2.19 0.48,0.79 0.98,1.08 1.59,1.74 -0.78,0.46 -1.67,1.06 -2.82,1.17 -0.72,-1.85 -1.31,-3.23 0.14,-5.1zm3.94 3.91l0.62 -0.78c0.31,-0.31 0.42,-0.42 0.66,-0.73l2.23 0.28c-0.21,1.24 -2.48,1.33 -3.51,1.23zm2.72 -3.65l0.7 1.85 -1.75 -0.15 1.05 -1.7zm-5.83 -1.21c0.67,-0.23 1.28,-0.54 2.17,-0.66 0.24,2.27 0.67,2.5 1.67,3.77 -0.4,0.68 -0.63,0.85 -1.34,1.36 -0.98,-0.88 -2.33,-2.6 -2.5,-4.47zm5.37 0.64c-0.23,0.75 -0.58,1.53 -1.16,1.98 -0.94,-0.56 -1.34,-1.73 -1.5,-3.28 1.37,0.17 2.06,0.5 2.66,1.3zm-3.24 7.8c1.68,0 2.73,-0.35 3.86,-1.47 4.62,-4.62 -2.48,-11.64 -7.2,-6.8 -2.95,3.04 -0.51,8.27 3.34,8.27z"/>
   <path fill="#FBFBFB" d="M46.8 14.45l2.55 -1.34c0.63,0.39 1.53,1.07 2.38,1.68 -1.54,1.09 -3.72,0.92 -4.93,-0.34zm5.43 -0.09c-0.74,-0.3 -1.18,-0.6 -1.65,-1.1 1.1,0 2.02,-0.23 2.8,-0.58 -0.24,0.89 -0.58,1.27 -1.15,1.68zm-6.16 -0.5c-0.31,-0.79 -0.78,-1.58 -0.74,-2.69 0.04,-0.86 0.28,-1.85 0.95,-2.27 1.16,2.1 0.9,2.3 2.61,3.85 -0.84,0.41 -1.65,1.05 -2.82,1.11zm4.12 -1.26c0.02,-0.04 0.06,-0.1 0.08,-0.12 0.51,-0.68 0.6,-0.49 1.13,-1.3 1.08,0.28 1.82,0.15 2.26,0.39 -0.23,0.69 -0.72,0.77 -1.47,0.99 -0.69,0.2 -1.31,0.3 -2,0.04zm2.71 -3.6c0.42,0.53 0.68,1.08 0.65,1.91l-1.73 -0.18 1.08 -1.73zm-5.86 -1.15c0.66,-0.25 1.27,-0.55 2.17,-0.67 0.31,2.45 0.69,2.35 1.67,3.78 -0.46,0.53 -0.75,0.96 -1.32,1.28 -1.01,-0.6 -2.37,-2.9 -2.52,-4.39zm5.37 0.64c-0.28,0.89 -0.66,1.36 -1.16,1.97 -0.92,-0.64 -1.33,-1.67 -1.5,-3.28 1.33,0.15 2.13,0.49 2.66,1.31zm-7.78 2.26c0,1.59 0.04,2.83 1.28,4.06 3.44,3.44 8.58,0.53 8.58,-3.44 0,-2.46 -2.1,-4.93 -4.52,-4.93l-1.03 0c-2.08,0 -4.31,2.18 -4.31,4.31z"/>
   <path fill="#373434" d="M29.31 51.54c1.88,-3.17 3.66,-5.15 8.26,-6.03 -1.28,-1.24 -4.72,-2.15 -6.64,-0.84 -1.86,1.26 -2.58,4.1 -1.62,6.87z"/>
   <path fill="#373434" d="M27.11 7.85c0.17,1.87 1.52,3.59 2.5,4.47 0.71,-0.51 0.94,-0.68 1.34,-1.36 -1,-1.27 -1.43,-1.5 -1.67,-3.77 -0.89,0.12 -1.5,0.43 -2.17,0.66z"/>
   <path fill="#373434" d="M47.04 7.85c0.15,1.49 1.51,3.79 2.52,4.39 0.57,-0.32 0.86,-0.75 1.32,-1.28 -0.98,-1.43 -1.36,-1.33 -1.67,-3.78 -0.9,0.12 -1.51,0.42 -2.17,0.67z"/>
   <path fill="#373434" d="M46.07 13.86c1.17,-0.06 1.98,-0.7 2.82,-1.11 -1.71,-1.55 -1.45,-1.75 -2.61,-3.85 -0.67,0.42 -0.91,1.41 -0.95,2.27 -0.04,1.11 0.43,1.9 0.74,2.69z"/>
   <path fill="#373434" d="M26.28 8.8c-1.45,1.87 -0.86,3.25 -0.14,5.1 1.15,-0.11 2.04,-0.71 2.82,-1.17 -0.61,-0.66 -1.11,-0.95 -1.59,-1.74 -0.37,-0.62 -0.67,-1.55 -1.09,-2.19z"/>
   <path fill="#373434" d="M46.8 14.45c1.21,1.26 3.39,1.43 4.93,0.34 -0.85,-0.61 -1.75,-1.29 -2.38,-1.68l-2.55 1.34z"/>
   <path fill="#373434" d="M26.88 14.45c1.02,1.21 3.43,1.38 4.84,0.41l-1.16 -0.9c-0.41,-0.3 -0.62,-0.47 -1.1,-0.81l-2.58 1.3z"/>
   <path fill="#373434" d="M31.32 10.47c0.58,-0.45 0.93,-1.23 1.16,-1.98 -0.6,-0.8 -1.29,-1.13 -2.66,-1.3 0.16,1.55 0.56,2.72 1.5,3.28z"/>
   <path fill="#373434" d="M51.25 10.46c0.5,-0.61 0.88,-1.08 1.16,-1.97 -0.53,-0.82 -1.33,-1.16 -2.66,-1.31 0.17,1.61 0.58,2.64 1.5,3.28z"/>
   <path fill="#373434" d="M30.22 12.71c1.03,0.1 3.3,0.01 3.51,-1.23l-2.23 -0.28c-0.24,0.31 -0.35,0.42 -0.66,0.73l-0.62 0.78z"/>
   <path fill="#373434" d="M50.19 12.6c0.69,0.26 1.31,0.16 2,-0.04 0.75,-0.22 1.24,-0.3 1.47,-0.99 -0.44,-0.24 -1.18,-0.11 -2.26,-0.39 -0.53,0.81 -0.62,0.62 -1.13,1.3 -0.02,0.02 -0.06,0.08 -0.08,0.12z"/>
   <path fill="#373434" d="M52.23 14.36c0.57,-0.41 0.91,-0.79 1.15,-1.68 -0.78,0.35 -1.7,0.58 -2.8,0.58 0.47,0.5 0.91,0.8 1.65,1.1z"/>
   <path fill="#373434" d="M32.32 14.38c0.56,-0.47 0.88,-0.79 1.14,-1.69 -0.95,0.43 -1.64,0.49 -2.85,0.66 0.1,0.04 1.19,0.79 1.71,1.03z"/>
   <path fill="#373434" d="M51.82 10.73l1.73 0.18c0.03,-0.83 -0.23,-1.38 -0.65,-1.91l-1.08 1.73z"/>
   <polygon fill="#373434" points="31.89,10.76 33.64,10.91 32.94,9.06 "/>
  </g>
 </g>
</svg>
