<?xml version="1.0" encoding="UTF-8"?>
<!DOCTYPE svg PUBLIC "-//W3C//DTD SVG 1.1//EN" "http://www.w3.org/Graphics/SVG/1.1/DTD/svg11.dtd">
<!-- Creator: CorelDRAW 2020 (64 Bit) -->
<svg xmlns="http://www.w3.org/2000/svg" xml:space="preserve" width="84.6666mm" height="25.4mm" version="1.1" style="shape-rendering:geometricPrecision; text-rendering:geometricPrecision; image-rendering:optimizeQuality; fill-rule:evenodd; clip-rule:evenodd"
viewBox="0 0 8466.66 2540"
 xmlns:xlink="http://www.w3.org/1999/xlink"
 xmlns:xodm="http://www.corel.com/coreldraw/odm/2003">
 <defs>
  <style type="text/css">
   <![CDATA[
    .fil0 {fill:black}
   ]]>
  </style>
 </defs>
 <g id="Camada_x0020_1">
  <metadata id="CorelCorpID_0Corel-Layer"/>
  <g id="_1062119472">
   <path class="fil0" d="M4469.19 890.36c-11.1,47.68 4.29,147.03 -3.53,183.99 -51.53,0 -141.53,-6.36 -183.99,3.53 -9.49,40.75 -0.66,98.45 0.06,130.85 1.27,56.06 4.09,28.21 13.08,61.22l38.75 74.48c24.51,30.55 23.42,31.92 55.36,57.85l33.11 23.52c29.39,19.07 45.98,20.75 66.08,29.43 48.86,21.11 351.91,12.23 441.05,11.84 111.24,-0.48 110.46,66.56 107.95,146.05 -0.45,14.24 5.72,-1.44 -1.81,30.87 -53.32,0 -463.68,4.06 -495.93,-2.96 -16.06,-3.5 -26.74,-11.31 -36.91,-23.23 -19.84,-23.25 -13.57,-18.84 -20.4,-43.29 -3.01,-10.76 -8.12,-22.51 -19.94,-22.51 -41.56,0 -146.52,-4.37 -180.45,3.54 -4.97,21.31 -2.39,58.9 8.31,83.68 5.23,12.11 4.23,16.31 8.44,26.93l11.1 20.76c22.91,45.67 57.27,81.22 98.51,110.24 7.68,5.41 13.24,9.17 21.49,13.89 24.41,14.01 75.15,34.63 103.36,34.63 73.6,0 478.25,5.39 516.57,-3.55 1.02,-12.25 1.37,-7.51 1.02,-16.1 -1.6,-38.17 -3.48,-142.13 2.52,-167.87l180.44 0c6.16,-26.39 6.69,-135.77 0.53,-163.29l-24.25 -64.21c-0.44,-1.01 -1.55,-4.06 -2,-5.06l-15.59 -26.86c-8.91,-15.55 -29.02,-36.63 -42.17,-49.84l-7.37 -6.78c-16.47,-14.98 -65.82,-49.52 -83.4,-54.59 -51.4,-14.85 -45.91,-18.4 -115.86,-22.13 -84.19,-4.49 -357.98,7.11 -407.79,-6.17 -68.1,-18.15 -55.72,-101.67 -55.72,-163.64 0,-8.16 2.46,-10.62 10.62,-10.62l445.8 0c36.68,0 78.7,16.61 93.59,51.47 3.42,8 6.88,31.36 9.01,40.53 34.24,7.98 145.13,3.53 187.54,3.53 14.76,0 10.61,-12.28 10.61,-42.46 0,-20.13 -14.62,-64.17 -23.2,-79.41 -5.46,-9.68 -5.95,-14.41 -11.43,-23.96 -19.26,-33.57 -51.64,-71.38 -83.05,-93.85 -61.32,-43.85 -114.56,-53.98 -193.68,-53.98 -55.21,0 -435.22,-4.71 -456.43,3.53z"/>
   <path class="fil0" d="M5527.1 1555.54l0 -459.96c0,-8.16 2.47,-10.62 10.62,-10.62l445.81 0c46.03,0 92,23.41 98.16,71.67 9.31,72.96 5.27,375.39 2.72,456.49 -0.45,14.24 5.72,-1.44 -1.81,30.87 -57.09,0 -444.01,3.29 -480.77,-0.42 -25.17,-2.54 -40.85,-12.16 -53.63,-27.76 -13.68,-16.72 -21.1,-30.92 -21.1,-60.27zm-10.61 -665.18c-11.1,47.68 4.29,147.03 -3.54,183.99 -51.54,0 -141.52,-6.36 -183.98,3.53 -9.24,39.65 -4.03,422.35 -0.01,505.97 2.47,51.46 -4,18.19 11.54,62.76 5.08,14.58 1.01,12.51 8.92,26.46 29.12,51.28 44.63,85.8 106.57,126.95l37.24 19.37c25.29,11.38 56.69,26.28 86.94,26.28 73.61,0 478.26,5.39 516.58,-3.55l0 -88.45c0,-31.36 -2.46,-69.79 3.54,-95.52l180.44 0c8.92,-38.3 3.54,-439.77 3.54,-513.04 0,-13.91 -0.84,-20.5 -3.66,-31.71l-30.68 -75.47c-31.84,-49.68 -36.81,-57.22 -82.83,-94.08 -4.2,-3.37 -5.52,-4.89 -9.88,-7.81l-11.18 -6.52c-11.41,-7.19 -8.48,-5.85 -22.98,-12.39 -61.3,-27.65 -68.71,-30.3 -150.14,-30.3 -55.21,0 -435.22,-4.71 -456.43,3.53z"/>
   <path class="fil0" d="M2374.59 890.36c-11.1,47.68 4.29,147.03 -3.53,183.99 -51.54,0 -141.52,-6.36 -183.99,3.53 -9.23,39.65 -4.02,422.35 0,505.97 0.59,12.3 -0.91,21.85 1.29,34.08 2.8,15.6 6.16,16.95 10.25,28.68 6.39,18.34 4.63,23.35 21.36,49.4 22,34.21 49.71,73.64 84.94,95.51 35.99,22.35 86.75,54.15 133.37,54.15l693.49 0c8.14,0 10.61,-2.47 10.61,-10.63l0 -176.89c0,-22.95 -68.23,-14.16 -91.99,-14.16l-537.8 0c-40.6,0 -67.55,3.93 -91.67,-14.48 -24.94,-19.04 -35.72,-40.55 -35.72,-73.97l0 -459.96c0,-15.42 18.97,-10.91 35.33,-10.69 224.24,3.04 457.56,-2.03 682.96,0.1 52.52,0.5 38.89,23.58 38.89,-187.55 0,-8.15 -2.47,-10.61 -10.61,-10.61 -81.98,0 -734.39,-5.31 -757.18,3.53z"/>
   <path class="fil0" d="M3230.83 908.05l4.83 709.88c2.79,15.6 6.15,16.95 10.24,28.68 7.46,21.4 5.16,22.16 20.55,50.22 29.33,53.44 76.73,97.6 132.19,122.56 25.28,11.38 56.69,26.28 86.95,26.28 73.6,0 478.24,5.39 516.57,-3.55 3.62,-43.55 -5.8,-143.9 3.53,-183.97l180.45 0c1.85,-7.95 3.54,-8.15 3.54,-17.69l0 -743.02c0,-8.15 -2.47,-10.61 -10.62,-10.61l-173.37 0c-7.83,0 -13.2,5.95 -15.57,12.76 -2.35,6.79 9.16,695.98 -2.12,744.4 -53.32,0 -463.67,4.06 -495.92,-2.96 -16.07,-3.5 -26.75,-11.31 -36.92,-23.23 -12.28,-14.38 -12.75,-13.48 -16.5,-25.96 -6.87,-22.87 -6.26,-32.45 -6.16,-57.52l0.01 -580.28c0.03,-85.13 22.85,-67.21 -187.53,-67.21 -10.87,0 -14.15,10.36 -14.15,21.22z"/>
   <path class="fil0" d="M6372.73 1215.87l0 615.64c0,8.28 5.87,14.16 14.14,14.16l173.38 0c18.46,0 14.21,-40.05 14.16,-74.3l-0.06 -580.31c-0.19,-30.77 2.01,-54.82 22.25,-76.83l27.27 -18.72c48.85,-17.41 80.17,-10.55 134.52,-10.55l534.29 0.03c52.52,0.5 38.89,23.58 38.89,-187.55 0,-8.15 -2.47,-10.61 -10.61,-10.61l-629.8 0c-24.1,0 -89.4,1.58 -107.23,9.53 -24.54,10.93 -19.92,6.08 -31.69,10.75l-25.89 13.04c-37.28,17.04 -87.47,66.41 -109.59,102.7 -40.96,67.19 -44.03,110.65 -44.03,193.02z"/>
   <path class="fil0" d="M7420.03 908.05c0,199.22 -13.13,177.11 49.52,176.92 65.9,-0.21 233.79,-8.22 282.2,11.47 13.11,5.33 31.91,22.46 38.35,35.94 17.32,36.24 12.05,85.41 12.05,136.56l0 516.58c-0.02,76.38 -29.26,60.15 183.98,60.15 8.29,0 14.15,-5.88 14.15,-14.16l-3.59 -689.88c-0.28,-39.66 -5.24,-37.1 -15.43,-65.95 -4.37,-12.37 -6.82,-16.35 -11.03,-27.88l-11.13 -20.72c-17.89,-25.09 -13.5,-22.9 -38.73,-49.73 -18.45,-19.63 -45.75,-42.21 -68.93,-54.91 -59.92,-32.86 -98.29,-35.61 -169.59,-35.61l-247.67 0c-10.87,0 -14.15,10.36 -14.15,21.22z"/>
   <path class="fil0" d="M88.94 908.05c0,199.22 -13.11,177.11 49.53,176.92 65.9,-0.21 233.78,-8.22 282.2,11.47 62.9,25.59 50.39,116.21 50.39,172.5l0 516.58c-0.02,76.38 -29.25,60.15 183.99,60.15 8.28,0 14.15,-5.88 14.15,-14.16l-3.59 -689.88c-0.3,-43.09 -12.54,-55.71 -26.47,-93.83l-71.58 -91.19c-22.4,-20.3 -48.79,-35.97 -75.44,-48.4 -6.61,-3.07 -48.43,-17.67 -63.43,-17.93 -28.09,-0.48 -46.75,-3.45 -77.93,-3.45l-247.66 0c-10.88,0 -14.16,10.36 -14.16,21.22z"/>
   <path class="fil0" d="M1900.48 890.36c-1.84,7.93 -3.53,8.14 -3.53,17.69l0 923.46c0,8.28 5.87,14.16 14.15,14.16l173.37 0c8.15,0 10.61,-2.47 10.61,-10.63l0 -937.6c0,-8.15 -2.46,-10.61 -10.61,-10.61 -29.43,0 -165.63,-3.59 -183.99,3.53z"/>
   <path class="fil0" d="M1136.24 1689.99l0 141.52c0,8.28 5.87,14.16 14.15,14.16l173.37 0c8.8,0 10.75,-4.47 12.96,-12.05l0.26 -19.12c0.06,-14.36 0.95,-31.24 0.94,-46.67 -0.04,-33.03 0.16,-66.08 -0.02,-99.09 -0.22,-35.72 3.82,-58.88 22,-77.07 22.91,-22.93 38.23,-29.42 69.91,-29.15l346.95 0.2c17.12,0.24 35.27,2.73 35.27,-14.26l0 -173.37c0,-8.29 -5.87,-14.15 -14.16,-14.15 -63.77,0 -382.76,-6.12 -419.55,5.03 -36.9,11.17 -22.41,-2.4 -58.38,15.91 -9.91,5.04 -15.55,7.16 -26.03,12.9 -6.78,3.72 -6.15,2.79 -12.12,5.56 -0.76,0.35 -1.72,0.71 -2.47,1.08 -0.72,0.35 -1.66,0.79 -2.35,1.18l-8.4 5.75c-38.65,27.45 -76.86,63.59 -98.39,106.83l-4.23 9.93c-21.81,42.6 -26.7,69.9 -29.73,125.94 -0.66,12.16 0.02,26.52 0.02,38.94z"/>
   <path class="fil0" d="M6662.85 1307.86c-7.98,34.24 -3.53,145.13 -3.53,187.52 0,8.16 2.47,10.61 10.61,10.61l555.5 0c8.28,0 14.15,-5.86 14.15,-14.14l0 -162.75c0,-16.53 -8.25,-24.77 -24.77,-24.77 -64.15,0 -529.71,-5.1 -551.96,3.53z"/>
   <path class="fil0" d="M2470.13 1307.86l0 113.23c0,16.32 -9.78,45.99 14.15,45.99l541.34 0c11.93,0 24.77,-6.26 24.77,-17.69l0 -159.22c0,-16.51 -8.26,-24.77 -24.77,-24.77l-541.34 0c-22.55,0 -14.15,28.75 -14.15,42.46z"/>
   <path class="fil0" d="M1136.24 908.05l0 442.27c0,31.87 20.4,21.23 38.91,21.23l121.25 1.11c23.65,-2.95 37.97,4.26 37.97,-22.34l0 -449.34c0,-8.29 -5.86,-14.15 -14.14,-14.15l-169.84 0c-10.87,0 -14.15,10.36 -14.15,21.22z"/>
   <path class="fil0" d="M658.58 900.98l0 155.67c0,12.62 1.74,28.31 14.16,28.31l364.43 0c8.15,0 10.61,-2.47 10.61,-10.61l0 -176.91c0,-8.15 -2.46,-10.61 -10.61,-10.61l-364.43 0c-8.29,0 -14.16,5.86 -14.16,14.15z"/>
   <path class="fil0" d="M7989.67 900.98l0 155.67c0,12.62 1.73,28.31 14.16,28.31l364.42 0c8.16,0 10.62,-2.47 10.62,-10.61l0 -176.91c0,-8.15 -2.46,-10.61 -10.62,-10.61l-364.42 0c-8.29,0 -14.16,5.86 -14.16,14.15z"/>
   <path class="fil0" d="M492.29 720.53c0,34.59 -3.9,84.82 3.54,116.75 27.25,6.36 117.82,6.36 145.06,0 0,-45.2 5.57,-102.45 -3.53,-141.51 -52.67,-4.39 -51.21,-3.32 -99.93,-1.25 -7.16,0.32 -45.14,-9.89 -45.14,26.01z"/>
   <path class="fil0" d="M3489.12 900.98l0 116.76c0,8.28 5.87,14.15 14.15,14.15l116.77 0c27.24,0 17.69,-75.02 17.69,-116.76 0,-12.19 -2.62,-13.7 -3.55,-24.77 -32.55,-7.58 -94.62,-3.53 -130.91,-3.53 -8.28,0 -14.15,5.86 -14.15,14.15z"/>
   <path class="fil0" d="M3786.32 900.98l0 109.68c0,10.86 3.28,21.23 14.16,21.23l120.3 0c10.87,0 14.15,-10.37 14.15,-21.23l0 -109.68c0,-8.29 -5.87,-14.15 -14.15,-14.15l-120.3 0c-8.28,0 -14.16,5.86 -14.16,14.15z"/>
  </g>
 </g>
</svg>
