<?xml version="1.0" encoding="UTF-8"?>
<!DOCTYPE svg PUBLIC "-//W3C//DTD SVG 1.0//EN" "http://www.w3.org/TR/2001/REC-SVG-20010904/DTD/svg10.dtd">
<!-- Creator: CorelDRAW 2020 (64 Bit) -->
<svg xmlns="http://www.w3.org/2000/svg" xml:space="preserve" width="1200px" height="630px" version="1.0" shape-rendering="geometricPrecision" text-rendering="geometricPrecision" image-rendering="optimizeQuality" fill-rule="evenodd" clip-rule="evenodd"
viewBox="0 0 1200 630"
 xmlns:xlink="http://www.w3.org/1999/xlink"
 xmlns:xodm="http://www.corel.com/coreldraw/odm/2003">
 <g id="Camada_x0020_1">
  <metadata id="CorelCorpID_0Corel-Layer"/>
  <g id="_1605696640">
   <path fill="#373435" stroke="#E6E7E8" stroke-width="2.36" stroke-miterlimit="22.9256" d="M12.1 324.53c0,-9.12 1.97,-17.99 3.62,-26.91 1.49,-8 4.72,-15.32 7.72,-22.83 0.96,-2.41 2.1,-4.63 3.26,-6.98l7.5 -12.81c3.76,-6.18 8.34,-12.01 13.41,-17.15l4.92 -5.26c16.92,-16.28 41.17,-12.13 50.76,9.48 2.91,6.55 3,16.55 0.46,23.24 -2.24,5.91 -6.22,10.56 -10.64,14.97 -7.01,6.99 -12.54,15.82 -15.59,25.26 -4.5,13.92 -5.5,29.65 -1.18,43.74 1.85,6.04 4.4,11.32 7.4,16.85 1.91,3.5 4.22,6.34 6.77,9.35l1.86 2.19c6.59,7.17 14.53,12.56 23.47,16.35l9.14 3.01c2.41,0.6 4.27,0.99 6.76,1.28 2.36,0.28 4.16,0.93 6.64,0.93 6.36,0 12.91,-0.58 19.09,-2.11 5.98,-1.49 11.88,-3.9 17.21,-6.97l9.48 -6.72c0.73,-0.62 1.38,-1.28 2.1,-1.88l9.52 -10.72c2.38,-3.19 4.27,-6.53 6.11,-10.03 3.24,-6.16 7.14,-18.2 7.14,-25.11 0,-5.76 0.32,-11.8 -0.72,-17.48 -1.9,-10.35 -5.55,-20.65 -11.47,-29.38l-10.67 -12.65c-7.56,-8.52 -8.27,-23.48 -3.43,-33.48 7.98,-16.48 28.9,-22.86 44.29,-12.53 4.03,2.71 6.9,6.25 10.24,9.68 3.29,3.39 5.98,7.31 8.75,11.13 4.31,5.95 7.85,12.32 11.15,18.88 5.87,11.67 9.93,24.57 11.91,37.48 1.31,8.48 1.67,16.74 1.67,25.3 0,29.13 -11.87,60.68 -30.71,82.84 -3.04,3.59 -6.05,7.18 -9.61,10.27 -0.73,0.63 -1.38,1.28 -2.06,1.96 -6.74,6.8 -14.88,12.9 -23.31,17.46 -3.43,1.86 -6.74,3.87 -10.35,5.47l-24.19 8.32c-4.54,1.24 -9.25,1.47 -13.89,2.45l-14.72 1.09 -15.34 -1c-2.33,-0.5 -4.76,-0.51 -7.07,-1.06 -5.52,-1.32 -11.19,-2.53 -16.6,-4.18 -5.77,-1.77 -11.27,-4.22 -16.72,-6.76 -8.07,-3.76 -15.65,-8.53 -22.6,-14.08 -1.54,-1.24 -3.1,-2.26 -4.53,-3.64l-8.13 -7.62c-5.46,-5.46 -10.45,-11.37 -14.91,-17.7l-6.25 -10.02c-2.89,-5.18 -5.75,-10.54 -7.85,-16.09 -2.66,-7.02 -4.77,-14.11 -6.58,-21.39 -2.78,-11.1 -3.23,-23.03 -3.23,-34.44zm323.11 -41.8l-0.01 10.34c0,2.84 0.01,7.4 1.6,9.77 1.12,1.66 4.12,4.7 6.03,5.27 3.11,0.93 7,0.79 10.24,0.79 11.18,-0.01 22.33,-0.27 33.53,-0.16 5.69,0.05 29,0.12 33.42,2.41l4.52 1.55c2.42,0.83 7.77,4.41 9.91,6.08l7.18 7.05c0.05,0.06 0.1,0.12 0.16,0.17 0.17,0.09 0.46,0.54 0.58,0.7l2.33 3.32c2.32,4.41 4.72,9 6.1,13.81 1.66,5.83 0.64,16.96 0.64,23.34 0,1.59 -0.51,3.45 -2.44,3.45l-25.98 0 0 25.98c0,1.41 -1.03,2.44 -2.44,2.44l-78.67 0c-3.85,0 -8.77,-2.05 -12.14,-3.83 -0.61,-0.32 -1.17,-0.46 -1.78,-0.72 -4.36,-1.87 -8.4,-5.44 -11.79,-8.8l-7.67 -10.19c-0.77,-1.48 -1.46,-2.89 -1.96,-4.49 -0.3,-0.96 -0.58,-1.87 -0.95,-2.81 -1.84,-4.67 -1.44,-3.59 -1.68,-8.63 -0.07,-1.6 -0.51,-2.93 -0.51,-4.59 0,-0.14 0.07,-0.26 0.18,-0.33 1.41,-0.95 1.86,-1.6 3.78,-1.6l22.84 0c7.03,0 4.06,4.96 7.48,9.24 3,3.75 5.31,4.98 10.29,4.98l70.55 0c0.94,0 1.12,-0.18 1.12,-1.12 0,-5.67 1.21,-15.41 -2.42,-20.05l-2.2 -2.32c-1.49,-1.35 -2.58,-1.34 -4.39,-1.98 -4.11,-1.46 -5.56,-1.13 -9.88,-1.13 -8.96,0 -17.94,0.17 -26.9,0.22 -5.97,0.04 -11.95,0.06 -17.93,0 -3.29,-0.04 -7.61,0.05 -10.84,-0.44 -1.99,-0.3 -3.8,-0.18 -5.78,-0.27 -0.04,0 -0.07,0 -0.11,-0.02l-8.4 -2.76c-0.03,-0.01 -0.05,-0.01 -0.07,-0.03 -0.72,-0.38 -1.12,-0.72 -1.92,-1.08 -0.65,-0.29 -1.16,-0.42 -1.83,-0.79l-3.4 -2.16c-1.16,-0.64 -2.35,-1.47 -3.36,-2.36l-5.18 -5.03c-0.15,-0.18 -0.29,-0.38 -0.47,-0.59l-4.71 -6.47c-1,-1.5 -1.3,-1.92 -2.06,-3.61 -3.32,-7.36 -3.95,-10.02 -4.39,-18.15l0 -14.73c0,-0.29 0.06,-0.57 0.19,-0.83 1.37,-2.74 11.11,-1.6 13.92,-1.6 18.67,0 14.82,3.35 14.82,-15.33 0,-2.61 -1.4,-13.6 2.44,-13.6l69.54 0c3.58,0 7.1,0.47 10.67,0.5 3.57,0.02 5.31,1.24 8.5,2.3 2.55,0.84 4.64,2.51 6.95,3.81 0.69,0.39 1.38,0.57 2.06,1.01 0.04,0.02 0.06,0.04 0.09,0.07l13.62 15.31c0.02,0.03 0.04,0.05 0.05,0.08 0.68,1.23 1.1,2.57 1.78,3.81 0.84,1.54 0.88,2.25 1.33,3.86 0.9,3.2 2.05,5.23 2.05,8.73 0,2.93 0.79,6.5 -3.45,6.5l-23.35 0c-6.16,0 -4.09,-4.13 -6.12,-7.59l-1.67 -2.37c-0.15,-0.19 -0.33,-0.5 -0.49,-0.67 -0.21,-0.19 -0.47,-0.36 -0.69,-0.55 -2.88,-2.41 -6.59,-3.54 -10.32,-3.54 -11.54,0 -23.11,-0.19 -34.65,-0.24 -7.66,-0.02 -15.33,-0.03 -22.99,0.09 -2.77,0.05 -5.55,0.11 -8.32,0.24 -1.23,0.06 -2.92,0.1 -4.18,0.34zm631.91 40.45c1.23,0.23 2.96,0.26 4.14,0.32 2.84,0.12 5.7,0.18 8.54,0.22 7.94,0.12 15.88,0.11 23.82,0.09 11.89,-0.02 23.79,-0.19 35.67,-0.19 0.16,0 0.3,0.08 0.37,0.23 0.72,1.5 1.05,2.54 1.05,4.23 0,6.71 0.24,13.43 0.2,20.12 -0.01,1.7 0.13,5.6 -1.45,6.73 -1.19,0.85 -4.3,0.47 -5.75,0.46 -10.74,-0.06 -21.47,-0.18 -32.2,-0.21 -7.45,-0.02 -14.91,-0.02 -22.36,0.1 -2.69,0.05 -5.38,0.1 -8.06,0.23 -1.15,0.05 -2.78,0.09 -3.97,0.31l0 42.3c0,0.2 -0.13,0.36 -0.32,0.4 -1.1,0.26 -1.37,0.52 -2.63,0.52 -7.17,0 -14.36,0.2 -21.52,0.16 -1.41,-0.01 -5.59,0.18 -6.42,-1.28 -0.52,-0.9 0.13,-4.14 0.13,-5.38l0 -105.57c0,-2.13 -1.2,-5.93 1.36,-6.89 0.83,-0.31 6.82,-0.11 8.18,-0.11 4.8,0 9.59,0.18 14.37,0.17 0.9,0 3.75,0.08 4.36,-0.75 0.5,-0.69 0.15,-4.17 0.15,-5.1l0 -16.76c0,-2.12 -0.82,-6.49 2.44,-6.49 27.05,0 54.22,-0.65 81.24,0.49 0.05,0 0.08,0.01 0.12,0.02l8.99 3.19c0.03,0.02 0.05,0.03 0.08,0.05 1.09,0.7 0.7,0.46 1.98,0.95 3.02,1.16 6.78,4.06 9.18,6.23l1.4 1.16c0.09,0.08 0.18,0.17 0.27,0.26 0.51,0.49 0.99,1.08 1.47,1.62 0.72,0.8 1.37,1.46 2.13,2.2 0.63,0.62 1.53,2.12 2.02,2.85 1.56,2.29 2.61,4.26 3.9,6.65 0.19,0.35 0.4,0.7 0.61,1.04 0.68,1.03 0.74,0.83 1.07,2.15 0.23,0.91 0.19,1.6 0.49,2.52 0.26,0.77 0.55,1.28 0.92,1.98 0.83,1.57 0.77,3.9 0.76,5.62l0.51 106.58c0.01,1.42 -1.02,2.44 -2.43,2.44 -7.29,0 -14.58,0.25 -21.85,0.25 -1.72,-0.01 -5.96,0.19 -7.09,-1.43 -0.83,-1.18 -0.41,-4.38 -0.4,-5.83 0.08,-16.05 0.2,-32.1 0.23,-48.16 0.01,-10.64 0.01,-21.29 -0.12,-31.93 -0.05,-4.06 -0.11,-8.13 -0.23,-12.19 -0.08,-2.53 -0.15,-5.14 -0.4,-7.65 -0.27,-2.7 -2.43,-5.12 -4.54,-6.64 -2.8,-2.01 -6.31,-3.16 -9.76,-3.16l-69.03 0c-2.69,0 -1.62,6.98 -1.62,8.73l0 32.15zm-383.21 47.44l0 25.98c0,1.42 -1.02,2.44 -2.43,2.44l-78.68 0c-1.81,0 -3.19,-0.23 -4.86,-0.9 -1.37,-0.55 -2.73,-1.03 -4.12,-1.51 -1.97,-0.68 -3.81,-1.52 -5.74,-2.45l-7.94 -5.34c-0.09,-0.08 -0.17,-0.17 -0.27,-0.26l-5.08 -5.07c-1.95,-1.94 -2.34,-2.88 -3.65,-5.14l-2.02 -3.63c-0.33,-0.81 -0.65,-1.75 -1.34,-2.34 -0.54,-0.47 -0.84,-2.41 -0.97,-3.06 -0.4,-1.94 -1.14,-2.13 -1.66,-3.87 -0.01,-0.04 -0.02,-0.07 -0.02,-0.11l-0.8 -82.96c0,-3.26 4.38,-2.46 6.5,-2.44 2.93,0.03 20.89,0.48 22.08,-0.31 0.83,-1.24 0.38,-19.64 0.34,-22.63 -0.02,-2.06 -0.69,-5.98 2.45,-5.98l70.04 0c3.58,0 11.83,0.04 14.87,1.6 0.9,0.47 1.79,0.96 2.82,0.97 0.97,0 2.22,0.88 2.99,1.4 1.14,0.74 2.59,1.34 3.81,1.99 2.14,1.15 4.08,2.5 5.95,4.13l8.91 9.87c0.03,0.03 0.05,0.07 0.07,0.11l6.61 14.7c0.01,0.02 0.02,0.04 0.03,0.07 0.32,1.28 0.34,3.52 0.39,4.86 0.13,3.17 0.18,6.34 0.22,9.52 0.13,8.95 0.13,17.92 0.11,26.88 -0.03,13.34 -0.19,26.69 -0.19,40.03 0,1.59 -0.5,3.45 -2.43,3.45l-25.99 0zm-87.81 -87.89l0 4.75c0,11.52 -0.18,23.05 -0.23,34.57 -0.03,7.57 -0.04,15.14 0.05,22.71 0.04,2.76 0.09,5.52 0.19,8.28 0.06,1.41 0.09,3.17 0.34,4.56 0.56,3.01 1.89,5.13 4.26,7.02 2.94,2.35 4.37,2.65 8.18,2.65l70.55 0c0.94,0 1.12,-0.18 1.12,-1.12 0,-12.55 0.2,-25.11 0.21,-37.67 0.01,-8.42 0,-16.86 -0.19,-25.29 -0.05,-2.16 -0.13,-11.39 -0.85,-13.17 -2.05,-5.08 -8.29,-7.72 -13.48,-7.72 -11.55,0 -23.11,-0.19 -34.67,-0.22 -7.67,-0.03 -15.34,-0.04 -23.01,0.09 -2.78,0.04 -5.56,0.1 -8.33,0.23 -1.2,0.06 -2.89,0.1 -4.14,0.33zm244.93 -0.43c-17.49,0 -34.97,0 -52.46,0 -7.65,0 -14.74,-0.71 -22.3,0.96 -0.82,0.18 -1.51,0.24 -2.3,0.54l-6.21 6.73c-0.55,1.76 -0.65,3.71 -0.87,5.51l0.11 66.05c0,1.82 -1.49,5.18 1.12,5.18l82.22 0c2.07,0 1.12,-10.77 1.12,-12.29 0,-0.15 0.08,-0.28 0.21,-0.36 1.81,-0.95 3.15,-1.57 5.27,-1.57l22.84 0c1.59,0 3.45,0.51 3.45,2.44l0 41.62c0,1.4 -0.53,1.93 -1.93,1.93l-115.21 0c-2.89,0 -1.95,-4.69 -1.94,-6.5 0.04,-5.56 0.26,-11.17 0.23,-16.72 -0.01,-1.05 0.07,-4.3 -0.93,-5 -0.76,-0.53 -3.98,-0.21 -4.98,-0.21l-21.32 0.01c-0.14,0 -0.26,-0.07 -0.33,-0.18 -0.94,-1.41 -1.59,-1.87 -1.59,-3.78l0 -67c0,-4 -0.12,-13.5 1.68,-16.83 1,-1.85 0.55,-2.53 1.27,-4.33l4.8 -8.4c0.01,-0.03 0.03,-0.05 0.05,-0.08l9.15 -9.63c0.02,-0.02 0.03,-0.03 0.06,-0.05 0.1,-0.07 0.21,-0.13 0.3,-0.2l0.88 -0.63c0.09,-0.07 0.17,-0.16 0.27,-0.23 2.28,-1.79 7.57,-5.02 10.34,-5.63 1.54,-0.34 2.5,-0.71 3.89,-1.36 3.22,-1.5 10.47,-1.25 13.9,-1.25 11.8,0 23.62,-0.2 35.42,-0.23 7.85,-0.03 15.7,-0.03 23.55,0.09 2.84,0.04 5.69,0.1 8.52,0.23 1.39,0.07 3.33,0.11 4.68,0.42 0.15,0.04 0.26,0.15 0.3,0.31 0.84,3.59 0.7,9.26 0.68,12.99 -0.02,3.99 -0.16,7.98 -0.16,11.97 0,1.4 -0.98,2.07 0.17,2.82 1.21,0.75 17.89,0.33 20.74,0.32 1.89,0 7.51,-1.05 7.51,1.94 0,4.74 0.15,9.5 0.17,14.24 0.02,3 0.02,6 -0.09,8.99 -0.08,1.95 -0.16,4.4 -0.6,6.3 -0.04,0.18 -0.2,0.31 -0.39,0.31l-28.94 0c-0.13,0 -0.26,-0.06 -0.33,-0.18 -2.08,-3.11 -1.63,-2.99 -1.6,-6.82 0.03,-3.57 0.1,-7.15 0.11,-10.72 0,-3.2 0.13,-8.52 -0.53,-11.72zm356.23 -23.24c0,-4.7 -2.34,-8.79 4.55,-8.12 3.59,0.34 7.65,0.12 11.26,0.02 2.34,-0.07 13.02,-0.69 14.58,0.94 1.66,1.75 0.87,10.64 0.87,13.25l0 81.71c0,7.78 -0.49,15.3 7.34,19.5 3.33,1.78 33.86,0.91 39.97,0.91 1.14,0 2.29,-0.05 3.43,-0.1 1.72,-0.07 8.65,-0.8 8.65,2.03l0 29.43c0,0.23 -0.19,0.41 -0.41,0.41l-51.77 0c-3.37,0 -6.23,-1.56 -9.45,-2.33 -3.92,-0.93 -11.56,-6.23 -14.66,-8.95 -0.02,-0.01 -0.04,-0.03 -0.06,-0.05l-9 -11.35c-0.17,-0.26 -0.67,-0.84 -0.61,-1.17 -0.01,-0.15 -0.17,-0.52 -0.22,-0.65 -0.37,-0.97 -0.46,-1.07 -1.01,-1.94 -0.25,-0.39 -0.45,-0.78 -0.63,-1.21 -0.63,-1.54 -1.06,-3.01 -1.77,-4.58 -1.1,-2.41 -1.02,-8.07 -1.05,-10.83 -0.02,-1.57 -0.31,-2.97 -0.39,-4.47 -0.08,-1.69 0.38,-2.97 0.38,-4.65l0 -87.8zm-231.76 136.54c-0.2,-0.18 -1.19,-0.6 -1.43,-0.7 -5.84,-2.53 -8.57,-5.2 -13.14,-9.38 -2.58,-2.36 -5.45,-6.63 -7.25,-9.66 -0.44,-0.75 -0.57,-1.45 -0.91,-2.23l-3.79 -9.91c-0.02,-0.04 -0.02,-0.07 -0.03,-0.1 -0.21,-1.83 0.08,-3.7 -0.07,-5.53 -0.32,-3.99 -0.38,-8.15 -0.47,-12.15 -0.13,-6.15 -0.2,-12.3 -0.23,-18.44 -0.03,-6.83 -0.02,-13.66 0.11,-20.49 0.05,-2.47 0.11,-4.95 0.24,-7.42 0.07,-1.22 0.11,-2.9 0.39,-4.08 0.03,-0.14 0.12,-0.24 0.25,-0.29 2.11,-0.82 11.3,-0.67 13.85,-0.66 4.4,0.01 8.8,0.13 13.19,0.13 4.17,0 3.51,2.87 3.47,5.98 -0.12,8.88 -0.23,17.75 -0.24,26.63 -0.01,5.95 0.02,11.93 0.18,17.88 0.09,3.57 0.12,8.06 0.76,11.55 0.79,4.36 2.67,7.52 6.62,9.63 3.14,1.67 26.13,0.91 31.34,0.91 3.36,0 13.6,-1.63 13.6,3.45l0 25.88c0,1.42 -1.02,2.44 -2.43,2.44l-42.64 0c-2.11,0 -3.43,-0.25 -5.32,-1.14 -0.54,-0.25 -1.06,-0.49 -1.64,-0.66 -0.47,-0.15 -3.97,-1 -4.41,-1.64zm-726.03 -79.12c0.21,-0.05 0.42,-0.12 0.63,-0.19 0.84,-0.28 1.64,-0.68 2.39,-1.14 2.73,-1.67 4.4,-3.97 6.8,-5.68 1.55,-1.11 3.96,-2.38 5.76,-3.03 5.66,-2.04 9.65,-2.19 15.42,-0.59 3.75,1.04 6.99,3.01 9.55,5.94 6.82,7.81 7.02,20.13 4.53,29.67 -1.33,5.08 -3.56,10.11 -6.69,14.35 -1.46,1.98 -3.07,3.68 -4.81,5.43 -15.9,15.99 -40.79,15.61 -57.16,0.52 -2.99,-2.76 -6.74,-7.83 -8.51,-11.49 -4.82,-9.94 -4.43,-14.1 -4.43,-24.72 0,-8.3 8.41,-16.14 16.65,-16.14 9.42,0 12.45,2.1 19.87,7.07zm646.65 -63.01c0,-3.66 4.19,-2.51 6.49,-2.42 2.88,0.11 5.76,-0.01 8.64,-0.01l106.08 0c2.75,0 14.61,-1.72 14.61,2.43l0 25.89c0,1.41 -1.53,2.94 -2.94,2.94l-130.44 0c-1.93,0 -2.44,-1.85 -2.44,-3.45l0 -25.38zm0 117.76c0,-1.74 0.93,-3.96 2.95,-3.96l48.72 0c4.65,0 2.95,24.86 2.95,28.32 0,1.59 -0.51,3.45 -2.44,3.45l-49.74 0c-1.41,0 -2.44,-1.02 -2.44,-2.44l0 -25.37zm-623.28 -186.28c0,-6.72 4.77,-12.97 10.7,-15.78 4.66,-2.2 8.95,-2.15 13.72,-0.35 3.04,1.15 5.3,3.14 7.42,5.54 4.29,4.84 5.2,12.4 2.96,18.35 -0.43,1.14 -0.77,1.74 -1.38,2.78 -4.8,8.05 -14.36,11.77 -22.98,7.53 -7.44,-3.67 -10.44,-9.96 -10.44,-18.07zm-74.1 -0.51c0,-4.08 2.75,-8.78 5.56,-11.59 8.3,-8.31 22.9,-6.19 28.22,4.28 2.53,4.99 2.05,6.03 2.05,11.38 0,6.39 -5.11,11.94 -10.65,14.48 -6.88,3.15 -14.23,2 -19.62,-3.4 -4.75,-4.75 -5.56,-8.68 -5.56,-15.15zm483.69 59.78c-5.33,1.25 -13.73,0.52 -19.38,0.52 -1.59,0 -3.45,-0.5 -3.45,-2.43 0,-3.22 -0.13,-6.45 -0.15,-9.66 -0.03,-3.28 -0.07,-7.57 0.67,-10.74 0.03,-0.13 0.12,-0.23 0.25,-0.28 2.95,-1.15 15.93,-0.54 19.94,-0.54 2.45,0 2.94,3.08 2.94,4.97 0,5.38 0.68,12.73 -0.51,17.86 -0.04,0.16 -0.15,0.27 -0.31,0.3zm-68.51 -20.69c0,-1.42 1.02,-2.44 2.44,-2.44 4.84,0 9.74,-0.21 14.57,-0.13 1.61,0.02 4.54,0 5.66,1.39 0.76,0.95 0.73,2.49 0.7,3.64 -0.06,2.23 -0.23,4.43 -0.23,6.67 0.01,2.4 0.21,4.74 0.27,7.12 0.04,1.26 0.07,3.04 -0.84,4.03 -0.72,0.79 -1.86,0.93 -2.88,0.93l-17.25 0c-1.42,0 -2.44,-1.02 -2.44,-2.43l0 -18.78z"/>
  </g>
  <g id="_1605695824">
   <path fill="#373435" stroke="#E6E7E8" stroke-width="2.36" stroke-miterlimit="22.9256" d="M12.5 324.53c0,11.4 0.5,23.47 3.22,34.34 1.85,7.42 3.86,14.21 6.57,21.35 2.04,5.39 4.96,10.89 7.82,16.03l6.24 10c4.44,6.3 9.4,12.19 14.85,17.64l8.13 7.61c1.62,1.55 2.81,2.25 4.51,3.61 6.9,5.52 14.45,10.27 22.51,14.03 14.78,6.89 17.94,7.24 33.24,10.91 2.21,0.54 4.73,0.56 7.07,1.06l15.28 0.99 14.66 -1.08c4.41,-0.94 9.33,-1.22 13.81,-2.44l24.17 -8.31c3.73,-1.66 6.9,-3.62 10.29,-5.45 8.32,-4.5 16.56,-10.68 23.22,-17.38 0.8,-0.82 1.23,-1.26 2.07,-1.99 3.55,-3.08 6.43,-6.53 9.57,-10.22 18.64,-21.92 30.61,-53.33 30.61,-82.58 0,-8.75 -0.31,-16.52 -1.66,-25.24 -1.98,-12.88 -6.06,-25.8 -11.87,-37.36 -3.32,-6.59 -6.8,-12.85 -11.12,-18.82 -2.75,-3.8 -5.45,-7.73 -8.71,-11.09 -3.34,-3.42 -6.11,-6.88 -10.18,-9.62 -15.26,-10.24 -35.85,-3.82 -43.69,12.36 -4.82,9.96 -4.02,24.71 3.37,33.04l10.68 12.67c5.91,8.73 9.63,19.08 11.55,29.56 1.02,5.58 0.73,11.77 0.73,17.55 0,6.96 -4.05,19.33 -7.19,25.3 -1.87,3.55 -3.69,6.79 -6.15,10.09l-9.55 10.75c-0.85,0.72 -1.26,1.18 -2.14,1.92l-9.51 6.73c-5.33,3.08 -11.31,5.54 -17.33,7.03 -5.98,1.48 -12.6,2.13 -19.19,2.13 -3,0 -4.3,-0.65 -6.69,-0.93 -3.23,-0.38 -3.96,-0.59 -6.82,-1.3l-9.17 -3.01c-9.19,-3.91 -17.11,-9.37 -23.63,-16.46l-1.86 -2.2c-2.6,-3.05 -4.83,-5.75 -6.82,-9.42 -3.04,-5.59 -5.51,-10.61 -7.44,-16.93 -4.34,-14.15 -3.35,-29.97 1.18,-43.99 3.11,-9.61 8.74,-18.49 15.69,-25.42 4.37,-4.35 8.32,-8.94 10.55,-14.83 2.53,-6.68 2.37,-16.56 -0.45,-22.93 -9.19,-20.7 -32.88,-25.93 -50.11,-9.35l-4.9 5.25c-5.02,5.09 -9.63,10.94 -13.37,17.08l-7.49 12.81c-1.27,2.56 -2.13,4.16 -3.23,6.92 -2.99,7.49 -6.21,14.71 -7.7,22.76 -1.63,8.84 -3.62,17.68 -3.62,26.83z"/>
   <path fill="#373435" stroke="#E6E7E8" stroke-width="2.36" stroke-miterlimit="22.9256" d="M303.84 282.4l0 14.73c0.46,8.62 1.03,10.62 4.35,17.98 1.08,2.39 0.75,1.63 2.02,3.55l4.71 6.47c0.1,0.11 0.36,0.45 0.45,0.56l5.16 5c0.89,0.79 2.11,1.66 3.28,2.3l3.41 2.17c0.92,0.51 0.78,0.31 1.78,0.76 1.38,0.62 0.97,0.58 1.94,1.1l8.41 2.76c2.33,0.1 3.53,-0.07 5.82,0.27 6.02,0.91 45.14,0.22 55.61,0.22 5.31,0 5.89,-0.32 10.02,1.15 2.02,0.71 2.96,0.64 4.53,2.07l2.22 2.34c3.72,4.75 2.52,14.07 2.52,20.32 0,1.17 -0.35,1.52 -1.52,1.52l-70.55 0c-5.79,0 -8.01,-1.89 -10.61,-5.13 -3.74,-4.67 -0.4,-9.08 -7.16,-9.08l-22.84 0c-1.86,0 -2.45,0.79 -3.55,1.53 0,2.21 0.41,2.49 0.51,4.56 0.27,5.79 -0.3,3.57 1.65,8.51 1.23,3.13 0.71,3.08 2.89,7.25l7.63 10.14c3.3,3.26 7.35,6.83 11.63,8.67 0.6,0.26 1.03,0.32 1.81,0.73 2.97,1.57 8.04,3.79 11.95,3.79l78.67 0c1.19,0 2.03,-0.85 2.03,-2.04l0 -26.39 26.39 0c1.56,0 2.03,-1.49 2.03,-3.04 0,-5.83 0.87,-17.98 -0.62,-23.23 -1.35,-4.71 -3.79,-9.38 -6.07,-13.73l-2.31 -3.28c-0.73,-0.96 -0.2,-0.29 -0.7,-0.82l-7.17 -7.04c-1.88,-1.47 -7.66,-5.27 -9.75,-5.98l-4.53 -1.56c-6.59,-3.4 -61.32,-2.23 -66.81,-2.23 -3.67,0.01 -7.37,0.1 -10.36,-0.8 -2.06,-0.62 -5.13,-3.78 -6.24,-5.43 -1.55,-2.29 -1.69,-6.33 -1.67,-10l0 -10.67c5.72,-1.33 60.13,-0.5 70.55,-0.5 4,0 7.74,1.26 10.58,3.63 1.09,0.92 0.39,0.16 1.25,1.29l1.68 2.38c1.96,3.35 -0.02,7.42 5.78,7.42l23.35 0c3.88,0 3.04,-3.33 3.04,-6.09 0,-3.58 -1.14,-5.47 -2.03,-8.63 -0.54,-1.92 -0.33,-2 -1.3,-3.78 -0.81,-1.48 -1.09,-2.57 -1.77,-3.8l-13.62 -15.32c-0.85,-0.53 -1.15,-0.49 -2.05,-1 -2.07,-1.17 -4.4,-2.95 -6.88,-3.78 -3.08,-1.02 -4.77,-2.25 -8.38,-2.28 -3.65,-0.02 -6.41,-0.5 -10.66,-0.5l-69.54 0c-3.19,0 -2.03,8.77 -2.03,13.2 0,19.06 3.66,15.73 -15.23,15.73 -4.79,0 -13.7,-1.16 -13.7,2.03z"/>
   <path fill="#373435" stroke="#E6E7E8" stroke-width="2.36" stroke-miterlimit="22.9256" d="M936.76 286.97l0 105.57c0,7.82 -5.66,6.1 27.41,6.1 1.38,0 1.4,-0.25 2.54,-0.51l0 -42.64c5.07,-1.18 54.25,-0.58 67,-0.5 8.58,0.04 6.6,2.59 6.6,-26.91 0,-1.83 -0.43,-2.83 -1.02,-4.06 -10.39,0 -67.34,0.72 -72.58,-0.5l0 -32.49c0,-3.03 -1.08,-9.13 2.03,-9.13l69.03 0c7.54,0 14.22,5.24 14.71,10.16 1.21,12.19 0.62,80.01 0.51,99.98 -0.04,8.8 -3.14,6.6 28.94,6.6 1.18,0 2.03,-0.85 2.03,-2.04l-0.52 -106.58c0.04,-5.89 -0.73,-4.7 -1.65,-7.47 -0.45,-1.33 -0.19,-1.27 -0.5,-2.55 -0.35,-1.39 -0.33,-0.96 -1.02,-2.03 -1.21,-1.87 -1.37,-3.08 -4.5,-7.68 -2.95,-4.34 -0.9,-1.4 -4.13,-5.01 -0.43,-0.48 -1.07,-1.25 -1.44,-1.6 -0.08,-0.08 -0.18,-0.18 -0.26,-0.25l-1.39 -1.15c-2.33,-2.11 -6.18,-5.05 -9.07,-6.16 -1.77,-0.67 -0.68,-0.11 -2.05,-0.99l-8.98 -3.2c-25.69,-1.08 -55.1,-0.49 -81.23,-0.49 -2.69,0 -2.06,3.36 -2.04,6.09l0.01 16.76c0.05,7.86 2.87,6.08 -19.29,6.08 -1.09,0 -7.52,-0.1 -8.03,0.09 -2.19,0.82 -1.11,3.79 -1.11,6.51z"/>
   <path fill="#373435" stroke="#E6E7E8" stroke-width="2.36" stroke-miterlimit="22.9256" d="M495.7 282.4c5.58,-1.3 60.23,-0.5 70.55,-0.5 5.52,0 11.79,2.84 13.86,7.96 1.72,4.27 0.86,66.88 0.86,76.29 0,1.17 -0.36,1.52 -1.53,1.52l-70.55 0c-4.37,0 -5.73,-0.57 -8.43,-2.73 -2.36,-1.89 -3.82,-4.06 -4.41,-7.27 -1.11,-6.04 -0.35,-60.17 -0.35,-70.19l0 -5.08zm-30.96 0l0.8 82.95c0.7,2.32 1.12,1.23 1.67,3.91 0.98,4.8 0.53,1 2.28,5.33l2 3.58c1.26,2.17 1.36,2.85 3.58,5.05l5.09 5.07c0.07,0.07 0.18,0.18 0.25,0.25l7.89 5.31c5.49,2.62 5.31,2.11 9.79,3.91 1.51,0.61 2.76,0.88 4.71,0.88l78.68 0c1.18,0 2.02,-0.85 2.02,-2.04l0 -26.39 26.4 0c1.56,0 2.03,-1.49 2.03,-3.04 0,-10.55 0.68,-76.38 -0.53,-81.19l-6.61 -14.7 -8.91 -9.88c-4.52,-3.91 -7.84,-4.84 -9.68,-6.05 -3.88,-2.56 -1.66,-0.22 -5.78,-2.34 -2.85,-1.47 -10.92,-1.57 -14.68,-1.57l-70.04 0c-2.59,0 -2.07,3.01 -2.04,5.58 0.04,3.83 0.53,21.93 -0.44,22.9 -0.97,0.97 -18.63,0.48 -22.4,0.45 -2.73,-0.02 -6.08,-0.65 -6.08,2.03z"/>
   <path fill="#373435" stroke="#E6E7E8" stroke-width="2.36" stroke-miterlimit="22.9256" d="M625.63 299.66l0 67c0,1.86 0.79,2.45 1.52,3.55l21.32 0c7.8,-0.05 6.24,-2.85 6.09,22.34 -0.01,2.48 -0.79,6.09 1.53,6.09l115.21 0c1.17,0 1.52,-0.36 1.52,-1.53l0 -41.62c0,-1.56 -1.48,-2.03 -3.04,-2.03l-22.84 0c-2.24,0 -3.62,0.75 -5.08,1.53 0,4.78 1.01,12.68 -1.52,12.68l-82.22 0c-3.09,0 -1.53,-3.24 -1.53,-5.58l-0.11 -66.06c0.25,-2.05 0.36,-3.95 0.92,-5.71l6.34 -6.86c0.94,-0.39 1.38,-0.36 2.45,-0.6 7.7,-1.7 13.48,-0.96 22.38,-0.96 17.6,0 35.19,0 52.79,0 0.89,3.84 0.54,17.28 0.5,22.84 -0.04,4.44 -0.3,3.86 1.52,6.6l28.94 0c1.15,-4.96 0.5,-23.11 0.5,-29.44 0,-2.45 -4.78,-1.53 -7.1,-1.53 -2.74,0.01 -19.66,0.45 -20.96,-0.39 -1.45,-0.94 -0.36,-1.48 -0.36,-3.16 0,-5.84 0.62,-20.05 -0.51,-24.87 -5.6,-1.3 -61.61,-0.51 -72.07,-0.51 -16.31,0 -11.31,1.19 -17.7,2.61 -2.57,0.57 -7.89,3.75 -10.18,5.55 -0.08,0.07 -0.19,0.17 -0.27,0.23l-0.89 0.64c-0.09,0.06 -0.22,0.14 -0.31,0.2l-9.14 9.64 -4.8 8.4c-0.84,2.12 0.04,1.91 -1.26,4.32 -1.69,3.13 -1.64,12.35 -1.64,16.63z"/>
   <path fill="#373435" stroke="#E6E7E8" stroke-width="2.36" stroke-miterlimit="22.9256" d="M1097.66 259.06l0 87.8c0,2.53 -0.48,2.34 -0.37,4.63 0.05,0.91 0.36,2.4 0.39,4.48 0.04,3.25 0.03,8.53 1.01,10.68 1.66,3.66 1.4,4.19 2.37,5.74 0.75,1.19 0.54,0.68 1.05,2 0.6,1.54 -0.23,0.2 0.79,1.75l8.98 11.32c3.17,2.76 10.8,7.98 14.49,8.86 4.73,1.13 5.7,2.32 9.36,2.32l51.77 0 0 -29.44c0,-2.51 -6.82,-1.53 -11.67,-1.53 -7.92,0 -36.85,0.83 -40.16,-0.95 -7.8,-4.18 -7.56,-11.26 -7.56,-19.86l0 -81.71c0,-2.98 0.74,-11.4 -0.76,-12.96 -1.9,-2 -18.53,-0.17 -25.58,-0.85 -6.29,-0.6 -4.11,2.56 -4.11,7.72z"/>
   <path fill="#373435" stroke="#E6E7E8" stroke-width="2.36" stroke-miterlimit="22.9256" d="M839.31 295.6c-1.13,4.87 -0.81,52.71 -0.02,62.46 0.14,1.76 -0.14,3.8 0.07,5.51l3.79 9.91c0.37,0.86 0.41,1.39 0.88,2.17 1.61,2.71 4.79,7.4 7.17,9.57 4.61,4.21 7.02,6.71 13.03,9.3 3.75,1.63 -1.3,0.15 5.8,2.33 2.14,0.65 2.83,1.79 6.84,1.79l42.64 0c1.19,0 2.03,-0.85 2.03,-2.04l0 -25.88c0,-4.41 -8.19,-3.05 -13.2,-3.05 -5.3,0 -28.37,0.73 -31.53,-0.95 -3.95,-2.11 -5.99,-5.29 -6.83,-9.91 -1.41,-7.77 -0.87,-43.57 -0.71,-56.14 0.04,-3.5 0.57,-5.58 -3.06,-5.58 -4.27,0 -24.25,-0.51 -26.9,0.51z"/>
   <path fill="#373435" stroke="#E6E7E8" stroke-width="2.36" stroke-miterlimit="22.9256" d="M139.39 316.92c-7.1,-4.76 -10.12,-7.11 -19.79,-7.11 -8.54,0 -16.24,8.18 -16.24,15.74 0,10.44 -0.53,14.41 4.38,24.54 1.76,3.63 5.63,8.8 8.42,11.37 16.16,14.9 40.81,15.38 56.6,-0.51 1.8,-1.81 3.27,-3.35 4.77,-5.38 11.49,-15.56 12.1,-43.97 -7.16,-49.32 -5.55,-1.55 -9.43,-1.5 -15.18,0.58 -1.68,0.6 -4.27,1.97 -5.66,2.97 -2.13,1.52 -5.63,6.07 -10.14,7.12z"/>
   <path fill="#373435" stroke="#E6E7E8" stroke-width="2.36" stroke-miterlimit="22.9256" d="M786.53 253.47l0 25.38c0,1.56 0.47,3.05 2.03,3.05l130.44 0c1.19,0 2.54,-1.36 2.54,-2.54l0 -25.89c0,-3.53 -9.86,-2.03 -14.21,-2.03l-106.08 0c-2.81,0 -5.87,0.12 -8.65,0.01 -2.35,-0.09 -6.07,-1.17 -6.07,2.02z"/>
   <path fill="#373435" stroke="#E6E7E8" stroke-width="2.36" stroke-miterlimit="22.9256" d="M786.53 371.23l0 25.37c0,1.19 0.84,2.04 2.03,2.04l49.74 0c1.56,0 2.03,-1.49 2.03,-3.05 0,-4.83 1.44,-27.92 -2.54,-27.92l-48.72 0c-1.64,0 -2.54,1.84 -2.54,3.56z"/>
   <path fill="#373435" stroke="#E6E7E8" stroke-width="2.36" stroke-miterlimit="22.9256" d="M163.25 184.95c0,8.2 3.09,14.2 10.21,17.7 8,3.94 17.49,0.95 22.45,-7.37 0.76,-1.28 0.86,-1.39 1.35,-2.71 2.19,-5.81 1.3,-13.22 -2.88,-17.94 -2.08,-2.34 -4.28,-4.3 -7.26,-5.43 -4.65,-1.76 -8.82,-1.83 -13.4,0.34 -5.45,2.57 -10.47,8.53 -10.47,15.41z"/>
   <path fill="#373435" stroke="#E6E7E8" stroke-width="2.36" stroke-miterlimit="22.9256" d="M89.14 184.45c0,6 0.6,10.01 5.45,14.86 11.67,11.69 29.57,0.75 29.57,-10.8 0,-5.41 0.52,-6.22 -2,-11.19 -5.04,-9.93 -19.22,-12.54 -27.57,-4.18 -2.32,2.31 -5.45,6.97 -5.45,11.31z"/>
   <path fill="#373435" stroke="#E6E7E8" stroke-width="2.36" stroke-miterlimit="22.9256" d="M550.51 222c-1.1,4.73 -0.5,14.93 -0.5,20.31 0,1.56 1.48,2.03 3.04,2.03 5.26,0 14.61,0.58 19.29,-0.51 1.08,-4.64 0.51,-12.67 0.51,-17.76 0,-2.06 -0.55,-4.57 -2.54,-4.57 -3.54,0 -17.31,-0.46 -19.8,0.5z"/>
   <path fill="#373435" stroke="#E6E7E8" stroke-width="2.36" stroke-miterlimit="22.9256" d="M504.33 223.53l0 18.78c0,1.19 0.84,2.03 2.03,2.03l17.25 0c4.68,0 3.06,-3.49 3.05,-11.68 -0.01,-13.42 3.93,-11.16 -20.3,-11.16 -1.19,0 -2.03,0.84 -2.03,2.03z"/>
  </g>
 </g>
</svg>
